<mxfile host="app.diagrams.net" modified="2021-08-19T12:46:39.988Z" agent="5.0 (Macintosh; Intel Mac OS X 10_14_5) AppleWebKit/537.36 (KHTML, like Gecko) Chrome/92.0.4515.131 Safari/537.36" etag="Z35xV9-TmPxMzOFavlfx" version="14.9.7" type="github">
  <diagram id="hhFVIFR7EP_UF1DUQaOu" name="Page-1">
    <mxGraphModel dx="903" dy="534" grid="1" gridSize="10" guides="1" tooltips="1" connect="1" arrows="1" fold="1" page="1" pageScale="1" pageWidth="827" pageHeight="1169" math="0" shadow="0">
      <root>
        <mxCell id="0" />
        <mxCell id="1" parent="0" />
        <mxCell id="eVdIeHZePJZGgRpQu2_--27" style="edgeStyle=orthogonalEdgeStyle;curved=1;rounded=0;sketch=1;jumpStyle=none;jumpSize=5;orthogonalLoop=1;jettySize=auto;html=1;exitX=0.5;exitY=1;exitDx=0;exitDy=0;entryX=0;entryY=0;entryDx=0;entryDy=0;shadow=0;endArrow=open;endFill=0;endSize=12;strokeColor=#808080;strokeWidth=2;" edge="1" parent="1" source="eVdIeHZePJZGgRpQu2_--3" target="eVdIeHZePJZGgRpQu2_--16">
          <mxGeometry relative="1" as="geometry" />
        </mxCell>
        <mxCell id="eVdIeHZePJZGgRpQu2_--3" value="SpreadJS模板" style="rounded=1;whiteSpace=wrap;html=1;strokeWidth=2;fillColor=#3c7388;strokeColor=#006666;" vertex="1" parent="1">
          <mxGeometry x="159.47000000000003" y="252" width="100" height="50" as="geometry" />
        </mxCell>
        <mxCell id="eVdIeHZePJZGgRpQu2_--5" value="" style="shape=image;imageAspect=0;aspect=fixed;verticalLabelPosition=bottom;verticalAlign=top;strokeWidth=2;fillColor=#66B2FF;gradientColor=none;image=data:image/jpeg,/9j/4AAQSkZJRgABAQIAHAAcAAD/4gxYSUNDX1BST0ZJTEUAAQEAAAxITGlubwIQAABtbnRyUkdCIFhZWiAHzgACAAkABgAxAABhY3NwTVNGVAAAAABJRUMgc1JHQgAAAAAAAAAAAAAAAAAA9tYAAQAAAADTLUhQICAAAAAAAAAAAAAAAAAAAAAAAAAAAAAAAAAAAAAAAAAAAAAAAAAAAAAAAAAAAAAAABFjcHJ0AAABUAAAADNkZXNjAAABhAAAAGx3dHB0AAAB8AAAABRia3B0AAACBAAAABRyWFlaAAACGAAAABRnWFlaAAACLAAAABRiWFlaAAACQAAAABRkbW5kAAACVAAAAHBkbWRkAAACxAAAAIh2dWVkAAADTAAAAIZ2aWV3AAAD1AAAACRsdW1pAAAD+AAAABRtZWFzAAAEDAAAACR0ZWNoAAAEMAAAAAxyVFJDAAAEPAAACAxnVFJDAAAEPAAACAxiVFJDAAAEPAAACAx0ZXh0AAAAAENvcHlyaWdodCAoYykgMTk5OCBIZXdsZXR0LVBhY2thcmQgQ29tcGFueQAAZGVzYwAAAAAAAAASc1JHQiBJRUM2MTk2Ni0yLjEAAAAAAAAAAAAAABJzUkdCIElFQzYxOTY2LTIuMQAAAAAAAAAAAAAAAAAAAAAAAAAAAAAAAAAAAAAAAAAAAAAAAAAAAAAAAAAAAAAAAAAAWFlaIAAAAAAAAPNRAAEAAAABFsxYWVogAAAAAAAAAAAAAAAAAAAAAFhZWiAAAAAAAABvogAAOPUAAAOQWFlaIAAAAAAAAGKZAAC3hQAAGNpYWVogAAAAAAAAJKAAAA+EAAC2z2Rlc2MAAAAAAAAAFklFQyBodHRwOi8vd3d3LmllYy5jaAAAAAAAAAAAAAAAFklFQyBodHRwOi8vd3d3LmllYy5jaAAAAAAAAAAAAAAAAAAAAAAAAAAAAAAAAAAAAAAAAAAAAAAAAAAAAAAAAAAAAABkZXNjAAAAAAAAAC5JRUMgNjE5NjYtMi4xIERlZmF1bHQgUkdCIGNvbG91ciBzcGFjZSAtIHNSR0IAAAAAAAAAAAAAAC5JRUMgNjE5NjYtMi4xIERlZmF1bHQgUkdCIGNvbG91ciBzcGFjZSAtIHNSR0IAAAAAAAAAAAAAAAAAAAAAAAAAAAAAZGVzYwAAAAAAAAAsUmVmZXJlbmNlIFZpZXdpbmcgQ29uZGl0aW9uIGluIElFQzYxOTY2LTIuMQAAAAAAAAAAAAAALFJlZmVyZW5jZSBWaWV3aW5nIENvbmRpdGlvbiBpbiBJRUM2MTk2Ni0yLjEAAAAAAAAAAAAAAAAAAAAAAAAAAAAAAAAAAHZpZXcAAAAAABOk/gAUXy4AEM8UAAPtzAAEEwsAA1yeAAAAAVhZWiAAAAAAAEwJVgBQAAAAVx/nbWVhcwAAAAAAAAABAAAAAAAAAAAAAAAAAAAAAAAAAo8AAAACc2lnIAAAAABDUlQgY3VydgAAAAAAAAQAAAAABQAKAA8AFAAZAB4AIwAoAC0AMgA3ADsAQABFAEoATwBUAFkAXgBjAGgAbQByAHcAfACBAIYAiwCQAJUAmgCfAKQAqQCuALIAtwC8AMEAxgDLANAA1QDbAOAA5QDrAPAA9gD7AQEBBwENARMBGQEfASUBKwEyATgBPgFFAUwBUgFZAWABZwFuAXUBfAGDAYsBkgGaAaEBqQGxAbkBwQHJAdEB2QHhAekB8gH6AgMCDAIUAh0CJgIvAjgCQQJLAlQCXQJnAnECegKEAo4CmAKiAqwCtgLBAssC1QLgAusC9QMAAwsDFgMhAy0DOANDA08DWgNmA3IDfgOKA5YDogOuA7oDxwPTA+AD7AP5BAYEEwQgBC0EOwRIBFUEYwRxBH4EjASaBKgEtgTEBNME4QTwBP4FDQUcBSsFOgVJBVgFZwV3BYYFlgWmBbUFxQXVBeUF9gYGBhYGJwY3BkgGWQZqBnsGjAadBq8GwAbRBuMG9QcHBxkHKwc9B08HYQd0B4YHmQesB78H0gflB/gICwgfCDIIRghaCG4IggiWCKoIvgjSCOcI+wkQCSUJOglPCWQJeQmPCaQJugnPCeUJ+woRCicKPQpUCmoKgQqYCq4KxQrcCvMLCwsiCzkLUQtpC4ALmAuwC8gL4Qv5DBIMKgxDDFwMdQyODKcMwAzZDPMNDQ0mDUANWg10DY4NqQ3DDd4N+A4TDi4OSQ5kDn8Omw62DtIO7g8JDyUPQQ9eD3oPlg+zD88P7BAJECYQQxBhEH4QmxC5ENcQ9RETETERTxFtEYwRqhHJEegSBxImEkUSZBKEEqMSwxLjEwMTIxNDE2MTgxOkE8UT5RQGFCcUSRRqFIsUrRTOFPAVEhU0FVYVeBWbFb0V4BYDFiYWSRZsFo8WshbWFvoXHRdBF2UXiReuF9IX9xgbGEAYZRiKGK8Y1Rj6GSAZRRlrGZEZtxndGgQaKhpRGncanhrFGuwbFBs7G2MbihuyG9ocAhwqHFIcexyjHMwc9R0eHUcdcB2ZHcMd7B4WHkAeah6UHr4e6R8THz4faR+UH78f6iAVIEEgbCCYIMQg8CEcIUghdSGhIc4h+yInIlUigiKvIt0jCiM4I2YjlCPCI/AkHyRNJHwkqyTaJQklOCVoJZclxyX3JicmVyaHJrcm6CcYJ0kneierJ9woDSg/KHEooijUKQYpOClrKZ0p0CoCKjUqaCqbKs8rAis2K2krnSvRLAUsOSxuLKIs1y0MLUEtdi2rLeEuFi5MLoIuty7uLyQvWi+RL8cv/jA1MGwwpDDbMRIxSjGCMbox8jIqMmMymzLUMw0zRjN/M7gz8TQrNGU0njTYNRM1TTWHNcI1/TY3NnI2rjbpNyQ3YDecN9c4FDhQOIw4yDkFOUI5fzm8Ofk6Njp0OrI67zstO2s7qjvoPCc8ZTykPOM9Ij1hPaE94D4gPmA+oD7gPyE/YT+iP+JAI0BkQKZA50EpQWpBrEHuQjBCckK1QvdDOkN9Q8BEA0RHRIpEzkUSRVVFmkXeRiJGZ0arRvBHNUd7R8BIBUhLSJFI10kdSWNJqUnwSjdKfUrESwxLU0uaS+JMKkxyTLpNAk1KTZNN3E4lTm5Ot08AT0lPk0/dUCdQcVC7UQZRUFGbUeZSMVJ8UsdTE1NfU6pT9lRCVI9U21UoVXVVwlYPVlxWqVb3V0RXklfgWC9YfVjLWRpZaVm4WgdaVlqmWvVbRVuVW+VcNVyGXNZdJ114XcleGl5sXr1fD19hX7NgBWBXYKpg/GFPYaJh9WJJYpxi8GNDY5dj62RAZJRk6WU9ZZJl52Y9ZpJm6Gc9Z5Nn6Wg/aJZo7GlDaZpp8WpIap9q92tPa6dr/2xXbK9tCG1gbbluEm5rbsRvHm94b9FwK3CGcOBxOnGVcfByS3KmcwFzXXO4dBR0cHTMdSh1hXXhdj52m3b4d1Z3s3gReG54zHkqeYl553pGeqV7BHtje8J8IXyBfOF9QX2hfgF+Yn7CfyN/hH/lgEeAqIEKgWuBzYIwgpKC9INXg7qEHYSAhOOFR4Wrhg6GcobXhzuHn4gEiGmIzokziZmJ/opkisqLMIuWi/yMY4zKjTGNmI3/jmaOzo82j56QBpBukNaRP5GokhGSepLjk02TtpQglIqU9JVflcmWNJaflwqXdZfgmEyYuJkkmZCZ/JpomtWbQpuvnByciZz3nWSd0p5Anq6fHZ+Ln/qgaaDYoUehtqImopajBqN2o+akVqTHpTilqaYapoum/adup+CoUqjEqTepqaocqo+rAqt1q+msXKzQrUStuK4trqGvFq+LsACwdbDqsWCx1rJLssKzOLOutCW0nLUTtYq2AbZ5tvC3aLfguFm40blKucK6O7q1uy67p7whvJu9Fb2Pvgq+hL7/v3q/9cBwwOzBZ8Hjwl/C28NYw9TEUcTOxUvFyMZGxsPHQce/yD3IvMk6ybnKOMq3yzbLtsw1zLXNNc21zjbOts83z7jQOdC60TzRvtI/0sHTRNPG1EnUy9VO1dHWVdbY11zX4Nhk2OjZbNnx2nba+9uA3AXcit0Q3ZbeHN6i3ynfr+A24L3hROHM4lPi2+Nj4+vkc+T85YTmDeaW5x/nqegy6LzpRunQ6lvq5etw6/vshu0R7ZzuKO6070DvzPBY8OXxcvH/8ozzGfOn9DT0wvVQ9d72bfb794r4Gfio+Tj5x/pX+uf7d/wH/Jj9Kf26/kv+3P9t////2wBDAAwICQoJBwwKCQoNDAwOER0TERAQESMZGxUdKiUsKyklKCguNEI4LjE/MigoOk46P0RHSktKLTdRV1FIVkJJSkf/2wBDAQwNDREPESITEyJHMCgwR0dHR0dHR0dHR0dHR0dHR0dHR0dHR0dHR0dHR0dHR0dHR0dHR0dHR0dHR0dHR0dHR0f/wAARCAHUAoADASIAAhEBAxEB/8QAHAABAAEFAQEAAAAAAAAAAAAAAAYBAwQFBwII/8QAThABAAIBAgIFBggJCQcEAwAAAAECAwQRBRIGITFBURMiYXGBkQcUFTJSobHBQlNicpKUstHSIzU2Q3SDwuHwFiQzRVWjszQ3ovFjgpP/xAAaAQEBAQEBAQEAAAAAAAAAAAAAAQMEAgUG/8QAJhEBAQACAQMEAgIDAAAAAAAAAAECEQMSITEEEzJRIkEFM0Jhcf/aAAwDAQACEQMRAD8A6qAAAAAAAAAAAAAAAAAAAAAAAAAAAAAAAAAAAAAAAAAAAAAAAAAAAAAAAAAAAAAAAAAAAAAAAAAAAAAAAAAAAAAAAAAAAAAAAAAAAAAAAAAAAAAAAAAAAAAAAAAAAAAAAAAAAAAAAAAAAAAAAAAAAAAAAAAAAAAAAAAAAAAAAAAAAAAAAAAAAAAAAAAAAAAAAAAAAAAAAAAAAAAAAAAAAAAAAAAAAAAAAAAAAAAAAAAAAAAAAAAAAAAAAAAAAAAAAAAAAAAAAAAAAAAAAAAAAAAAAAAAAAAAAAAAAAAAAAAAAAAAAAAAAAAAAAAAAAAAAAAAAAAAAAAAAAAAAAAAAAAAAAAAAAAAAAAAAAAAAAAAAAAAAAAAAAAAAAAAAAAAAAAAAAAAAAAAAAAAAAAAAAAAAAAAAAAAAAAAAAAAAAAAAAAAAAAAAAAAAAAAAAAAAAAAAAAAAAAAAAAAAAAAAAAAAAAAAAAAAAAAAAAAAAAAAAAAAAAAAAAAAAAAAAAAAAAANfxPjfDOE8scQ1mPDa221Ou1tuvr5Y3nbqnr7ET4j8I9IrNeF6G0zMRtk1M7bTv1+bWevq9MfvCeDkPEOmXHddGSvx2dNjvt5mnrFOXbbst86Ozx+potZm1Wtyxl1eqzajJEcsWzXm0xHhvPrldLp2zJxvhGLLbFl4roqZKTNbVtqKRNZjtiY36paz/bno1/1L/sZP4XHZpaO55NGnXs/T7gdMuLFpZ1WuyZZ5Yrp8E779W0bW23md+rbdn6Tj+XWc/kuA8Xrybb+WxY8Xb4c9437O5xfS6nNpNVj1OmvOPLitF6WiN9pid4b3/bnpL/ANS/7GP+EHX9PkvmwVyZMGTBad98eSazaOvv5ZmPrXXG/wDbnpL/ANS/7GP+Fe0vwgdIcGWb5dRh1UTG3Jlw1iI9Pm7Tv7e9EdeHNNJ8Jutpz/HeG6fNvty+RvbHt47782/d4N7oPhF4JqNq6qNRo7cm9pvTnrzdW8RNd5n1zEdncCXCxpdZpdbinLo9Th1GOJ5ZtivF4ifDeO/rhfAAAAAAAAAAAAAAAAAAAAAAAAAAAAAAAAAAAAAAAAAAAAAAAAAAAAAAAAAAAAAAABZ1eqwaLS5NTq8tcWHHG9r27v8AXgDzrtdpeH6adRrdRjwYo/CvO287b7R4z1T1R1uecf6eazWWth4RFtJp5jbylojytuqd++Yr293X1b79zRdIOOarjuvnUameTHXeMWGJ3rjj758Z7/VtEatVesmS+XJbJlva97zNrWtO82me2Zl5AAABSa1t2wqAtWw/Rn3rcxMT1xsySYiY2mAYou3xd9fct9naCgALun1GfS565tNmyYctd+W+O01tHVt1TCT8H+EDjGhtWmtmuvwREV5cnm3jaJ7LRHXPZvMxO+3tRMB23gnSnhPG9qaTUcmef6jN5t+/sjsnqjfqmdo7dm5fPKX9HOnnEOHXjDxKcnENNO0edb+Up17zMTPzuqZ6pnw64NDq4wOD8Y0PGdJXUaDPW8bRN8czHPj336rR3T1T69urdnogAAAAAAAAAAAAAAAAAAAAAAAAAAAAAAAAAAAAAAAAAAAAAAAAAAAAAAAADzkyUxY7ZMt60pSJta1p2isR2zMgZMlMWO2TLetKUibWtadorEdszLmnT3pHh4pmx6DQ359Np7za+SNuXJfsjb0R19ffv6ImcXpT0uz8cr8W09LabRRO805t7Zevqm31dXj3z1bRpVAAAAAAAAAAHm9ItHX2+L0Ax7Vms7S8sm0RaNpWL1mkg8j1MdXNHZLyAADP4PxPUcL1sajS58mnybTXylIi3VPjWeq0eifCJ7ncdHOqnSY/j1cNdRt/KRhtM038Y3iJ9nd6e18/p30G6Z/FPJ8K4vl/3f5uDPaf+F4VtP0fCe71dgdLARAAAAAAAAAAAAAAAAAAAAAAAAAAAAAAAAAAAAAAAAAAAAAAAAAAAAAABzTp90ivrNbfhWky2jS4J5c0bbc+SJ649MR1e3eevqlLumPG54JwacmC9Y1eaeTDExE7eNtp8I9fXMbuQKoAAAAAAAAAAAAAATEWjaQBZiOW00t2S8WrNbbSyL15o9Pc8XrzUie+AWQAAAdW+D3pLfi2ktw/XZbZNbp45q3mvXfH1RvM99omdp8d47Z3lMHBuDcRy8J4vptfhje2G+816vOr2WjsnbeJmN+7d3TTZ8Wq02LUYLc+LLSL0ttMb1mN4nrRF0AAAAAAAAAAAAAAAAAAAAAAAAAAAAAAAAAAAAAAAAAAAAAAAAAAAAFnWammj0WfVZYtNMGO2S0V7ZiI3nb3A5d0+4nHEOkV8OK1pxaSPIxG87TeJ86dp7Ovq9PLCNLmoz5NTqcuoz25suW83vbaI3mZ3mepbVQAAGbwrheq4rqfI6Wm+3zrz82kemTelk2whOdT0K09eE2ppslr62POjJadotP0du6EIyUviyWx5KzW9Z2tWY2mJeccpl4XLG4+XkB6eQAAAAAAAAAFjJXlt6Hhfy13rv4LAAADqnwYcT+NcCyaC1draK/VMR1TW8zMd/bvzeHVs5Wk3wd634n0twUm2OtNTS2G03nbtjeNvTNq1j2g7AAiAAAAAAAAAAAAAAAAAAAAAAAAAAAAAAAAAAAAAAAAAAAAAAAAAACPdPNVGm6KamPK2x3zzXFTl387ed5jq8axb7EhQv4UNTSvCdHpZi3Pkzzkie7atZif24+sHNwFUBd0uny6vU49PgrzZMluWsCsvgvCc/F9bGDD5tI68mSY6qR+/wBDpnDtBp+G6Sum0tOWkds99p8Z9K1wXheHhPD6afFtNu3Jfb59vFnubPPqrpww6YIx0t6O/HqTrtFT/eax59I/rI/f9qTjzLZdx6slmq41MbTtKicdLOjXl+fiHDqfyvblxVj53pj0+jv+2DurHKZRy5Y3G6Bmzp/jWhtqsMb5MO0Z6R4d1/un09fewlQAEAAAAAAGNaOW0wyVrNHXEgtAAL+i1N9FrsGrxRWcmDJXJWLdkzWd439HUsAPoYazozkpl6McMtjvW8RpcdZms7xvFYiY9cTEx7GzRAAAAAAAAAAAAAAAAAAAAAAAAAAAAAAAAAAAAAAAAAAAAAAAAAABAfhU/wCV/wB7/gT5AfhU/wCV/wB7/gBAQFUTjoLwmMeC3E81fPyb1w791e+fb2f/AGiPDNHfiHEcGkp25LbTPhHfPu3dZw4qYMNMOKsVpSsVrEd0Qy5MtTTbix3dvYDB0AACJ9KOi8arn1vDaRGbtyYo7L+mPT9v2ywWWy7jzljMpquR6DV5eHa6uatd5rM1vjtHVaOyazDO41wzHixY+I8O3voM/XXxxW76yl3SLozh4pE6jTcuHV7dv4OT1/vRjhGsycF1mXhvF8E/FM3m5sd435fyo/y+5vMt94wuOu1aAbjpBwO/Cs0ZcM+V0eXrxZY6/ZP+utp2ku+8Z2a7UAEAAAAHnLG9J9D0TG8bAxRVQAAHZPg//oVoP7z/AMlkiRf4ONTTP0Qw4qRaJ0+S+O+/ZMzPP1eja0fWlCIAAAAAAAAAAAAAAAAAAAAAAAAAAAAAAAAAAAAAAAAAAAAAAAAAAID8Kn/K/wC9/wACfIP8KOmvbRaDVRNeTHkvjmO/e0RMfsT9QOdgKqYfB/oebLqNfePmx5Kk+ntn7vemzV9GdJ8T4Bpccxta1PKW9duv90extHLnd114TWIIpx/pfGj1F9Lw6lMmSk7Xy366xPfER3o5fpRxq9+b49aPRFKxH2LOO1LySOnCAaDptr8MxXW46amnfMRyW+rq+pK+F9IOHcT2rhzcmWf6rJ5tvZ4+xLhYszlbQB5exhcU4XpOK6fyWrx823zbx1Wr6pZoeEs2jmk0Go4dhvwziFfjvC8nVTLt14vRaO6PTHZ6O6K9IuAZuD5+em+TS3nzMnh6J9P2umreowYtTgvhz465Md42tW0dUvczsrxlhLNOOjf9JOjeXhV51Gn5sujme3vx+if3tA6JZZuOayy6oAqAAAAMe8bXn1vL3l+e8AAA7J8H/wDQrQf3n/kskSO/B/8A0K0H95/5LJEiAAAAAAAAAAAAAAAAAAAAAAAAAAAAAAAAAAAAAAAAAAAAAAAAAACKfCTgyZejNb4671w6il7zvHVG1q7++0e9K2m6Y6a+q6Ka/HjmsTXHGTzvCkxafqrIOOL+iwTqtdg08f1uStPfOyw3PRDD5bpJpd+ynNefZE7fXsW6m3qTd06ZWIrWK1jaIjaIVarj/HdNwPSxkzROTLfqx4qztNv3R6UNt0541mvM6fT4K1jujHa23rndzTG11ZZzHs0urw5NPq8uHNv5Sl5rbfx3Wm2y9JOJ5ss5M3DdFkvPba2k3mfas5ONazJHn8I0HrjSbT9To3XN2a9XsesufNk3mOHY8cz30pf96xtqfxN/0JXbykfCelnENBy481vjWCPwck+dHqt+/dNOE8d0HFaxGny8uXbrxX6rR+/2OUbar8Tf9CTn1OK0X5L0mJ3idpjZ4ywlaY8ljtQ5roOm3FtFFMerx01NI78kTW8x6/8AJPOD8V03F9DXVaW07b7WrPbSfCWOWNjfHOZeGcC1qM+LS6fJnz3imLHXmtae6Hl7e71rek0vWLVtG0xMbxMIH0r6N4uH1nW6O9KYbT52K1tpifyd+31KcQ6favJnmnC9Ljrj32rbLE2tb07RPV9aNa3XcQ12pnJq7ZMuWfpRPV6o7m2GNlc+eeNmnkeKxqN/OwX29FJXJiY+dExPhMbNmKgAAALOb50epbXc/wA6FoAF3TYMuq1OLT4K8+XLeKUrvEb2mdojrB27ozjpi6McMrjpWkTpcdpisbRvNYmZ9czMz7WzeceOmLFXFipWmOkRWtaxtFYjsiI7oekQAAAAAAAAAAAAAAAAAAAAAAAAAAAAAAAAAAAAAAAAAAAAAAAAAAWdZpqazRZ9Llm0Uz47Y7TXtiJjadvevAOBpP0Ax83Gs15/AwT75mP82v6Xab4p0q4hi5+fmyzk322+fHPt7Obb2MHg3HtVwbVZMumpiyReOW1ckT2b+iUy7x7xsl3W06WROv6c00eW08nNiwx6IttM/tS6JptPh0uCmDT4648dI2rWsbRDlteI24t0y0mutijFOTU4d6xO+201j7nV2OfaSNuPvbQBm2Bh8S4npOGYPK6zLFInqrWOu1p9ENPg6bcLyZopfHqMVZn59qxMR69pmVmNvh5uUnlJB4xZKZsdcmK9b0tG9bVneJh7R6YnFNBg4loMum1NK2ras7TMddZ7pj0oR8G2e8cU1WnifMvh55j0xaI/xS6Db5s+pzn4N/5+1H9mt+1V7x+NZZ/KOjor8Iue+PgGPHSdoy54i3piImdvfEe5KkR+En+Z9L/aP8Mph8o9Z/GsroLoMGn6P4dVXHXy+o5rXvt17bzER6upJGl6Hf0V0P5tv2pbpMvNXH4wYXE+F6Timn8lq8UW2+beOq1fVLNari3SHh/CbeTz3tfN2+TxxvMevugm99lutd0K430Y1vC5tlpE6jTR/WVjrrH5Ud3r7GjdJ4b0r4Zr80YJm+DJbqrGWIiLT4bxP2rXGeiWj182y6WY0ueevzY8y0+mO72NpnZ2yYXjl74udjP4nwfXcLvtq8MxXfaMleus+1gNZdsrNLWf50LS5m+dHqWxBveg+i+PdLdDSa5Jpiv5a00j5vJG8b+Ec0Vj2tE6D8FPD5nLreJ2i0RERp8c7xtO+1rdXbvG1PfPsDooCIAAAAAAAAAAAAAAAAAAAAAAAAAAAAAAAAAAAAAAAAAAAAAAAAAAKWtFazaeyI3VWdVO2nt17b9SW6iybunOulXRrWajid9doMflozzvekTETW3fPX3Sy+GdC9B8l1pxPBzam0za1qXmOT0Rt1SlQw67rTq9vHe3LM/D8PC+nWn0Wnte2PHqsPLN5iZ6+WfvdTc345/7l4/7Tp/so6QZ/pOPzRSZiI3nsgY3E7TXhWrtX50YLzHr5ZeGqLaHhNummu12ty6ycGLDbyeGsV5to7urf/W8ohqMVsGoyYbTEzjvNZmOydp2XNLrdXo+f4pqc2Dnja/k7zXmj07LDsk04rd1L+gXE7xmycNy2maWib4t+6e+Pv8AYmrmPRSbV6S6Oa9vNMezll05z8k1k6eK7xLfNn1ONcL0vENXqLY+GVy2yxTe0Y7cs8u8ffs7Jb5s+pzr4N/5+1H9mt+1Uwupa88k3ZGH8i9KfxOs/wD6/wCbC4poOMaTBS/E8eeuObbV8pfmjfb1uwIj8JP8z6X+0f4ZXHO26ecuOSbbTod/RXQ/m2/aluml6Hf0V0P5tv2pblnl5rbH4xh8Y10cN4Vn1e0TOOvmxPfaeqPrlEK9F8mt6L5eP5tdzZ7VtmmkxvExEzvvPj1fc3PTuZjgERXsnNWJ9W0oJXW6uujnR11OaNNad5xReeWZ9TbinbbHlvfTHdJ6H8TvxHg8VzW5s2CeS0z2zHdP+vBzdL/g8m0ZtdX8Ga0mfXvK8k/F547rJNMlKZKTTJSt6Wjaa2jeJR3ifQ3Qare+jmdJknujrpPs7vYkYwmVnh03GXy4/wAa4dn4XxGdJqZrN4rExNJ3iYlgJR03/phh/Mx/bKbcQ4DwviO86rR45vP9ZWOW3vjtb+5qTbn6N26chdV+DattJ0biM0bRqM1stZ8I2iv+Fr69AuGRqIvOfU2xxO/k5mOv0b7JRix0w4qYsVYpSkRWtY7IiO55y5PpceL7bkWtNMzp6TPqXWku5tjZq6AFQAAAAAAAAAAAAAAAAAAAAAAAAAAAAAAAAAAAAAAAAAAAAAAAAWNZXfBM79kxK+83rF6TW3ZKWbmlxurtqxW9Zpea27YUcrtc345/7l4/7Tp/so6O5t0pt8S6fU1WaJjHGTDl9dY2if2ZdHx5KZcdcmK0XpaN62rO8TD3n4jPj816eb0rkx2peN62iYmPQ9KM2rknENHk0GvzaXLE82O0xv4x3T7YY+zpnHeAabjFYva3ktRWNq5IjfePCY72gw9B885o8vrMUY9+uaVmZn3umck13c147vssdBdDbNxW2stH8ngrMRP5U9X2bp8xtBosHD9JTTaWnLjr75nxn0shjnl1XbfDHpmi3zZ9TnXwb/z9qP7NP7VU+12qxaLRZdTntFaY6zMzPf6EE+DfFaeL6rLEebXByzPpm0TH2SuPxrxn8o6GiPwk/wAzaX+0f4ZS5FPhGxWvwLDkrG8U1Ec3oiYmEw+UeuT41suh39FdD+bb9qW5R/oPqsWo6NYMVLxOTBNqZK98edMx9UpAmXmrh8Y1nSPQ24hwTUYMcb5NuekeMx17e3s9rl23i7GjXG+iWHXai2p0eSNPlvO96zG9bT4+h7485O1eOTC5d4gOyf8AQXQ203C8mpyV2tqbRNfzY7PrmWJw7oVGPNGTiGorkpWd/J44na3rmUurWtKRWkRWtY2iIjqiF5M5ZqJx4WXdehRVi2c46b/0ww/mY/tl0dzXpPlpxHprjx6W0ZNrY8W9euJtv1/a6U0z8Rlh5qoPeHFbLfavZ3z4PEm2luu9Z2miY09In1rqkRFaxEdkdUKuqTUcVu7sAVAAAAAAAAAAAAAAAAAAAAAAAAAAAAAAAAAAAAAAAAAAAAAAAAAAFvLhpljzo6/GO1i30d6xM1tExEe2WcPNxle8c7j4Q/pL0ew8d01fP8lqcf8Aw8m2/sn0IhXo10q0e+LSZMkY4/E6rlrPs3h03U08nmmO6euFphMrj2dFwxy7uc/I3TL8bq/12P4lfkfpj+N1f67H8Toikr109qfbnnyP0w/G6r9cj+JX5H6X/jdX+uR/E6DKh11fan2598j9MPxuq/XI/iPkfpj+N1f65H8ToKp109qfbnf+y3STX3rTXZbRSJ+dn1HPEeqImU24FwfT8F0EafBM3taebJkmOu8/u9DYCXK1ccJj3VWdZpcOt0eXS6mnPiy12tC8S8PTnmp6G8Z0Gqm/Cc/lKT821Mnk7xHhPZ9rx8jdMvxur/XY/idGUae5WftRzv5H6Y/jdX+uR/EfI/TD8bqv1yP4nQ1JOur7U+3Pvkfpf+N1f65H8SnyP0w/G6r9cj+J0EOuntT7c++R+mPdl1f65H8TzbgXS/LHJkyaiaz2xbWRMftOiqnXU9qfaL9F+iUcKzxrddeuXUxHmVr82np9MpVWJtaKx2z1Qov6PHzZubur1vPfKvXbDHsu49HEbTktv6IZNa1pXasREeh6HRMZPDkyyuXkAenkAAAAAAAAAAAAAAAAAAAAAAAAAAAAAAAAAAAAAAAAAAAAAAAAAAAAABj6zHz4eaO2vX7GA27W6nFOPJM/gzO8dTHkx/bo4cv8VlRVSWLoeZFVBRWFFQVelFVQJCUQUlVQV5lSXpQV5VAFYelFVRVsdLj8nijePOt1yxtHhm1vKWjzY7PTLPbceP7c3Ln/AIwAasAAAAAAAAAAAAAAAAAAAAAAAAAAAAAAAAAAAAAAAAAAAAAAAAAAAAAAAABbzY4y45rPsXA8rLpqb0mlpraNpeZbLU4Iy13jqtHY11omszFo2mHNlj0114Z9UeVHo2eWigqICoxJzZN/nfUulxxuTLGJ5bJ9L6jy2T6X1Gnr26y1GNTLeb1ibdUz4MoecsbipKipsiPKquwoov6fBOa3hWO2TT4JzW8Kx2y2NaxWsVrG0Q0ww33rHk5NdoVrFKxWsbRCoN3KAAAAAAAAAAAAAAAAAAAAAAAAAAAAAAAAAAAAAAAAAAAAAAAAAAAAAAAAAAAALOfBXLG/ZbxXhLN+Vls7xqsmK+OdrR7XltbVraNrREx6Wq1Fq4tRbHNZrEdjDPHp7urjz6+wKRMTG8TuqzaDzyU+hX3PQG1PJ0+hX3Hk6fQr7noU3XmKUjsrET6lQQAnbtUx2rfNTHG880xE7ArETadqxMz4Qy8Oj/CzfosqmOmONqViHpvjxyeXNly2+FIiIjaI2iFQasQAAAAAAAAAAFAVAAAAAAAAAAAAAAAAAAAAAAAAAAAAAAAAAAAAAAAAAAAAAAAABa1Oow6TT2z6jJXHjpG82tPYC5MxEbz1QivSDpvo+HWtg0MRqtRG8TNZ8ys77dc+PajfSbppn4jM6fhs3wabeYm3Za/7vH/6RJVSng/SriObpLp9RrdRa2O0zS2OvVXafR64dMzYceqxRv17xvW0OG4ck4s1Mle2lotHsdi6N62NToIxTbe2Lbb01nsSyU3ZdxZz4MumybW9lo7JUrmtHzo3bvJjplpNLxvEtTq9HfTzzR52Px8PW5c+O4954dnHyzPtfKlctJ79vW99rEImY7J2Z9TXpZijF57/AEp96kzM9szK9SdLJtlpHfv6lu2eZ+bGy0y9JobZdr5N60+uSbyuoXpxm6s4cOXU32rvPjM9kNlXHh0GmvltPza72tPbLJx0rjpFaVisR3QjXTHifkNLfDS3/Drz39fdH+vQ6cOOY9/25OTlufaeEXv024lpOP6jNS0Z9Na0VnBeZ5YiJ/Bnuntjf3xO0Og8J4touL6WufQ5q3jaJtTeOfHvv1Wju7J9e3Vu4lM7zvLL4VxPVcJ19NZosnJkr1TE9dbx31mO+P8AXa1ZO4DTdHekui4/jtGDmxajHETkw3mN49MT3xv1b++I3huUQAAAAAAAAABQmYiOtUBSJ3jeFQAAAAAAAAAAAAAAAAAAAAAAAAAAAAAAAAAAAAAAAAAAAAABSZ2jeQWtXqsOj019RqLxTHSN5mXKelPSXPxvUTjxzNNJSfNp9L0z/r/K50x6R5OL622n099tFinasVn58+Mo2qgACedFOIeQxaXPM+by+Tv6uz7t0DSXozl5tHkx99L7+yY/ykHVo643gmImJiY3ie5reAav4zoIx2ne+HzZ9Xd/r0NmiNXrNBNN8mGN699fBgpEwdZoYyb5MMRF++vdLnz4v3i6uPm/WTVq0pbJaK0rNpnuhc0eH45a3kr1mtZ2taJ32nw9bcYNPjwV2pHX3zPbLxhx3Ly0z5scfHdj6XQVx7Xy7Wv4d0M0HTjjMZqOPLK5XdWNbqa6TSXz3/BjqjxnuhzPpTqrW0k89t75sm9vT3/bslnSLW+X1Maak+Zi7fTb/L96B9JsvNq8WLupTf2zP+T08tMAqr2k1WfRarHqdJltizY53revd/rwdi6P8c0vHdBGo008mSu0ZcMzvbHP3x4T3+veI4u2HAuK5uC8Vxa3BHPy7xfHNpiL1ntidvf64iQdsGLwzX4OKcOw63SzacWWN45o2mNp2mJ9UxMMpEAAAAAAAAAAAAAAAAAAAAAAAAAAAAAAAAAAAAAAAAAAAAAAAAAAAAAAAAEK+EDpF8VwTwnR3pbLmrMaie2aVmOzw3mJ9keuJSjjPEcfCuE6jXZY3jFXeK/St2RHZO287Q4vrtXm1+tzavUW5smW82t1z1eiN+6OyAWAFUAAbnozk5dZlx/Tpv7p/wA2mZ3Bcnk+K4Z7rTNffAJ7wbV/FOIUtadsd/Nv6vFMUASnh3FcPyTGXU5NrY/MtHfae7ZEbPLlx4MVsua9aY6Rva1p2iIQDpL0tya3n0nDbWx6bstk7LZP3QvdI9TqOM15aZJxY6TvXFv1W9fpRLJjvivNMlZraO6W/Fjje75frublx/GTU+2Twzier4Xqoz6PJNLfhVnrraPCYdH4B0i0nGccUiYw6qI87FM9vpr4w5Y2nBtJectdVM2pFJ3ptO0zPi05ccdbrl9Fy8szmGPeOsMPiusjRaK2SJ8+fNpHpa/hXHK5NsOtmK37Iyd0+vwa3jmt+N62a0nfFi82vp8Zcj7zXzMzMzM7zPbKHcZyeU4rnnuieX3RsmCC57+Vz5Mk/h2m3vlYseAAAASvoBxy3D+Kxw/NO+m1l4rG8z5mTsiYj09UT7OvqdRcDdd6FcY+V+BY/K35tTp/5LLvO8zt823bM9cd89sxYG/ARAAAAAUVAAAAAAAAAAAAAAAAAAAAAAAAAAAAAAAAAAAAAAAAAAAAAAABicV1tOG8L1OtvyzGHHNoi1uXmnujf0ztHtBAvhJ4t5fXY+F4p8zT+fl9N5jqjs7onun8L0IWuZ82TUajJnzW5smS03vbbbeZneZW1UAAAAXNPfyWpxZPoXi3ulbAT0WtLfymkw3+lSs/Uuog0vHbb6nHXwpv9bdI9xa3NxC/5O0fU14Z+Tg/kMtcOvusNJOG359Binwjb3dSNt5wO++lvT6Nvta80/Fw/wAflrl19xsQHK+6s6y/k9Fmv9HHafqQhMONX5OE558YiPfMQh6xYAAAAN30N4nXhfSTT5cuTkwZd8OWerba3ZvM9kRblmZ8IaQB3wR7oPxaeKcApGfNbLqtPM48s3mOae+s+PZ1bz2zEpCiKd6oAAAAAAAAAAAAAAAAAAAAAAAAAAAAAAAAAAAAAAAAAAAAAAAAAAAIb8JmvnBwnBoaTaJ1OTmt1RtNa9e3vmvuTJyj4QtV8Y6VZMfLy/F8dMW++/N1c2/o+d9QI0AqqxtNoiZ2jvlXJSceS1LdtZ2eV7UedGPJ9Kkb+uOr7gWQAAATDg1+fhOCfCu3umYZrWdHbc3C4j6N5j7/AL2zRBGNXbn1eW3jeftSa9uSlrT3RuikzvO8ujgnmvlfyWXbHFRs+BX21GSn0q7+7/7axl8LvycQxeEzy+9rnN418/02XTzY3/aRAOJ+lavpHbl4Zt9K8R9s/ciyR9J7baXDXxvv7o/zRxVAAFzJj8nFN567V5tvDwecdJyZK0r22mIh71V4vqb2r83favqjqj6gWgATH4MtVOLjmo005a1pnwb8k7efesxtt39UTbq/c6W4nwDW/J3HdFq5yeTpjy18pbl32pPVbq/NmXbEQAAAAAAAAAAAAAAAAAAAAAAAAAAAAAAAAAAAAAAAAAAAAAAAAABSJ6+xUAUmdomZ7nC9fqfjnENRqpryeXy2ycu++28zO2/tdo4zmyafgutz4bcuTHp72pO2+0xWdpcRntWLFAAF6fO0cfkZJj3x/ksr2Pr0uaPCaz9sfeCyAAACSdGLb6PLXwyb/VH7m5aLotP8nqI8JrP2t6iMfX25NDmn8mY9/UjTf8Zty6CY+laI+/7mgdXDPxfD/kct8sn+h7xX8nlpePwbRLwNnz5dXaWxO8bwLGiv5TRYrfkxEr7gs1dP1WOXVjL9tB0pt16av50/Y0LddJ5/3rDXwpv9bSj2AAv6Pq1HP9Ctr+2ImY+tYX9N1Y9RbwxfbaI+9YAAAdl6I6n430V4fl5OTlxRj233+ZPJv7eXf2uNOq/B3qfL9FaYuTl+L5b4999+beeff0fO29hSpOAiAAAAAAAAAAAAAAAAAAAAAAAAAAAAAAAAAAAAAAAAAAAAAAAAAANP0nyZfkbUYMERz5acu/ontj3bw5tj4BeZ3zZ4r6Kxv9bo/SC38lsitu18j1nq+Xjz6cKxzzsuo0mTo/Xl/k9RPN+VXqajVabLpc0481dp7p7pj0Ji13HcFcvD5ybedjmJifR2Sz9L67kvJMeS7lMOS71UZXsP/Az/AJsftQsr2Pq02afHlj69/ufcbrIAAAN90W7dT/8Ar97ftB0W+dqZ9Ffvb9Earj1tseKnjMz/AK97Ttlxy2+qpX6NPva12cc1jH531mXVz5ADRyN9wW/NoeX6Fpj72e1HAr+flx+MRaG3cXJNZV+j9Jl1cOKM9JZ34jSPDFH2y1DadIp34pPopDVvLrAAX8H/AKfUfmx+1Cwv6frw6iP/AMe//wAqrAAADoXwW58ltNxHTzb+SpfHetdo6ptFomf/AIx7nPU++Cv/AJp/df4wT4BEAAAAAAAAAAAAAAAAAAAAAAAAAAAAAAAAAAAAAAAAAAAAAAAAAAR3pBad9kcntB+c9b/bXNn5GHxiduF59vCPtgHPwf24/wDY84+Yii5FpjBNe6bRM+yJ/eD9Y7FsAAAEk6IY63rqpnfqmnZ7Ui+L08bArxfLVa/h2HLq7WtfJvtHZMeHqY/yTp/p5PfH7gdOPiPh8uMvJl/0+SdP9PJ74/cfJOn+nk98fuB62z6Z9Mnh3D8WHU81L5N5rMdcx+5tPi9PGwMOTy+p6Ttx9kO6S1inGL1js5a/Y1QMnfPAAC5hvNbW2266WifctgAAAnnwXV5vlPrmP+F2Tt9MATvk/Kv+lJyflX/SkEQ5Pyr/AKUnJ+Vf9KQA5Pyr/pScn5V/0pADk/Kv+lJyflX/AEpADk/Kv+lK5EbR3+0AVAAAAAAAAAAAAAAAB//Z;" vertex="1" parent="1">
          <mxGeometry x="150" y="112" width="109.47" height="80" as="geometry" />
        </mxCell>
        <mxCell id="eVdIeHZePJZGgRpQu2_--6" value="PM" style="text;html=1;resizable=0;autosize=1;align=center;verticalAlign=middle;points=[];fillColor=none;strokeColor=none;rounded=0;" vertex="1" parent="1">
          <mxGeometry x="224.73999999999998" y="122" width="30" height="20" as="geometry" />
        </mxCell>
        <mxCell id="eVdIeHZePJZGgRpQu2_--7" value="" style="shape=image;imageAspect=0;aspect=fixed;verticalLabelPosition=bottom;verticalAlign=top;strokeWidth=2;fillColor=#66B2FF;gradientColor=none;image=data:image/jpeg,/9j/4AAQSkZJRgABAQEASABIAAD/2wBDAAgGBgcGBQgHBwcJCQgKDBQNDAsLDBkSEw8UHRofHh0aHBwgJC4nICIsIxwcKDcpLDAxNDQ0Hyc5PTgyPC4zNDL/2wBDAQkJCQwLDBgNDRgyIRwhMjIyMjIyMjIyMjIyMjIyMjIyMjIyMjIyMjIyMjIyMjIyMjIyMjIyMjIyMjIyMjIyMjL/wAARCAH0AfQDASIAAhEBAxEB/8QAHAABAAICAwEAAAAAAAAAAAAAAAYHBQgBAwQC/8QAXxAAAQMCAgMJCgoGBgULAwUAAQACAwQFBhEHEiETFhcxQVFVkZMUImFxgZKUodHSFTJCUlNUVrHB4RgjYnKipAgkM0NjgjRzssLwJSY1N0VGZHSDhOJEdaM2lbPD8f/EABkBAQADAQEAAAAAAAAAAAAAAAABAgMEBf/EADERAQACAgAFBAAFAgcBAQAAAAABAgMRBBITITEUQVFSIjJhkaEFIxUWQlNicYEkM//aAAwDAQACEQMRAD8AudERdjkEREBERAREQERQrGmkajwbcaWhloZquWVglfubwwMZmQNp4ySDs8CiZ0mITVF5bdcKa622muFHJulPURiRjhzHn5ubxgr1cvOmyRF4KS92uvrZ6OkuNLPVQf2kUUoc5vjXvTaBERARETYIiICIiAiIgIiIbERFIIiICIiAiIgIiICIiAiIgIiICIiAiIgIiICIiAiIgIiICIiAiIgIiICIiAiIgIiICIiAiIgKG4i0lWPDV9baqxtU+UNa6V8LA5sQPFnt2+RTJVFplwiaiFuJqOPOSFojrGjlZ8l/kOw+DLmVLzqNwtSIme6zbRe7ZfaTum110NVFltMbsyPGOMHxhUjpuP8Az2pOcUDNv+d6gFvq66hqhVUE88FQzbukDi13q5F6r/iO44lqoay5yslqIoBCHtYG64BJBOWzPaVlN9w2rj5Z2sfQzi3cKl+GquQCKcmSjLvkvy75nlAzHhBWV0n6RxQCWwWSY92katTUsO2EH5DSPlc55PGqirqKa0zUdXTyPY2RjJYpGnIseBmcjzjjC91gsbrjJ3bWAmn1iQHccjs9vk5TzqOadaTNI3t4bPc6/Dl3o7tSgxzMO6MLhkHtz74HnB2g+PNbQWO+Ud+sdPdqR/8AV5WaxDv7sj4wPiVIXy0tuVv1IwBPEM4j/u+JQqmq7q6jks9NNU9zySa8lKxx1XOGzvh/wEi0wXpFmwVy0r4TttW+mNZNVPZscaWEyMB5tbMA+RYuTTbhtpIZS3KTm/Vtbn1uVV0WDi+PWrZzG7kZEAdXxk8q97cHW9vHLUu/zAfgp55R0qrIptNeGZT+vp7jT+Ewh49RWZpdJ+DqogC9RRu+bMxzPvCpyTBtC7+znnYeTMhy8kuCpP7qvB8D4/YnPKOnX2bE0mIbJXZGlu9BN+5UM9q9U9xoaZmtPW00Ted8zR+K1flwhXtPe9zSZczsvvC6xhS6yOGvDE0875AVPUk6UfLYqqx5hSjz3bEFBmOMRybof4c1hqrTBhCmOTKqqqD/AINM7LrOSpmLBlUcteqhYP2Wly9seC4Ac5ayVx/YaAo55Ixwn9VpztTMxS2eulPIZJGMB6s1harTncnZikslJFzGWZ78uoBYWPCVrZ8ds0h/aky+5euKw2qHItoYSf2gXfeo55TFKw5i02YkbUa0lPbZY/o9yc31g5qR27TnQvyFys1RCTxvppWyDqORWCfbKCRmo+jpy3m3MLGz4Utk21jJIT+w/Z1FOeU8lfhbVv0n4RuGQbd2wPPyaphi9Z2etSikraSvjElHVQ1LDtzhkD/uWtU+C3gf1esa4fNkZl6wsecP3mhfukDHBw2h9PLkfUc1aMk6V6cNreLj2ItY6XHONLKQ34VrQ1vyKpm6N/iB9RUmt2nC8xACvtlHVtHG6LWid+I9Sv1IU6cr2RVpbtNmHanJtbSV1G7n1RK0eVpz9Slluxvhi65CjvlG55+Q+Tc3dTslPPCs1tHsz6L5Y9sjdZhDmnic05g+I8q+s81dUREQEREBERAREQEREBERAREQEREBERAREQEREBERAREQEREBERAREQEREBERAXXPBFU08kM8bZIpGFr2O4nAjIhdi655WwU8kz/iRsc93iAzP3KJ8J/Rq7ie170caVVFRzCRtNIHREHaGuGYa7wgbD5FIZbFbq8RzzUu5yOAc7czq55jaDkoxDLJiTF0lZUEudUzuqJPFnnl1ZBT7w865vd0+0OmSlp5oWwyQxviblkxzcwMuZdrWtY0NaAABkABkuUTQL5axjXFzWNDjxkDInx86+kQMgiIpBERAyTIcyIgIiICIiGhERQaEyGaIpHDgHDJwBHMeJeGosttqczJRxa3O0ap9S96KNCOz4PoX5mGaaInkJDx61i6jBtY0ExTQzN5nZtPsU2RNG0Cs9wu2HsQ08dPWT08kdRG17GSnVcC4ZggbCMitqztcfGVqhdpWwYslld8WOojechyAtP4LZOyYysGI/8Ao24xSSu27i86kg8GqePyZrTHPyzyx7wziLjPjXK1YiIikEREBERAREQEREBERAREQEREBERAREQEREBERAREQEREBERAREQEREBR/HFYbfge91LTk5tI9rT4XDVH3qQKN4+pzVYCvkeX/wBI9/m5H8FW3havmFAYNhzuE8mWyOLIHwkqa8ihmDJP69VMPE6IOHjBUz4lzw6ZERFKBERAREQEREBERAREQEREBERAREQEREBERQMXcrBRXJ5lkDo5yMjIw5E+McqjFZhWvpHbrTOE7W7QWd69vk9imFxr47ZQvqpGlwBADQeMlRGqxZcJzq07WU4PFqjWd1lR4Sytl0l4qw69sEs7qyFmzca0EkAczvjDrKtHDelyx3uaGkq45LfWSuDGh514nOOwAPHEfGFUlvwRi3EzxMy31DmO2moqzubcv823qCsDDehY0ddT1t5ubZHQvbIKamb3pIOYDnnk8QV6zZnflW4iBFvDAREUgiIgIiICIiAiIgIiICIiAiIgIiICIiAiIgIiICIiAiIgIiICIiAvDe4O6rFcaf6Wllb1sK9y4cwSNLHcThqny7FE+Ex2lqtg9xbeWtPy4XA+PYVPONQCztNJixsLthbNJGR5XBT/AJSub3dXtsREUoEREBERAREQEREBERAREQEREBERAREQERfL3tY3Wc5rW85OQQfFTTxVVO+GZgdG8ZEFQWrpK7C92gq6WZzDG/XgnAB2jkI5/Byqf7CMxtHONq6amlhrKd8E7Ndjxtby+DyqsixMCY8pcY0OrJqwXWFo3eDP437bOceDkUwWqEwq8LX2OegrC2aF2vFKw7R4HD8OVbCYDxlFjGzOndFuNbTkMqYhtbnyOb4D6uJa47b7Mb01O0rREWrMREUgiIgIiICIiAiIgIiICIiAiIgIiICIiAiIgIiICIiAiIgIiICIiAnKPGicQUEtW7uzuDSNXM4hHc35eIvOXqKm2WWzm2LDaXLJLaMaOuEYIhuAE7XZfFkGQcOvI+Ve211wuFthqB8ZwyeOZw41zT5dUTuIexERSCIiAiIgIiICIiAiIgIiICIiAiJyIHWumWrpoBnLURM/eeAobi2rmbddwEr2xMiadVriBmeP8FIbboXxbcWRyvioqaORoc100+scjt4mglV2nTu+H7UZREK2IvcchlmVicZ6xpKRwcdz1yCAePYCFnrxoPv9rsz6ynrae4Tx7X0sDCHFvLqk8Z8CryS4VLreLfMC5kUgLNYZOYRmMvF4PAmyHzQNr6iqZT28VElQ/PVihJ1nZcewca98k+Ii4UMjbgJHnVETonB58HFmsloy2aSLHl9M7/8AjctmhyHPblsJV6V2pe/LKgcPaHb3cyye7yNtkB2lrhrzHyZ5Dyq48MYUtmE6B9JbYnjdHB80srtZ8jgMtp/4AWbDf+ONcrSKRDKbTYREWigiIgIiICIiAiIgIiICIiAiIgIiICIiAiIgIiICIiAiIgIiICIiAiIgIiIIdpNsDb9gqq1Q3uiiBqoSedoOsPK3PqVIYNq3tqZqPaWObug8GWw+orYjFkm44PvMmeWrRSn+Fa5YNb/ypKfmwEesLny9pbY57JuiIoaCIiAiIgIiICIiAiIgIiICIiAiIeJRIr/Fe2+zeCNo9S29oY9yoKdmeerEwdQC1CxGN0xHM0cuo31D2rcKIasMY/ZAVVpHkZLXnS/Pgysr3S2qcvvodlUdysBhfzl7uLW8Lc/CpZpuvN9obfRW+3MnjoqxrxUzwg5k7AI8xxA5k+HiUewNoWkuUENxxKZaanfk6OhZ3sjhyF5+QP2Rt8KIVZarrVWO6QXKhe1lTA4ujc5ocASCOLxFSoaVMaDvjchq5fVW6v3LpwBFGNKduh1AY21crQ1wBGQDwOPxLZIQxagAijyy4tQZfcta1mfDO9oie8KDoNNmI4HgVUFvrGco3Pc3dbT+CnVi0yWC5lsVxZLbJjs1pDrxZ/vDi8oCl1xwpYbswtrrPRzZ/K3INcPERkVXmI9CdLMx8+Hax1PLlspqpxcw+J/GPLn41OrQrE0la8E0VRC2WCRksThm17HAgjnzC7FDdG2F7jhTD01Hc5mOlln3VsUbi5kQ1QMgcuM5Z7FMlpWZnyzntIiIrIEREBERAREQEREBERAREQEREBERAREQEREBERAREQEREBERAREQERFAjmPpNywBfnc9G9vXkFQWDW/12rI5IgPWr00mP3PR1ejnxxNb1vAVHYMaTNWO/ZaPWscnlti/LKXoiKrQREQEREBERAREQERY69XNtstr5s/1ju9YM/lfkoHTW4jt9DUOglfI6RnxhG3PI+PlXkOMaAfFhqT4wAvrRxgJ+ObpUvrJZoaCnGc00exzpHcTRny5ZknxK1YdA+FWf2lRc5PHO0fc1QnUKjONKfMAUUxBPHrhSCkq4a2mZUQP1mP4vBzg+FTW+aDrDJZaiOzbvBcANaGSaYvaXD5JHMfVxqlLdXVeG7pPR1sL4wx5jqIXjIscDlmieyeovmORksbZI3BzHDNrhyhfSmVUBu3f4vc08tRG3/ZW4TRkMitQKgGTHMbQM9aviH8bAr1vOmzDFrq56WCKtrpYXuYTCwNYXA5HJziM/GAVVKynNa7Yctm1MgOLnVH1f9IFx/0TDuR55qn8GtWIn0+Ygftitdti27NYvd+IQR3AP/W1Qf8AnZv/AOxbJjiHiWpFsv1TaL9HeKV8Iqo5XSsDwHN1nZ57M+LapeNM2LPpLf6OPataWiI7s70m09mxHIirTRnpAueLLhW0N0ip9eGISslgaWbM8i0jM9astaRO/DG1eUREV0bERENiIiGxERDYiIhsREQ2IiIbERENiIiGxERDYiIhsREQ2IiIbERENiIiAiIgIiICIigQrSy/V0cXIE5a7om/xj2KnMFjvK13O9g9RV46Q7UbxgO60zATI2Ldo8vnMOt9wKoXB1XlVz0xOQlaJG+MfkVjk8t8X5ZTNERVXEREBERAREQEREA8X4qBXWpqMQ36KkomOl1niGmjA+MTsz8p2+JSLFFdJR2rVjzD53bnrcw5VKtBmEWTTTYnqmhwhc6npGnbk7Lv39WweVVlK1sGYZgwnhqltcOTnsGvPIB/aSn4zuv1AKQEoAANgUO0n4knwvgmqq6SXcqyZzYIH7O9c47SM+UAE+RQJhnmqj004Oo6yyy4ng1Ya6jDRMQNk0ZIAz8Iz2HmzXdoTvd+vNturrtWTVdPFMxsMk7tZwcRm4Z820bDzqTaVGjgyvvOKcHqc1BQeDamR9PUwOeXRxEFgPJmpQohgs/rq1vO1n3lS8cQUxCEBkqW0uNG1LhrNhrWylvPqODsvLkvbg7DhxzjTuLWFNBKZKid0Y+JHnmQ0Hi2kALDXLN99qw0Zu3d/wCKsjQGWDF9xa7V1nUXe+R4zULLNoNEGC6NgztPdLh8qplc89WeSzNPgPClL/ZYetrf/btP3qRIiGMbh2ysADLRQNy5qZnsWBxzabZT4FvksdvpGPbRSkObA0EHLjByUnuFfTWygqK2smbDTwMMkkjuJrRxlV9e8b2XF2jfE77TUve6no3iSOSMscMxsOR4wdqCmtHuLqPBt3qq2sp552TU+5NbCW5g6wO3MqxuHOx9E3Lrj95QjRVg+14wvFxprqJzFT07ZGbjKYzmXZbcvArX4DcHc1y9LPsVovMR2VmkTO5R/hzsfRNy64/eThzsfRNy64/eUg4DcHc1y9LPsTgNwdzXL0s+xT1LI6dUf4c7H0TcuuP3k4c7H0TcuuP3lIOA3B3NcvSz7E4DcHc1y9LPsTqWOnVH+HOx9E3Lrj95OHOx9E3Lrj95SDgNwdzXL0s+xOA3B3NcvSz7E6ljp1R/hzsfRNy64/eThzsfRNy64/eUg4DcHc1y9LPsTgNwdzXL0s+xOpY6dUf4c7H0TcuuP3k4c7H0TcuuP3lIOA3B3NcvSz7E4DcHc1y9LPsTqWOnVH+HOx9E3Lrj95OHOx9E3Lrj95SDgNwdzXL0s+xOA3B3NcvSz7E6ljp1R/hzsfRNy64/eThzsfRNy64/eUg4DcHc1y9LPsTgNwdzXL0s+xOpY6dUf4c7H0TcuuP3k4c7H0TcuuP3lIOA3B3NcvSz7E4DcHc1y9LPsTqWOnVH+HOx9E3Lrj95OHOx9E3Lrj95SDgNwdzXL0s+xOA3B3NcvSz7E6ljp1R/hzsfRNy64/eThzsfRNy64/eUg4DcHc1y9LPsTgNwdzXL0s+xOpY6dUf4c7H0TcuuP3k4c7H0TcuuP3lIOA3B3NcvSz7E4DcHc1y9LPsTqWOnVH+HOx9E3Lrj95OHOx9E3Lrj95SDgNwdzXL0s+xOA3B3NcvSz7E6ljp1R/hzsfRNy64/eThzsfRNy64/eUg4DcHc1y9LPsTgNwdzXL0s+xOpY6dUf4c7H0TcuuP3kUg4DcHc1y9LPsROpY6dUyREXS5xERAREQERFCXy9jZGFjxm1wLSDyg8fqWrFVTOw1jeekfsFLVujPhYTs9RW1KoLTVaRR4up7g1pEddTjM872d6fVqlZ5I7L4p76e/lKLxWmp7stVNOTm5zAHeMbD9y9qyhtIiIpBERAREQERORBHsYNztUThxtmHrB/wCPIrT0DTB+CaqLljr3/wATWlVlipmtYZTlta9h9f5qd/0fZgbTe4M9ramN+XjZl+CpKVyniVOf0gZHCzWWIE6r6qQkchyZs+9XGqq072uSswfS10bSe4aoOflyNeC0k+DPJB7tCUTI9HUEjRtlqZnuPOdbL7gs3pLaJdHF+Z/4Rx6iCoToMxHSusFTYZpWR1NNK6eNriBrRu2uI58jnnzKvMVY3vuJcT3KK319U63ymSGKljd3joWg5kt5cw0uz8SDG4MdlWVY/wANp9ZUyVaWu7S2uR8sDYnmRmr3xzAHHyFZM4zrs8xFSAeX2qdjmxUjblpCpKN3xaiuMRPMHawWb0R1ps+kyjppu93YS0bweR2WwdbQsdo6D63SXZXtAe81e6uDduQAJJ8S9WNoXYW0tVlRECxsVbHWx5cziHn16yhLagcS5XTBUR1EEc0bg6OVoexw4iCMwfWu7NEMTiW1C94auVtI21NO9g/ey2evJao2K6yWumvtI8OyrbdJTSD5rg4ZZ82RBHlW4buLLnVT6Y6G02fBtZUU1BSQVtzqYopZWRhr5AHa5zI4/i7UFUYC0gU+Aa6uqai3y1hq4mxtEcgZq6rieXxqefpI2/7OVPpTfYq8wle7NaYKoXO2OrZZXNLHbi2TVABzHfeNSPflhL7N/wApEta0iY8sr5LROortIP0krf8AZyp9Kb7E/SSt/wBnKr0pvsUf35YT+zZ9EiTflhP7Nn0SJT0q/KvVv9JSD9JK3/Zyq9Kb7E/SSt/2cqvSm+xR/flhP7Nn0SJN+WE/s2fRIk6Vfk6t/pKQfpJW/wCzlV6U32J+klb/ALOVPpTfYo/vywn9mz6JEm/LCf2bPokSdKvydW/0lIP0krf9nKn0pvsT9JK3/Zyq9Kb7FH9+WE/s2fRIk35YT+zZ9EiTpV+Tq3+kpB+klb/s5VelN9ifpJW/7OVXpTfYo/vywn9mz6JEm/LCf2bPokSdKvydW/0lIP0krf8AZyq9Kb7E/SSt/wBnKr0pvsUf35YT+zZ9EiTflhP7Nn0SJOlX5Orf6SkH6SVv+zlT6U32J+klb/s5VelN9ij+/LCf2bPokSb8sJ/Zs+iRJ0q/J1b/AElIP0krf9nKr0pvsT9JK3/Zyq9Kb7FH9+WE/s2fRIk35YT+zZ9EiTpV+Tq3+kpB+klb/s5VelN9ifpJW/7OVXpTfYo/vywn9mz6JEm/LCf2bPokSdKvydW/0lIP0krf9nKn0pvsT9JK3/Zyq9Kb7FH9+WE/s2fRIk35YT+zZ9EiTpV+Tq3+kpB+klb/ALOVXpTfYn6SVv8As5VelN9ij+/LCf2bPokSb8sJ/Zs+iRJ0q/J1b/SUg/SSt/2cqvSm+xP0krf9nKr0pvsUf35YT+zZ9EiTflhP7Nn0SJOlX5Orf6SkH6SVv+zlT6U32J+klb/s5U+lN9ij+/LCf2bPokSb8sJ/Zs+iRJ0q/J1b/SUg/SSt/wBnKr0pvsRR/flhP7Nn0SJE6Vfk6t/pK/ERFszEREBERAREQFXWma1GuwY2tY3N9BO2QkD5Du9d+CsVY3EFHHcMO3KjmbrRy0sjSP8AKSPWAq2jcJrOrba+4NqtekqKYnbG/WAPMfzCkygeD5XMvIZn/aQu1vDltU8XPEOqRERSgREQEREBERBjMQs17DWc4YD1EKQ/0fZsq6+wZ7HRQyAeIvB+8LD3OIz2uqiaCXOhcABy7Fj9EmKKPC+LXfCLjFT1sIp3SnijdrZtLvBns8GapKWxWJblUWbDNyuVNAJ56WnfKyM8TiBy5ciqDCulqmv1PX2nHD6ZlLURkNlERawtPG12WeXOCrwIbIzIkOB8oP5KpMRaCrfX1r6qy3B1vDyXOp3xbpGCePV2ggeDagpjE1vtNtvMkNlvEdzoztZIwOBaPmuJG0+LjVn6DcHvkqZsTVcWUTWOgow4fHJ2PePBl3vWsnY9AtFTVTJr1dH1sbTnuEMe5Nd4Cc8+pW7S0kNHBFT08TYoYmhrI2DJrQBkAAgw5wPhcvc82C2lzjmf6u3jXa3B+G2fFsFs9FZ7Fm0QY+kslrt8hkorbR0smWRfDA1hy8YCrrSxo5qcUGG72hrXXGBm5SQuIbuzOMZH5wzy28YKtVcauaDVKixZjnBOVD3TXUkcfeimrIdZjfFrDYPEclmGadcWNZk4WtxHKYCD/tLZKSCKaMxyxtkYeNrxmOorHuw5ZHOzdZ7eTnxmlZ7EGvM+m3GUzS1ktDDns7ylz+8lYK5XnF+OnwQ1RrblqPO5RxU/etcdmfejL2LFQzw0eJJJphlFHUSZhrc9ms7kU5tukx9opX01FXzxQv8Ak7lmGnlIz4lMQtDJ4QwhK+4MsNRI2GSLXdUFpDsiOMDnO3JZnF+FY8OOp5IJ3SwTlwAkA1mkDnGwqD0uOKairhW09VUMqWuLt03PMknj8ea7rnpDjvErJK+rmlLBkwbjkG+QKyXrRYXfTa/ny9mU302v58vZlNm4ZpFhd9Nr+fL2ZTfTa/ny9mU2bhmkWF302z58vZlN9Ns+fN2ZU9k7hmkWF31Wz583ZlN9Vs+fN2ZTcDNIsLvptnz5uzKb6bZ8+Xsym4Ns0iwu+q1/Pl7Mpvptnz5ezKdjcM0iwu+q1/Pl7Mpvqtfz5ezKdjbNIsLvqtfz5ezKb6rX8+XsynY2zSLC76rX8+Xsym+q1/Pl7Mp2Ns0iwu+q1/Pl7Mpvqtfz5ezKdjbNIsLvqtfz5ezKb6rX8+XsynY2zSLC76rX8+Xsym+q1/Pl7Mp2Ns0iwu+q1/Pl7Mpvqtfz5ezKdjbNIsLvqtfz5ezKJ2NtkERF0OAREQEREBERAXVVN16WZnzo3N6wV2rhwzaRyEEKJ8Jjy1SwudXEEX7sg9SsBV/YRqYoiZxZSSN+9WAOJczqERFKBERAREQEREBRLE1i+PcKVvhlYB/EPxUtXGQ5cgPCo0lmdEGkfX3DDF5m78DVoZ3njH0Tjz83UrtBBWnlotzr9jOkobc0xiorGiPV2ajQ7Mu8gBK3AjGQyzz8J4yqjsREQEREBERAXB/FcrgoNMHgG+VAIzzqJP8AaK9+5s+Y3qC8Dtt9qD/4iT/acsiiZe212Z91kkZEYWGNusS9uzjy5AspvLqeWal6isXbn17JJDQOe15aA7Uy4s1kO6MR/S1HW1aRWZjenNkpntO6T2dm8up+mpeopvLqfp6XqK6+6MR/S1HW1O6cR/S1HW1Tyf8AFTp8X8w7N5dT9PS9RTeXUfT0vUV1904j+lqOtqd0Yj+lqOtqcn6J6XF/MOzeXU8k9Jn4QV47Zh34RmqoxJFGad2qTueee0j8F6BUYj5JajravFQivmqZ2U9Q+KU99IdctzOfgUck+NLRj4nUxMsvvIP1qIf+km8k/WouyXR3He+kJO2cncd86Qk7Zyv0rfVXo8V9nfvJP1qLsk3kn61F2S6O4750hJ2zk7jvnSEnbOUdG31OjxX2d4wQ7PZVRD/0iozLTsimfHqs71xbnq8yz/cd76Qf2zl5XWGtc4uL4iSc8y47Sk4bfDXFizVmeedsPubPmN80JubPmt80LtljMMz4nEEscQcl8LHWms/q+dzZ81vmhNzZ81vmhfSIPnc2fNb5oTc2fNb5oX0iD53NnzW+aE3NnzW+aF9Ig+dzZ81vmhNzZ81vmhfSIPnc2fNb5oTc2fNb5oX0iD53NnzW+aE3NnzW+aF9Ig+dzZ81vmhF9Ig2nREXY5BERAREQEREBAMyEXLfjN/eH3qJ8Jjy1TogI8a6nNWSN9ZU9HEoLINyx/O3kbcZf9tynQOxc3iXTvsIhITNARM0zQERPIgIm3mPUmR5j1ICxWIa00VnmLTlJKNzZ4M+P1ZrK8eeXJ6lCcX1plro6Vu1sDcyB84/lkm0p7oFw/3Td66/St7ylZ3PAT8921x8jch/mV/KKaOsP728EW6ie3VqHs3ef/WP2nq2DyKWKoIiICIiAiIgLhy5RBp/iy3Gw45utEdjYatzmZ8rXHWHqcuVNdO9qFJi6kuTW97W02q45fLjOX3OCgtO/dKaN/OMj5ES99DXS0LpHRMa4vAHfBezfBVfRReafalhukVrmqJJY3vD2Bo1ANm1Z3ffQ/VqjqHtWtL2iNRLmycRlpOq12wW+Cq+ii6j7U3wVX0MXmn2rO776H6tU9Q9qb76H6tU9Q9qnqX+VfVZ/wDbYLfBU/QxdR9qb4Kn6GHqPtWd330P1ap6h7U330P1ap6h7VPUv8nqs/0YPfBU5j9VD5pXgjrJ4ah88TtR788yBznNSvffQ/VqnqHtTffQ/V6jqb7VE3tPfaJ4nNP+hGvhevH9+fNCfDFf9P8AwhSXffQ/V6jqb7U330P1eo6m+1Oe32R6rP8ARGvhiv8Ap/4Qufhev+nPmhSTfhQ/V6jqb7U34UP1eo6h7VHPb7Hqs/0Rv4Xr/p/4QnwvX/TnzQvXbbxBRXerrHxyOjmDtVrcsxm4H8Fmd+FF9XqOoe1Ivafdpk4jNWdRXaHSPfK9z37XOOZPOV8qZ776H6vUdTfam++h+r1HU32qsxHvLL1Gb6IYime++h+r1HU32pvvofq9R1N9qjUfJ6jN9EMX0yN0hIY0uI48gpjvvofq1R1D2qMy1wNfU1EbO9meXAOOWQzVL7iN17uzgbxmyxXPHLX3efuab6J3Unc830T+pen4Sf8ARt60+En/AEY61hFs3w930v8AS/8Adn9nmMErRmY3AeELup7ZXVcW609JLLGdmswbM1y+vc9jmmNvfDLjK9ltxDNbKMU8cET2hxdrOJB2+Ja4ptb88PL/AKlTDj16S3N/32ef4DunR9R5qfAd06PqPNWU341P1SDznJvxqfqkHnOWuqvL6nFfEMX8B3To+o81PgO6dH1HmrKb8an6pB5zk341P1SDznJqqOfiviGL+A7p0fUeaiym/Gp+qQec5E1U5+K+IbBoiLqWEREBERAREQEHxh40RQlqniiCTfvd4YmuMhr5Gsa3jJL9gHhzI61luDbHB/7Hqe3b7yvN+BcPSYmGIHUBNeHiTPXOoXj5ZbxaykWQOee0+FZdPc92nV1HZqpfMN3/AA22B13pZqUTlwj1pQdbLLPiJ5wvbacDYtvlujr7bbaielkJDZBM1ueRyPG7PjUx061Od3s1KOKOnkl85+X+6rY0ZUncejexREAE0wkP+Yl34rK0aa1tuNqD4L8d9DVPpDPeTgvx50NU+kM95bU5DmXOQ5lC22qh0Y48bt+Bas+KdnvLrOjvHjD/ANCXHyStP++trshzJkENtTzgbHjP+xLt5Dn/ALy6zhTHUZ/6HvXkjefuW2uS4yRG2n0V/vFrnNPVhzntORiqmEOHXtWSwHZ3Yt0g0UU7deHdTVVPNqM25eU6oWzl4w5Z7/TmG626nq2ZZDdWAuHidxjyLG4ZwJYsJTVM1ppHxy1Gx75JC8hueeqM+IIlJQNua5QcSIgREQEREBERAREQVZp0tQrMFxV7Rm+gqmvJ5mP7wn7lQ1tfnC9h4wcx4ltliu0i9YUuttIzNRTPa3Zn32WbfWAtRKB5ZUmN41XHMEHkP/8AuaJSywy2yOab4TERZqDU3RuttzWd7pwt9HS9iVgrDbaa5zTtqXuYI2AtycBmc1nd69q+sydq1Xrt5vEckXnmtP8A447pwv8AR0vYn2J3Thf6Ol7E+xfW9i1fWJO1am9i1fWJO1ap7sP7X2s+e6cL/R0vYn2J3Thf6Ol7E+xfW9i1fWJO1am9i1fWJO1anc/tfNnz3Rhb6Ol7E+xcipwsCM46XsSuRhe1E/6TJ2rVEKhjYqqWNhza15aDnnmAVEzMNsWKmSfw2ns4nLDUSmMDULyW5Dkz2LrUotlgt1ZbYKied7ZHjNwEgHKfYvXvXtP1iTtWqum88XSs8vfshiKZ717T9Yk7Vqb17T9Yk7Zqnlk9dj/X9kMRTPevafrEnatTevafrEnatTllHrsf6/shiKZ717T9Yk7Zqb17T9Yk7Vqcsnrcf6/shiKZ717T9Yk7Zqb17T9Yk7Zqcsnrcf6/shiKZ717V9Yk7Vq8d1sNvo7ZPUQzvdKxoLWmRpz28ycsrRxlLTqNowil1JZLLLRwySTfrHxhzspwNpC7vgGxfTH0kJFUTxmOJ1r+ELRTT4BsX0x9JCfANi+mPpIU8ko9bj+J/ZC0U0+AbF9MfSQnwDYvpj6SE5D1uP4n9kLRSG+Wu2UdAJaOTWk3QAjdg7Z4lHlTWnRjyRkjcCIiNG06Ii7HIIiICIiAiIgIiICIh4lBprxpnqd2x26Ibdwo4mAeEguP3rYzD1KKHDtspWjJsNJEweRoWs+NybppYrYm99r10VOB4tVp/FbUMaGNDQMgNgC5beXVWNVfaIihIiJmgIiICIiAiIgIiICIiAiIgIiIB4lp3iSCOkxvdoIGhscdwmaxo5BrlbiLUDFn/WBef/uU3+2gEbUyHMh4z40RExD7hgdUTMhjaHPedVo2DMrJ72Lr9Vb2jfasdTzSU1RHNEAXscHNzHKsxvrumfxIezKmJrHllemee+Ku4dG9i6/Vm+e32pvYuv1Uee32rv313T5kPZlN9d0+ZD2ZTmoz6fG/WHRvYuv1Uee32rnezdvqw7RvtXfvsuQ42QD/ANP8032XHmg8z81b8Kv/ANUT4h597F1+qjz2+1eSe11dNVMpZoQ2Z4za3WBzWS32XH5sHmfmvDU3epqq6OseIxLG3VaA3Zl4lEcu/LTF1ub+5EacfAld9APPCfAld9APPb7V2/D1bnxReanw9Wc0XmLb+y6/wOoWSvJA3Aec1eJ0ZY4tcAHA5FZL4frBtDYs/wB1Y57zJI55AzcSTkqX5NfhVnl9nzkPB1JkPB1IiyV0ZDwdSZDwdSIhqDIeDqTIDaMupEQ1DjIcwXOQ5giInRkOYJkOYIiBkOYJkOYIiI04yA4gFyiIkREQbToiLscgiIgIiICLrmmjp4XzTPbHFG0ve9xyDQOMk8igVx0x4VpGuFNJU1z+TcISGn/M7JVm0R5Wisz4WBmOdYu9Yls+HYRJda+Kmz+Kxxze7xNG0ql77pmvdeHRWqCK1xHYX57rN1kZDyBR+24Qv+Jqo1lW6SJkhzfVVZJc7xDjPqVeaZn8K01rWN3laFZpuw/C4iloa+qA+UWtjB6zmvBw7UOe3D9UG8/dLPYvBR6MLLCwGqmq6l/KdcMHUB+K9o0eYby/0SXx7u5WjFklj6jDCtKe/wARx3HiCqhkMPwh3Y+JuRdlra2WfFmrsi08YXd/aUd0j8cLT9zlGZNGuHHcUVU3xT+0Lzv0X2U/Eqa5v+drvvCrPD3XjjMSds034Nfxz1zP3qVx+5dnDXgv65VeiP8AYq3doqt5+Lc6weNjCvjgpoulqnsmqPT3+FvV4vlY79N+DWDvZq555m0rh9+S8cmnjC7CdSjuknihaPvcoQzRVbh8a51h8TGBd7NF1lHx6mtf/naPwT090erxfKVnT7h7ktl18xnvLlunzDhPfW66NH7jD/vKLjRjh/59cf8A1x7q4OjCwkZNkrgefdgf91PT3R6vGmsOnPCMn9oLjD+9TZ/cSspSaXME1Tc/hpkJ5p4ns+8KrpNFdqcP1dwrWeRjl4JtFD8/6tdx4pYfxB/BR0L/AAtHFY591/0OLMP3IhtFeaCdx4msqG63VnmsuHgt1gcxz8i1TqtGV9hJdD3JU5H5Emqf4l0Rvxvhc60Et3o2t+Y9zmDybRl5FScdo8w1jLSfEttNYLla12rTfiugIZXCjuLG5Z7rHub8vG38Qp/ZdOtgri2O6U1TbZCctcjdY+tu0dSoutVFirXiO0XqJslsudLVNcM/1UoJ6uNZQHnQcoiICIsXfL/bsOW6SvulUyCnZxE8bjyNaOUnmQZCSeOKN8kj2sYwEuc45AAcZWn+I6mGsxtdKmmkbLBLXyvjkYcw5pdsI8CkOO9JlyxjM6jphJR2rPvadp76XwyEcf7vEPCotS0W5kSS/GG0AciD28ZPjREQfcb9SRrss8jxL2/CTOSN3nBeehfDFXQPnAMTXgvzGexSv4Uw3t/Ux5Z/V1S2GuSd2bYv6txHBRy4Y7T+m0c+EmfRu6wnwkz6N3WFI/hTDf0Mfo6fCmG/oY/R1T0uNt/mfj/r/EIhUTNmlLwMvBmuvyhTP4Vw59DH6Onwphv6GP0db1pWsah5eTjsmS83tSdyhnlCKZ/CuG/oY/R1H77PRVNa19A1rYtzAIDNXvtv5KZrCMeab21NNMZmOcJs5wpZRXKwR0MDJ4ozK1g184M9vjXf8K4b+hi9HUcsK24m0TqKShmznCbOcKZ/CuG/oYvR0+FcN/Qxejpywj1VvpKGbOcIpmbrhz6GL0deG7V9kntssdJEwTkt1codXl2pqFq8Tabamko148s/GmznClNtuNihttPHUxMM7Wd+TDntzPKvV8K4b+hj9HTlhE8TaJmIohmznTxKZm64b+hi9HWGv1ZbalkAt7Gt1SdfKPVU8sQmme1p1NZhhURFV1CIiAiIgIiICIiDadERdjkERNueWW3mUJEXDjqN1nbBznYvO+40LDk+tpWn9qdg/FNwjuimlW4/B+j6vAOT6ospm/5jt9QVO4JwjTYjjqqmslnZDC9rGiIga5O05kjZsUz03XinnobRQU1TDKDLJO/cpA7LJuq3iPhK+tHVM2mwjAQWl88j5nAHbx5DZ4gq0iLZO6ctrUxfhZS2YWsloIdSUEQkH94/N7vIT+SzCZc4I8YT7l2RERHZ5k2tPkREVtq7ERFAIiICIiAiIgIiICZkcRREHgrrHarmP65b6eY/OLAHDyjaojctF9vnzfbaqWlfx6kn6xni5CPWp6ipbHW3mGlc16+JUTdsLXnD792mp3Bg4qincXN6xtHlXttOkfF1m1RS3yokiGWUdQRMzL/NtHkIV0nJzS0gEHYQeVQvEWjygugfUW7VoqsnPVA/VvPhHyfIubJw8+au7FxsTOruy06fq+INbd7PBUAcclLIY3ePVdmPWFObVpmwjciGz1c1vk5qqIhvnDMeVa41tuqrNce57jSuY5jgXRl2rrN5w4cnhCyZtFtuVytNNZKyVrq95Y+OqALqd3IDqjaMuVc/LLs5o22CxTpTw/h+1snpquG5VU7c4IKeUEO8LnD4rfX4FrzfsRXjGN2NZcpzI7bucbdkcLeZreT71J7doiu0l0bHcJ6aGjBGvJC/Xe4cwHOecqMOgZS3S408WYjiqHMbmczkCQMz5FVZ8U9KynaMhm7lK70RECLup6c1DnAHLLwL0fBp+l9SytmpWdTLvwf0zis9OpjruHTQRRT18EUxyic8B5zyyClm9+xDZux2bP8ASQox8HH6Qeanwb/iN8xI4nHHujL/AED+oXndYmEn+ALF9OfSQnwBYvpz6SFFn2/UY52uDkM/irx7Pmt6lrTJS8fhefxP9L4rhZiuW0xMpr8A2L6c+kBPgCxfTn0gKFZeAdSZeAdStzfo5fT5PvKa/AFh+mPpIUevlHSUVayKjdrxmPMkv19vjWMyHMOpcZZcQCiZaYsV623NtuURFXToERFOjQiIgIiInYiIiBERAREQEREBERAREQbTE5Z9fiUQv2kzDNhc6J9Z3XUt44KQboQfC74o61T18xvijHVf8H0rJmQyn9XQUQcS4c7iNrvGdgUowzoJuFW1k9/q20Mew9zQZPk8Rd8UeTNbTk+GVcfy8t204XWfNtrttNSM5Hzu3V34NHrUd3zY/wASvLaaru07XH4tFEWNz/ygfer/ALLo1wnYmtNNaIZZmj+2qRurz5XbOoKVxxtjYGMYGtHI0ZBZzaZactYatM0daQLqdeW11zidudVUBp/icvXHoUxnL8ako2eB9UD92a2cRV2lrMdCGMWg6sNAfA2pA/BeSXRHjmmBLbUHtHEYapmfVmFtKmQQamy2bHlj791FfKcN+U0Pc0dWa4p9IWJKCQRzzRzkHayqhydn4xkVtlksfcrHa7tE6O4W6kqmuGRE0LXK0XtHupbHS3mFBW/SnSyHVuVBLCfnwO1x1HIqX2y/2q8NzoK2KZ3zM8nDxg7Vk71oSwtcg59C2otcx4jA/WZ5rs/UQqxxBocxRYnmooWtucDdofSktlaPC3j6itqcRaPLnvwlLflWby8WXgRU7acf3qzTGmuDXVcUZydFUAtlZ5ePyFWTY8UWu/xjuOfKcDN0Emx48nKPCF00zVu4svD3xsyiItWAiIgIiICIiAiIgIiICL5kkEUT5HA5MaXHLmAzUQw3j6nv12NA+l7mMgJgcX56+XIeYqJtETqV4pa0TMM9fLFQ3+hNNWR7R/ZyN+PGecH8FT1bbrlgvEVPK5rTJBIJYJcs2SAH/gEcYV6LGX2yUt/tklHVDLPbHIBtjdyEf8bVjmxc0bjy24fiJxzqfDI4XxJSYmtcdZTkMkaQ2eE8cbuUeLmKpCr2X+7j/wAXJ/tFdlsr7ngLFbt0bmY3Bk8WfezRnlHjAzBXmNRHV3W41MRJjlqHPZnzEkhcMxrtL1YmJjcOxERQl67fQ1dc+RtIAXMALs3huxZDe/exs1P/AMwXjtdfWUEkjqNoLnAB3ea2zPP8Fkd8V8+ib2JSK1mdzDK/EcVSdY7ah1b3r383/wDME3vXv5v/AOYLt3w3v6EdgU3w3v6EdgVPJT4V9Zxv3j95dJw7eyMiwZf60L43sXb6BnahenfDfPoR2BTfDfPoh2BUxWseFL5+Kv8AmmJ/9ebexdvoGdqE3sXb6BnahenfDfPoh2BXy3Et5eSGtY7VOR1Yc8lPZTn4j/j+7o3sXb6BnaBN7F2+gZ2gXp3w3v6JvYFN8N8+hHYFOxz5/wDj+7zb2Lt9AztAud692+gZ2oXo3w3z6EdgVxvhvf0I7ApqDnz/AKMC5rmPcxwyc0lp8Y41wu50FS97nugl1nEuPeHjPGvnuao+hl8wqsuqLR7y60RFC4iIgIiICIiAiIgIiICIiAiIg2fwvg2z4RoRTWumaxxH6yd22SU87nfhxeBZ8DILlEBERAREQEREBERAXDmhw2rlEEaxNgWw4rhLblRNM+XeVMXeSt8Thx+I5hULjHRbfMHyG4UT31tvjOsKiAFskPMXtG0eMbPEtn18OYHbCMwePYkTMeD/ALa2YX0j5mOivrth71lYAP48vvCshr2yNDmkOaRmCDmCPAsVpD0PRV4mu2GomQ1nx5aIbGTc5Z813g4j4FWmE8YVOHan4OuQldQh+o5jmkPp3cRyHHlzt8C6sWf2s4c/CxP4qeVwoviGWOoiZLDI2SN7Q5r2nMOHOF98S7HnfoIiICIiAiIgIiIB/wCM1S+MbHLhnEAq6MujppX7tTvb/duG0t8mezwFXQsbfbPT320y0NRkNbbG/lY8cTh/xyrPJTmjt5b8Pl6d+/h58L4gixFZo6oECdneTxj5L/YeMLNKj7Nc6zBWJnsqY3ZMduVTEPlt5xz8hCuyCeKqgjqIHtkhkaHMe07CDxKMV+aNfCc+LknceJRjHWGxe7SamBgNfStLo/228rPZ4VUlulDZSw8Txy84Ww3FtHGqRxxahZsUz7g3VhnyqIgOIZnaOvNY8TTX4odPBZZ/JMutF8xuEkbXjicM19LkdzKWS7NtE08joTLujA0AOyyyKzW/SP6lJ2o9iiKKYtMML8NjvPNaO6Xb9I/qUna/km/SP6lJ2o9iiPIpZR3exxUUEc0IMrYwH/1fPb41aLTPlz5uGx0iJiu31v0j+pSdqPYuN+sX1KTtR7F2/DWH/of5dc/DWH+WD+WU7/Vz8lf9uXVv0iBH9Sk7QexY62Ygbbpat5p3P7ok1wA/LV8C899q6OrqonULcmBmq4amptz5lilXfd24uHxzTWpjaXb9I/qUnaD2Jv0j+pSdr+SiKJzSejxfH8pdv0j+pSdr+Sb9I/qUna/koiic0o9Hi+P5S7fpH9Sk7X8lw7GcZaR3E/aMv7T8lEkTmlMcHi34/lyTmfGSuERVdMeBERNpEREBERAREQEREBERAREQbfoiICIiAiIgIiICIiAiIgIiIPk8RVW6VNGkeIKaS9WiFrbtEM5I2j/Smjk/f5jy8XMrUXy8d7xINWcCYrfaKoWm4PIo3v1Wuf8A3L+Y8wJ2eDyK21ENNGAxRyHFFtiygldlWxtbsa88UniPEfD411aPMSG6W426pkzq6NoDSTtfHyeMji6l2YMv+mXBxeGPz1TRERdTz4EVXYhxdebVjiSI1LmUUErBuAA1XR5DMnw5Zq0AQ4Ag5g7QqVvFpmI9ml8U0iJn3coiK7MREQEREEL0gYZF1t4uVLH/AFylb3zWjbJGOMeMcY8qwejjE24zCyVb/wBVISaZxPE7lZnyA8Y8KtDLPnz5MlTuOsOusd4bX0bSykqXa8epxRScZb+I8ZXPlia2i8OzBeMlelb/AMXFyKvdKtIHUVtqwNrJXRE+AjMfcVJMJYgbiGyR1DyO6o8o52/tDiPl41itJrNbCzHZfFqWesEK+SYvj2phrOPNqVbW92tSNz4wSF6l4raf1Dv3/wAF7V5z158iIiIFLaS02KSigknlaJXRgv8A1+W3xKJKQ0OFXVlDDUiqa0SN1tXcyclarm4mYisbtpk/gbDv0zfSFx8DYd+mb6QvKMGP+uN7IpvMf9cb2RVtT8OPmr/uy9Ys2HswN2b6SodKGtmkDPih5A8WexSbeY/643sim8x/11vZH2qJifhriz46d5vMosilO8yT663sj7V47lht1soH1TqoPDSBqhhCrNZ06acVim0RHd5O56TkcPK9O56T5zfPXrtmGXXGhZUipawOLhqmMniOS9m8x/11nZFc/p7z/qe1/mDhK/hnDXsxHc9J85vnryVccTJG7kcwRt25qRbzH/XW9kVjrxYHWiljlM4k136uQZlyZq1cFqzubMM/9Y4biadKmOKz+jDoiLVxpDHb7S6NpdIMy0E/rl9/B1n+kHbKNZDmHUufIOpb9av1hpzx8JJ8HWj6QdssRdIaanqWtpjmwtzPfa21eLLwBFW+SLRqI0ibRPsIiLJQREQEREBERAREQbfoiICIiAiIgIiICIiAiIgIiICIiDy19DDcaOajqomy088ZjkY75TTsK1TudDWaPMeyQZl3ckoLHH+9gdxdY2eMLbZU9p2w4Kqz0t/gZ+to37jOQOOJ52E+J2XWpidTtExExqWQpqiKqpYqiE60UrA9jucHiXYoRozupq7HLb5HZyUb+9z49zdxdRz61N16dLc1dvFyUml5hVOlG37leKStaO9qISx2z5TTy+QhTzCNw+E8K2+oJzeIhG85/Kb3v4BY7SHbu78KyytbnJSPEwy48uJ3qPqWE0WXLOOutb3bWkTxjwHY7L1FYR+HL/26bf3OH37wsZERdLiEREBERAWPvlphvdnnoJgBujc2OPyXjiKyCKJjcalMW5Z3ClMKXWbC+KjDVZxxuf3PUtPEDnsd5D+KnGk54bhVjQfjVLB1AqOaT7QKa4wXOJveVTTHLl89o4/K37l04gvJu2jyzF79adlQ6KXnJY3LPqIXJEzTmpL0tRkmuSEctv8Ao7/3vwXtXlt4/qufO4r1Llds+RERECzlJbL7NRxSU0rhC5ubAJ9XZ4s1g1lqa/3Ompo4ISzcmDJucWfrUxMR5Z5MeW8ax129nwPiT6aT0j818vtWIo2Oc6aTJoJOVRzLr3zXbnj7JcPxHdnscxxZk4EH9VyFOevyxjhuL3+SP2Y34RrfrlR2hT4RrfrlR2hXRub/AJjupNzf8x3Uo6kfLr9LPvT+Hf8ACNb9cqO0K+ZKyqlZqS1EsjcwS1zyQV1bm/5jupNzf8x3Uo54+SOGmJ7U/h2x1lVDGI46mZjBxBryAvr4QrfrlR2hXnLXDPNrgB4Fwpi247SrfDFZ/FXUvT8I1v1yo7Qr4mq6ioaGzTySNBzAe7PaulE2iKVidxAifcu1tPO9ocyGRzTxENJSI2mZ15dSLu7kqPoJfMKdyVH0EvmFNSc0fLpRd3clR9BL5hTuSo+gl8wpqTmj5dKLu7kqPoJfMK+X08zGlzoZGtHGSwgJqUc0fLrRERYREQEREBERBt+iIgIiICIiAiIgIiICIiAiIgIiICxl+tUd7sVwtkozZVQPiPgJGw9eSya4PEg1OwFVyWrGcdLNk0zF9LID88E/7wy8quXkHMqgx/SnD2lG4ujGoG1TKtmXM7J3tVvNeJGNe05tcA4eIrt4a24mHm8bXVol8zQsqKeWCUZxyMLHDwEEfiqTs078KY2Y2clrIJzTzeFhOWfVkVd6qnSfadwucF0jadSqbuch/bbxHyj7lbPHi0K8LaNzSfda2R6kUfwXd/hjDNNK92c8I3CX95o4/KMipAtqzusS5r1mtprIiIpVEREBETj2IItpCpWz4OqnkDWgcyVp5siB9xVOuqXdwMpPkNmdIAectA/BWppJvUFNZDa2vBqatzSW/NjB4z4zkqnfG5jI3uGTZAS084ByJ61w8TP4+z1eDjWPuytENWkYOfM+tehYuKqpWxNYbtuZA2s7mcdXwZhfXddJ01/KvWGnTuGSRY3uuk6a/lXp3XSdNfyr01JuGSXrirxHE1m555Dj1lgu66Tpr+VenddJ01/KvVb44vGrOnhuMycNbmxTqZSH4T/wj5yfCX+GfOUe7spemv5V6d2UnTX8q9Zemo7v8c4z7fwkPwll/dnzk+E/8I+co93XSdNfyr07rpOmv5V6elof47xn3/hIfhL/AAz5yfCf+GfOUe7rpOmv5V6d10nTX8q9PTUP8d4z7/wzk9aJoizUIz5c15Vje66Tpr+VendlJ01/KvWlMfJGocHEcXk4m3PlncskixvdlJ01/KvTuuk6a/lXq+pc+4ZLkUituKG0Fvipe5S/UBGYkyz9ShfddJ01/KvTuuk6a/lXqY3DPJSmSNWT/fo36m/tfyTfo36m/tfyUA7rpOmv5V6d10nTX8q9TuzH0mD4T/fo36m/tfyTfo36m/tfyUA7rpOmv5V6d10nTX8q9N2PSYPhP9+jfqb+1/JeS54obcLfLTdzOYXj4xkzyUL7rpOmv5V6d10nTX8q9NzMJrw2Gs7rDJZosb3XSdNfyr07rpOmv5V6rqXTuGSRY3uuk6a/lXp3XSdNfyr01JuGSRY3uuk6a/lXp3XSdNfyr01JuGSRY3uuk6a/lXompNw3RREUJEREBERAREQEREBERAREQEREBcFcog150+W7ccT26vDcm1VIY3EcpY4/g4KQ4VrO7sLW2cnN24hjvG3vfwXu08WzunB9JXgd9R1bczlxNeCD68lEtGFbu2Hp6UnM085IHgcM/vzXRw06vpycbXePabrD4ns/w5h+qo2j9dq7pCeZ42j2eVZhBx5jjXbMbjTza2msxMKf0dXj4Nv7qCY6kNb3hB+TICdX8R1K4OryKncf2V9nxD3dTDUhqzurHN2akgObh198rLwxe2X+xQVmY3YDc5mj5Lxx9fH5VhhtqZpLq4mvNEZa+7LoiLoju4xF4rld7daIjJcK2KnHIHO74+IcZUGvGlFgLorRRl3+NUDIeRvH1qlsta+ZaUw3v4hYc00NPC6aeVkUTRm573AADxqA4h0lU8LX09laJ5eWoeDqN/dHyvGcgoeG4lxnUhx7oqxnlrHvYmfgPWprYtGlHSFs93kFXKNu4t2Rjx8rvUFjN73/ACumMWPD3yTuURsOG7pi+4OrqqSUU7n5zVcm0v5w3nPqCY/ghpcQihpGBkNLSRxRsHJsJ/FXQxjIo2sjY1jGDJrWjIAcypfFANdpEqIW7S6qihHk1WqmXHFKf9teHyzlyfpC8KDQ3giW30z57MHzOiY6RxneNZ2qMzx869HAvgLoMdvJ7ynrGhjQ1vEBkF9LldqAcC+Augx28nvJwL4C6DHbye8p+iCAcC+Augx28nvJwL4C6DHbye8p+iCAcC+Augx28nvJwL4C6DHbye8p+iCAcC+Augx28nvJwL4C6DHbye8p+iCAcC+Augx28nvJwL4C6DHbye8p+uCUEB4F8BdBjt5PeTgXwF0GO3k95T3Nc5ohAeBfAXQY7eT3k4F8BdBjt5PeU/REoBwL4C6DHbye8nAvgLoMdvJ7yn6IIBwL4C6DHbye8nAvgLoMdvJ7yn6IIBwL4C6DHbye8nAvgLoMdvJ7yn6IIBwL4C6DHbye8nAvgLoMdvJ7yn6IIBwL4C6DHbye8nAvgLoMdvJ7yn6IIBwL4C6DHbye8nAvgLoMdvJ7yn6IIBwL4C6DHbye8nAvgLoMdvJ7yn6IIBwL4C6DHbye8in6ICLE4dvUGILBQ3anI3OqhD9XP4rvlN8hzCyuYQcoiICIiAiIgIiICIiAiIgIiICIiCNaQLX8MYCvVEGgvdSuewftN74etqoDRZXal7qqU7G1FPrtHhac/uJ6ltBMxssTo3jNrxqkc4Oxam2ZrsP6R2UshIEFa+md+6SW/iFfHOrRLPLHNjmF0onjRem8RiMS2RmILJNRHVE2WvA75rxxdfF5VV+Cr6/Dl+dS1hLKed25TNd/dvByDvBkdni8SudVtpFws58vw1QxOdrZCpjY3Mg8j8h1HrWGaupi9fLr4bJGpx2nsl97xVabCzKqqA+cjNsEPfPPj5APGq7u+ke8V7zFQNFDE45N1O+ld5ctnkC6cO4EuN8Laqrc6kpDt15G5ySeIHk8JVmWbDFosTB3HSN3blmk757vKeLyKsdTIvrDh/WVYW3BGIL3KKipY6mjeczPVuOufJxn1LF9z728TiG5UsdSymlG6xvbm2RnOOfYcx1K++fwqE6Q8OfCdt+E6dmdVSN78N43xcvlHGPAovh5Y5q+VsXFc9+W0aiUwpH08tHDJSFnc7mB0WoABqniyAXcq00bYkAPwFUv712b6Rx5+Ms8vGFZa3x35ocebHNL6lyNrgOchU1ZmG7aWqPLbut2D8+cNeT/ALquKRxZE94+S0n1KhLBfprBiGnvcMEU88D3SNZKSGlxBG3LbyrDip7RDr4GO8y3JXK164fr8P8Ase2efInD9f8Aoe2efIuN6GpbCoteuH6/9D2zz5E4fr/0PbPPkQ02FRa9cP1/6HtnnyJw/X/oe2efIhpsKi164fr/AND2zz5E4fr/AND2zz5ENNhUWvXD9f8Aoe2efInD/fh/2PbPPkQbCE5AlVhpF0qQ4YL7VaRHU3fLKQnaymz+dzu/Z61ALjp0xJWUM1NDR0VFJI3VE8Re57OfIHZn9yrRkwNSJp2bvm4uc17j355czx8e0+VE6WrSacbxBhieOpjhnvDpQIJtzyYIyMy5zQdpB2ADjz8Cm2jPSc7FpfbbqIorrGC9hjGTZmcuQ+cOUco2ha4ve6V5kccyTyDIeQci9FsuFTabnTXCjlMdRTSCSNw5CDxeI8R8GaJ03UacwuVr1w/37ks9sy/fkTh/v/Q9s8+RFWwqLXrh/v3Q9s8+ROH+/dD2zz5EGwqLXrh/v3Q9s8+ROH+/dD2zz5EGwqLXrh/v/Q9s8+Rc8P1/6HtnnyINhEWvXD/fjxWe2efJ7U4fr/0PbPPkQbCoteuH6/8AQ9s8+ROH6/8AQ9s8+RDTYVFr1w/X/oe2efInD9f+h7Z58iGmwqLXrh+v/Q9s8+ROH6/9D2zz5ENNhUWvXD9f+h7Z58iIaYbBelOswdhyqtcdEyqeZd0pnySEMiLvjAgbTmduxT7D2ni11AbFfqGWhly2zQDdIvHl8YetUziqwyYbxJW2p2sWxP8A1Lj8qN21p6jl1q0bNosw9jXCVBeLXVT22pliAlY39ZEJW7Hd6do2jkPKpmNJ8xtblpxVYr4xrrZdaSp1uJrJRreadvqWX1iOMLWu6aEcV0Di+jFJXtHE6GXUf1Oy+8rGCLSVhvYxuIaZjeIN15GdW0epQhtRrLnNatR6VMe0B3OS6S581TSsJ9bQu8aaMbN2OraUnw0bUTps6SAuNbwLV+TTBjioGoy5saTxbjRsz+4rwXDEWPrjRS1NZX3vuOMa0kga+KNoJy2kABDTbDPbxLlUJoDmrZL3eWmoldTCBjnMc8kF5dsOR5cgVfQ4kQ5REQEREBERAREQcHaFq1pUpTaNJ1xmjGWu+Orb4yAT6wtpSNi160+0YjxTbasf39G5h/yu/wDkE2a7JtDIJoI5mnNsjQ8eIjNfaxGFajurCtrlJzJp2g+MbPwWXXq1ncRLwrxq0wJxHMEjxIilUz25oiICeREQU1jOwSYavTKyiDo6WZ+6QPZs3J4OZb4MuMeDxKyMKYijxHaGzktFVFkyoYOR3OPAfvBXvvFpp71bJqGpaNSQbHDjY4cRHhBVOUFVX4HxO5srTnE7UmZ8mWM8o8m0Fc07xW37S7omOIx8vvC75BrRubztI9SprR7R0dTpAoaG4U0VTBI+SIxSt1gSGnk8YVw0VZT11HBWUsgkglAe1w5R4fCqdtbzZtKdMXHIQ3TVJ5g55H3OKjiNTqU8H25qyv4YIwtkP+b9u7AJvIwt9n7d2AWf5SirqG25YDeRhb7P27sAm8jC32ft3YBZ9FOoNywG8jC32ft3YBN5GFvs/buwCz6JqDcsBvIwt9n7d2ATeRhb7P27sAs+iag3LAbyMLfZ+3dgFXWlq2UdgtlFHaMP0UMdS5zZqqKmBczLLJoPyc+fl4lciwmKsTUOFbLJX1xDs+9hgHxpn8gH4nkHkVL1jS1bTtrPccPXC0Wuirq+EUza0u3CKTY9zRl32ryDb4+Ne/B2EanFdzkZmYLfSt3Wtq8tkUYGZy53EA5Dy8i8F+vtfiO7y3K4SF0kmxrR8VjRxNaOYKxorzFYv6PkUUGqyrutRLACNhI1jrnw96MvKud07QnCVmgxLjiloooi2ifK+VzOPVhaC7LPnyAHjK8+FMPSYqv4tMMohmlhmfE48Wu1pIB8BIyVn6CLBnFdb7K3IFvclOSP8zyP4R5FD9EGQ0oW3wtnH8BQYay1kWFMQywX+ww1kbDudTSVLcnx5HjaeQ+ojxqz4cT6HJImPkssUJdxtkoXZt588s1YmKcB2HFzGuuNKW1TBkyqgOpK0c2fKPAVBP0f7WJ8/hyuEWfxNyZnl40E2pMB4IraWKpp7BbZIZWB7HtjzDmkZghd3Bzg77OW/slnbZQU9qttNQUrS2CnibFGCcyGtGQXsRCLcHODvs5b+yTg5wd9nLf2SlKIItwc4Oy//Tlv7Ja748t1HbtJlwoKOmigpWVMTWxMbk0AtYSMvKVtgeJasaSP+ty5/wDm4f8AZjSPJPheIwRhb7P27sAm8jC32ft3YBZ8cSLqiI05pmWA3kYW+z9u7AJvIwt9n7d2AWfRTqEblgN5GFvs/buwCbyMLfZ+3dgFn0TUG5YDeRhb7P27sAm8jC32ft3YBZ9E1BuWA3kYW+z9u7AIs+iag3KqtNGG+67XT4gp485qM7lUDLjjJzBPidn5yx2gvE7aS41OHKiTKOqznpdY/wB4B3zfGRt8it+so4a+ino6lmvBPG6ORh5WkZFauXq212C8XSUzZXR1NFOJKeYbCW55sd5Rx+ULHJHfbbFbfZuCMslyorgXGlLjKwRVcRayrjAZVwZ7Y3+w8YUpz2ZrJoieki+uw9ge410JDahzRDA4jie85A+TafIq50FCtuc95fWv7qomBmW7gSESkkkgnPLZx+ML1/0gLiWW+zWxrst1mkqHjnDRkPW5SPQrbBQaPKefVykrZpJycuMZ6rfU31oJ/FTQwj9XDGz91oH3KGaXieDC8ZcRbGD4t0apyojpNpXVmji+xgZkUxkAH7JDvwQV9/R7Df8AnE75WtAPJk9XeqC0AVmpfL1SE/2tOyYDn1XEf7yvwHNCXKIiAiIgIiICIiDg8SpT+kHABR2KoA2iWVhPgLQVdhVQf0gGje1anHjFYcvMKJhidHsm6YMpBx6jpG/xfmpQoho0OeEgOQVEmXqUvXp4/wAsPEzf/pIiIrshERAREQFFcbYXF+tu707QK+naTGeLXbysP3hSpFW1YtGpWpeaW3VUGB8UOsdcbbXOLaGZ5Hff3D+LM+DnHiXlx3GaHG9TUM2a+51Lcjx7Ac/KQpHpBwjugkvdBFmeOqiaPjZfLA5+dV5V189bHTtqH7oaePcWPO0loOYB58syuLJusck/+PVwxW9upHv5bcUlQ2qo4KluWrNG2QZeEZruVd4MxlK7B9rZvevtXuNO2F09NSh8bi3MbDnt4gs1v8t4pDIaC5iqFaKHuHub9fupYH5aueXxTnxq0WgmswlSKLyYzfFE6STCmJWsY0uc40IyAH+bxrl+OaJ8tPHQW263J01JHWZUVNr6kcmYYXZkZE5HqU88I5ZSdFGd98/2SxN6APeTffP9ksTegD3lHPU5JSZFGN98/wBksT+gD3l01mPGW+kkqqzDWIqanjGb5ZaNrWt8ZLk56nJZnL5fKHD1pnudwm3OCEZ/tPceJrRyk8i12uNdfNJuL444483vOpBADmynj5yeTLjJ5SvvFmJrrpCxAyCjpaiSBpLaOiiBc47NriBxuPKeQBWPgeKPB1pMTcJ4lmr5gDU1At+WseZu3Y0c3LyrO1ty1ivLG/dFdJWFqLCeGbDQ0o15HSyunnIydK/VbtPMOQDkHhUddZMS3uw4fjo7bUVVCGyspzDGXND3SHX1iOLk48hkFOdJjb1i+ltkdswrf2mmke5+7UersIA2bfApDo+vNfhfB1Laq/CmJHVET5HO3Kh1mkOdnx5hUt57L0meXuneEsPx4YwlQ2luRdDF+tcPlSHa89ZK150V/q9KttHM+YHzXK9N/T+LelinL/7ePeVS4Tw5X4ex229zWTEElFA+R8DG247o7WzADszkMgeNVS2KHEFyolLj+2i2WmspaK5VpujHvp4Ken1pcmfGLm57Ml56nSNFRUstVV4ZxLT00LC+WWShyaxo2knvuIIJqih79INM6rqYKKx32vbTSblJNSUeuzXyBIzzG0ZhdMuku20Zm+ErVebcI6eSpBq6TU12sy1g3btPfBBNkUPGPHn/ALpYny5+4P8A5LqbpLt0jYWQWq8z1kj5WOo4qPOaIxlofrDPZlrN60E0PEtWdJH/AFuXP/zcP+zGryqdI0FFTuqK3DeI6WmZluk8tDkyMEgZk63FtVGaR8uFq5H/AMXBl5kaR5PZsgPioo3UYxijuNZQ0tkvVwdRy7jPJR0muxsmqCW55jaA4da882PqKiJ+E7Veba3cpJWuq6TVDwxus4DbtOS6YtDm5ZSxFF24xle1rm4TxMWuAIIoR7y6maQKCXc44bXeJa18ssTqJlLnNGYwC7Wbnxd83rU88J5ZS3JFE6nHTaKnfU1mG8RU1PGM5JpaHJrBznbxLs37Qyz1MdDYr7Xx08zoHT01HrML28YBJ5E5oOWUoRROXSBQUe7C42u8W90dO6oa2ppNUytaWtIbt2nNzdnhXbvvn+yWJs//ACI95OeDllJ0UHfpWw1CSyoNbTztLmyQy05D43NcWlrhnsOYROaDllOFXGl3CRvNjF4pIy6tt7TrtaNskPGR428fizVjrggHjAPjS0bhSJ5Z21Pw5iS5YWuzLla59zlGxzDtZI35rhyj7lshgzSdZcWRMgMrKK55d9Syu+Medh+UPWqR0l4MOF733TSM/wCS6xxdD/hO43Rn7x4Nix1qwXXYhtDrhYHMrJ6b/SaIENmjPI5ufxmnky255jkXNMade990r081m64ypKfPNtPQtOXMXOcfuAV34LoxQYLstKPkUUWfjLQT961Kuj7k6udFd31Jq4WiFwqyddobsAOttV12DTta46aGmulqqqbc2NYJKciRpAAHEcioF0LyXKjbcLZVUbstWeF8Rz/aBH4qPWvSRhK7ua2mvlK152ak5MTv4slJ4po54hJDIyRh4nMcCD5Qg1h0VVrrHpNo6eYlu7GSikz2d9xD+JvrW0LeJauaSaGbDGlCqq6YauvKyvgI8JzP8QctmbTcIbtaaS4U7gYqmFsrPE4ZoPYiIgIiICIiAiIgHiVM/wBIGbK0WSDZm+pkd5Az81cpOxa86e7m2fFFvoGuzFLSmR4z4nPd7G+tB7tHDCzB0B+fNI4deX4KWLD4UozQ4VtsDhk8QBzh4Xd9+IWYXqU7Vh4mad5JkREVmYiIgIiICIiAeI57R4dqqLHWEBZ53XKhZ/UJXZOYP7lx5P3Tycyt1YbFlJ3dhW5QZZncS9vjb334LLLSLR3bYMk0tCpMKYYqsWXM26kv0VvqC3OKGd0jRLz6urszHMpof6P+KC7XGIaAu1tbPWlzz58+fwqsIZpYJo54ZHRSscHsew5FpHEQeQq/MF6abXLaRDiio7lroQG7uIyWzj52QB1Xc48oXnPalFDoExcc/wDnJSbf8SZfLNAGK4jnHiGiYdUNza+YbBxDi4lafDBgbptvYSe6ueF/A3TY7CT3UQq/gGxj9pqXtZk4B8ZD/vPS9tMrQ4X8DdNjsJPdXB0v4H6bb2EnuoKsn0H4tp4HzTYpo2RRtLnvfPMA0DlKrcRVctY6ihrp7iXy7nFqPeWynPZqtJz28mYVk6UdJrMRt+BrHM74K2GomyLTOfm5HaGj1lfOi+4YJw2fhi+XaP4WOYih3F7hTjlOYblrHwcSD5g0D4tkjinZdqCjkLcywPkD2Zja0lo+5d3AVjb7TUvpE/sVoDS/gbpodhJ7q54X8DdNjsJPdQVeNBeNx/3npfSJ/YuOAvHHEMS0vpM6tHhfwN02Owk91OF/A3TY7CT3UFXcBeOR/wB5aX0mf2IdB2OvtNTH/wB1P7FaPC/gfpsdhJ7qcL+Bumx2EnuoKnZoGxpHuepfaFu5ghmrUSjVB48tmxdr9BuOpI3RyYjpXRuGTmOqZiHDmII2q0+F/A/TY7CT3U4X8D9NjsJPdQVSzQZjuAOEOIKRgcdY6lVM3M8/EvibQRjip/t75RS7CP1lTK7YeMbQrZ4X8DdNjsJPdThfwP02Owk91BVnAtpC+0sPps3sXSzQZjtkxmZe6RspzJkbVShxz49uWe3IZ+JWzwv4H6bHYSe6nC/gfpsdhJ7qCqZdCWP5onRS4gp5InDJzH1kxBHhBC802gTGk0rpZbnb5ZHbS988hcfGSPAFb/DBgfptvYSe6nC/gbptvYSe6gqePQppChc90V/gjdI7XeW1soLncWZ2bTsC+ajQjpAqg0VF8pptXPVEtXI7LPj4xyq2uF/A3Tbewk91OF/A3Tbewk91BVPA7pKAAGIYwBsA+EJtnqXSzQlpCjqO6GXmlZMS4mRtZIHZnjOeWe3IZ86tzhfwN023sJPdThfwN023sJPdQVPNob0kzwvhmv0UsTxk5j6+UtcOYghcQaG9JNM1zYL5DEHOL3BlfK0Fx4ychxq2eF/A3Tbewk91OF/A3Tbewk91BUdRoW0i1ZBqbxTTkNLRutdI7YciRtHEch1Lu4JtKX2hH/7lL7Fa3C/gbptvYSe6nC/gbptvYSe6gpqTQTjuWR0klXb3vcS5znVTiSScySdVFcvC/gbptvYSe6iCQoiLrcjG36yUeIrPPbK+PWhmblmONjuRw8IK14Jvui7GYLdk0XxTt3OqiP4H1HxbdmVH8W4SoMXWk0dX+rlZm6CoaO+id+IPKOVUvXa9L8vZr9jC902KMazXOna8Q1Toe8k4x3rWlp8ufjV1XTQfhavDn0fdVukO39TJrN812fqIVBXa1VmG77Nb61re6KWRutqOza7bmCD4RktosG46tOMaAS0cm51TAN2pZD38Z/FvhGxc7pVNc9Ad5iDjbrrR1beRs7DG4/eFGZcFaQMLyGWnoblEG7TJQTF4PmH8FtQMiEyyRDTi/wB9vd3mgbfqmaaopmljHVEepIATnkdgJ2q9tB15luGC5bfKHf8AJ1QY2OPEWOGsB4wc/UrFrrVQXOMx11FT1LDyTRNf94XFttFBZ6QUtuo4KWnB1tzhYGjPn2IPaOILlEQEREBERARF8l3Og6aqphpaSWpnkayGJhkkeeJrQMyVqjV1M2PNIctQQ7UranP9yFvFn4mgdasLTHpBjlikwtapg4E/16Vp2DLbuYPUT1LF6OcOuoaJ13qmEVFS3Vha4ZFkfP4M/uAWuKnNZlnyRSm06aGtaGtGTQMgPAuURejHZ4oiIgIiICIiAiIgLhzGyNLHjvXDI+I7D965RJIa/wANokmxI2zboyGR9V3MHyZ6rTrZDPwKQYo0aXzCtCK6Yw1dKDqyS02Z3Lbs1gduXhXnxxA+1Y4nqYu9L3R1TCOfYT62rZSkqI7nbKepLWyRVUDZCCAQ4ObmQecbV5d41aYe7jtzViYap2O1xXm4sopLlTULpNkclTmGOPICR8U+NT7gPvvSlv8A4/YvfjrRI+IyXPDMRcw5vloOUcucfOP2ePmKwmDdKVyw05tuu8ctbb2HV1Xf21P4ATxgfNPkKqu9vAffulLd/H7FB8TYfdhm6utslfT1dQwAyinzIjJ+SSflfcrpxXpWtVHhhtTYquOprqoFkTeWDnc9p2gjkHKVXujrBE2L7u+53TdH2yGQulc85mpk49XPlHK4oh04c0V33EdojubJaakglz3LujWDnt+cMvkrLcB9+6Ut38fsV7MY2NrWtaGtaAA0DIADk8GzYuUFEcB996Ut38acB996Ut38avdEFEcB996Ut38acB996Ut38avdEFEHQffuS527rf7E4D7/ANJ27zn+xXuiCiOA+/8ASdu85/sTgPv/AEnbvOf7Fe/lTyoKI4D7/wBJ27zn+xOA+/8ASdu85/sV7+VPKgojgPv/AEnbvOf7FxwH3/pO3ec/2K+PKnlQUPwH3/pO3ec/2JwIX/pO3db/AGK+PKnlQUPwIX/pO3db/YnAhf8ApO3db/Yr48qeVBQ/Ahf+k7d1v9icCF/6Tt3W/wBivjyp5UFD8CF/6Tt3W/2JwIX/AKTt3W/2K+PKnlQUPwIX/pO3db/Yh0IX/L/pK3ec/wBivjyogoXgRxB0jbfOf7EV9ZogIiLscgiJxoNcdLsRj0i1pI2Pghdn/kA/BdF6wjiHBFTBd6OaV1Nk2SG4U2bSzMAgP5uPl2FZXTdAWYyhlGzdqFpz8ILgrqw7K2uwpa5XND2TUUWs1wzDu8AOY5Vz8u5bzaaxCAYP05xvaykxRFub+IV0De9P77BtHjGY8AVwW+6Ud1pWVVBVQ1MDuJ8Lw4epVXifQ9absX1Fnk+DKp2Z1A3Whcf3fknxbPAqzqsM41wLVGqp2VdOG/8A1NA8vjI8OX4hVmswtF4ltYuVrlZtOuIqINZcqekuUY2F+W5SHyt2epTWg084dnblXUNwo3cpa0StHlac/Uq615WWwig9NpawVUBoF7ZG7lbNG9p+5ZAaRMIOGYxHbsvDMAUEoRQyfSrgqA5Ov8Dj/hse/wC4LGT6a8GQk6lVWTf6qlcfvyQWMhOSqOt0+WGJn9SttwqH8mvqxjy7SfUobedOmJK4OjttPSW5h4ngbq8eU7M/Ig2Aud3oLPSOq7jVw0tO3jfK8NHk5/IqOx3pomuEUttwzukFO4Fslc8asjxzMHyR4TtUHZacV4yq+6qs1VQXbe6ax5a1o8Gf3AKd4f0fW60PZU1jhW1bdoLm5RsPOG8vjPUtKYrWY5OIpjjcoxgzA8tfKy5XeItps9aOB+x0x483Z/Jz61aoyAGXFkNi5Rd9McUjUPLy5pyTuRERXZCIiAiIgIiICIiAiIgrXSrR5Ptte0cYfA4/xD1Z9Ss3RZcvhHR9btZ2b6bWpnZ8feHZ6iFFNIVEavCFS9ozfTOZO3ybD6ivjQVcv1N4tTj8VzKlg8Y1Xfc1efnjV3rcJbeOI+FwKJYt0eWXFgdNKw0tflkKuEDM82uOJw8e1S3jTJYulr+3QxiP4bjppH0zqFzs3VjH8TeXvDtz8HFmr1tlspLNbae3UMW5U9OwMY3lPOTzk8pXr2pkgImSICIiAiIgIiICIiAiIgIiICIiAiIgIiICIiAiIgIiICIi7HIIiIKY0602VVZKzLY6OWEnnIIcPVmpzoyqu69HdnOe2OJ0OXNquI9iwemyjE+D6aryzNLWNJ8DXgt9i+dCVdu2EaujJzfS1jj4g9oI9YKyjtdrPeizFwdnLsyXOzNNivLLwofTZa4qPEdvrYYmRNqqctfqNDdZ7HcZy5cnBeey4BtF8w7RXBlRVQTTR/rAHNc3WByOwjwKY6b6Dd8LUNa1uZpqvVcRx5PaR94CwmjKr3bDUtOXd9TVDgBnyO772pjiJvqYMt7Rj3WWJl0UvB/UXhpHNJAR9xK8ztFVxB2XOjIPLub/AGK1OPiz8i51T809S3nBRyRxWX5VlHopn4pbwxv+rhJ+8heuPRTQj+2utS/92NrfvzVg5EchRRGGkIniM0+6GQaMbDE4OlkrJ8uR8oaPUFnqDDdmthDqS207HjieWazus5rKpkeY9SvFKR4hS2TJPmQ7efwbUXOR+aepcepXZT8iINvKiAiIgIiICIiAiIgIiICIiDoraUVtBUUjtrZonR5eMZKoMAYjhwfi0VdcJu5zFJBMIm6zvBs5drVcyozGFE234vro3AiF0omAb812TtnrXLxUdol38DbvNVzcM+E+QXI/+1/+ScM+E/m3P0X81jYtCVgnhjmju9wcyRrXtIazaCARyL74DbH0rcfNZ7FxvR7Pfwz4T+bc/RfzThnwn825+i/mvBwG2PpW4+az2JwG2PpW4+az2IdnvGmfCefFch/7X81zwy4S57l6L+ax/AbYulbj1M9icBti6VuPUz2IdmQ4ZMJ89x9F/NOGTCfPcfRfzWP4DbH0rcepnsTgNsfStx6mexDsyHDJhPnuPov5pwyYT57j6L+ax/AbY+lbj1M9icBtj6VuPUz2IdmQ4ZMJ89x9F/NOGTCfPcfRfzWP4DbH0rcepnsTgNsfStx6mexDsyHDJhPnuPov5pwyYT57j6L+ax/AbY+lbj1M9icBtj6VuPUz2IdmQ4ZcJ89x9F/Nc8MuEue4+i/msdwG2Ppa4dTPYuOA2ydLXDzWexEMlwy4S57j6L+acMuEue4+i/msbwGWTpa4eaz2JwGWTpa4eaz2IMlwy4S57j6L+acMuEue4+i/msbwGWTpa4eaz2JwGWTpa4eaz2IMlwy4S57j6L+acMuEue4+i/msbwGWTpa4eaz2JwGWTpa4eaz2IMjwy4Sz+NcfRfzXPDJhL59w9F/NY3gMsnS1f5rPYnAZZel7h1M9iDJcMmEvn3D0X804ZMJfPuHov5rG8Bll6XuHUz2JwGWXpe4dTPYgyXDJhL59w9F/NOGTCXz7h6L+axvAZZel7h1M9icBll6XuHUz2IMlwyYS+fcPRfzRY3gMsvS9w6mexEFpIiLscgiIoEax/bvhPAt4pgM39zmVg/aZ3w+4qqdDd/pLTdLrHX1UVNSy0wm3SV+q0FjvvyKs3H2M6LCVoLZIm1FbVNcyGlJ+MOIud+yOLwrW2jpHV1dT0bHRsfNK2NrnnJrS45Ak8g2rG9tTtvjruswvi76Z8O0JdHQQ1Nwe3ZrRt3OPznbSPIorVacrq/W7lstHFzGSR7/VsUqsOga107Wy3u4T1kvG6KD9VGD4/jH1KbUmjbB1EG7jh6iJbxOlZuh63Zqs3lMUrDXm/wCky/4mtsttrO4RTSlpcyCHJ2YOY2kk8aw9orL/AELZWWk1sQmI1xTxOOeXk8K25p7La6XLue20cOX0cDW/cF7BGGjJoA8WxV5p8rajWtNTwzH9bxQ3+Tw7lIB9wXaMK6Q6ka3wbfHZ873D/eW1uS4Lcyk2mfdEUrHs1VGA9IEnHaLr/mmHvL6GjnH547TXeWce8tqNUcw6lzqjmCbn5TqPhqqdHePmjZaK/wAk495fBwNpAi4rTdx+7L/8ltZq/wDGSao5h1Jufk1Hw1SdhzSFSjWNvvzQOYvP3FdRkx9R/GZfowOUwyH8Ftnq5cS4LfCetTFpj3OWvw1KOLsXUZylqqtp/wAemzPrau6LSZiCJ2q99HIeZ8QH3ELa50THDJzQ4HnGf3rxTWK01OfdFsopc/n07D+CnqXjxKk4sc+zW+HSpcGj9fbKWQc7Hub7VkodKtGf9ItdRGedkrXeo5K5arRxg6rz3XDlBmeN0ceoetuSwdXoTwZU57nS1VN/qal3+9mrRmvHupPDYp9kKptI+HZ/jy1MH+shJHWM1l6XE9jrctwu1K4nkL9U+vJfNb/R+tr8zRXysiPIJomSAdWRUdr9Ad+hBNHc7fVgcQka6Nx68x61pHE2hlPBU9p0nEb2yt1o3tkHOxwcPUvrly9SqSp0Z46sxL4rXUOA269FOHfcQV4HX7GVicI6qa4Q6vyKyEkfxD7leOKj3ZzwM/6ZXUiqei0p3SMDumipagcrmZsPqzCz9HpQtM2TaqlqqY8rgBIB1bfUtYz0n3YW4bJHsnKLEUWKLFcMu57pTlx+Q92o7qKywIc0OaQWniI2haRaJ8MZpavmHKINqKVRVfpUoRHcaCuA72SN0LvCWnMeo+pWh41E9ItF3ZhKWYDN9JI2bPwcTvUfUs80bo34a3LlhmMGaScOw4RtdLdLtHT1sEAhkbI13ydgOYB4xkpNFpAwjP8A2eIqA588hH3hURgfBW/SWtgjubKOWla14a6Ev12kkbMiOIqVS6DLpxRXuieP24nt+7Nea9lbkOJbFU5bjerc/PiyqWZ9WayMc8MwzimjkHOx4d9xVBTaEsTR5mOotk3NqyOb97QvBJoqxrRnWitzXnnp6ppP3hENkDmBtBHhIIXGfhWtQotI1jObYsQU4HKxz3gdRK7oNKGNbW4NqK0yZfIraYbfLkD60Gx6Kkrfp0rmaouNlp5hyvp5TGcvE7MKXWzTDhWv1W1EtTQPPJURZtz/AHm5oJ+i8lvulBdYt0t9bT1bOeCQPy8YG0L2caDhERAREQEREBERAREQEREBERAREQEREBERAREXY5BERRJPhrLpFrJ7hpEuraiQlsM4p4wOJrAAAAvrSZZaLDWLnUNsYYoI6SJ7QTmdYNG3PnJ2nwlEXLPl2U/K2hstRJV2K31Mpzlmpo5HkcpLQSvciKFXKIiJEREBERAREQEREBERARERAuDxoiJcZDmXy+KOVhZIxr2njDhmERShHLpgPCt2P9csNE9zuN7I9zd1tyKrrG2iXDVptk1dQuroXtaXBm7Bzf4gT60RRpePKjSMyc9uXPtXrobrcKA61HXVEBHIyQgdXEiKazO0ZKx8JXYdIN9krmU1TJBUNOzWkjyd1tIVsROL4mOPGWg7ERehi8PHzxEW7OZXFkTnDIkDPaoNiTEtW2hqaQwUzopYnRu1muzyI/eRFe3iWeL88MPoankix+yNru9mo5Q/w5AOHrC2IRF5k+XtQcoCAAg5hEUEGeXFsXVPTQVUerUQRTNPJJGHfeEREo5W6OcJXVzhNZaeJ5+XT5xH+E5KnNImDLbhWdnwfLVOa92RbM8OyHUCiIlCKaompZ2S000kMgOx8Ti0jyhWlo00g4iuGJqSy3CrbV0sjSdaZgMjcgTscNvJy5oiIXhyeIkIiICIiAiIgIiICIiAiIgIiICIiAiIgIiIP//Z;" vertex="1" parent="1">
          <mxGeometry x="337" y="122" width="70" height="70" as="geometry" />
        </mxCell>
        <mxCell id="eVdIeHZePJZGgRpQu2_--8" value="RD" style="text;html=1;resizable=0;autosize=1;align=center;verticalAlign=middle;points=[];fillColor=none;strokeColor=none;rounded=0;" vertex="1" parent="1">
          <mxGeometry x="377" y="122" width="30" height="20" as="geometry" />
        </mxCell>
        <mxCell id="eVdIeHZePJZGgRpQu2_--34" style="edgeStyle=orthogonalEdgeStyle;curved=1;rounded=0;sketch=1;jumpStyle=none;jumpSize=5;orthogonalLoop=1;jettySize=auto;html=1;exitX=0;exitY=1;exitDx=0;exitDy=0;entryX=0.5;entryY=0;entryDx=0;entryDy=0;shadow=0;endArrow=open;endFill=0;endSize=12;strokeColor=#808080;strokeWidth=2;" edge="1" parent="1" source="eVdIeHZePJZGgRpQu2_--16" target="eVdIeHZePJZGgRpQu2_--33">
          <mxGeometry relative="1" as="geometry">
            <Array as="points">
              <mxPoint x="252" y="450" />
              <mxPoint x="210" y="450" />
            </Array>
          </mxGeometry>
        </mxCell>
        <mxCell id="eVdIeHZePJZGgRpQu2_--16" value="HCM SpreadJS&lt;br&gt;&amp;nbsp;SDK" style="ellipse;whiteSpace=wrap;html=1;aspect=fixed;strokeColor=#FFD966;strokeWidth=4;fillColor=#FFFF33;gradientColor=none;" vertex="1" parent="1">
          <mxGeometry x="237" y="352" width="100" height="100" as="geometry" />
        </mxCell>
        <mxCell id="eVdIeHZePJZGgRpQu2_--28" style="edgeStyle=orthogonalEdgeStyle;curved=1;rounded=0;sketch=1;jumpStyle=none;jumpSize=5;orthogonalLoop=1;jettySize=auto;html=1;entryX=1;entryY=0;entryDx=0;entryDy=0;shadow=0;endArrow=open;endFill=0;endSize=12;strokeColor=#808080;strokeWidth=2;" edge="1" parent="1" source="eVdIeHZePJZGgRpQu2_--17" target="eVdIeHZePJZGgRpQu2_--16">
          <mxGeometry relative="1" as="geometry" />
        </mxCell>
        <mxCell id="eVdIeHZePJZGgRpQu2_--17" value="Data源" style="rounded=1;whiteSpace=wrap;html=1;strokeWidth=2;fillColor=#3c7388;strokeColor=#006666;" vertex="1" parent="1">
          <mxGeometry x="322" y="252" width="100" height="50" as="geometry" />
        </mxCell>
        <mxCell id="eVdIeHZePJZGgRpQu2_--26" value="" style="endArrow=open;html=1;strokeColor=#808080;strokeWidth=2;endFill=0;endSize=12;jumpSize=5;jumpStyle=none;shadow=0;sketch=1;" edge="1" parent="1">
          <mxGeometry width="50" height="50" relative="1" as="geometry">
            <mxPoint x="371.5" y="202" as="sourcePoint" />
            <mxPoint x="371.5" y="242" as="targetPoint" />
          </mxGeometry>
        </mxCell>
        <mxCell id="eVdIeHZePJZGgRpQu2_--30" value="SpreadJS设计器" style="rounded=1;whiteSpace=wrap;html=1;strokeWidth=2;fillColor=#3c7388;strokeColor=#006666;" vertex="1" parent="1">
          <mxGeometry x="20.00000000000003" y="190" width="100" height="50" as="geometry" />
        </mxCell>
        <mxCell id="eVdIeHZePJZGgRpQu2_--32" value="" style="endArrow=open;html=1;strokeColor=#808080;strokeWidth=2;endFill=0;endSize=12;jumpSize=5;jumpStyle=none;shadow=0;sketch=1;" edge="1" parent="1" source="eVdIeHZePJZGgRpQu2_--5">
          <mxGeometry width="50" height="50" relative="1" as="geometry">
            <mxPoint x="160" y="200" as="sourcePoint" />
            <mxPoint x="160" y="250" as="targetPoint" />
            <Array as="points">
              <mxPoint x="120" y="220" />
            </Array>
          </mxGeometry>
        </mxCell>
        <mxCell id="eVdIeHZePJZGgRpQu2_--38" style="edgeStyle=orthogonalEdgeStyle;curved=1;rounded=0;sketch=1;jumpStyle=none;jumpSize=5;orthogonalLoop=1;jettySize=auto;html=1;entryX=0.5;entryY=0;entryDx=0;entryDy=0;shadow=0;endArrow=open;endFill=0;endSize=12;strokeColor=#808080;strokeWidth=2;" edge="1" parent="1" source="eVdIeHZePJZGgRpQu2_--33" target="eVdIeHZePJZGgRpQu2_--35">
          <mxGeometry relative="1" as="geometry">
            <Array as="points">
              <mxPoint x="290" y="505" />
              <mxPoint x="290" y="460" />
              <mxPoint x="372" y="460" />
            </Array>
          </mxGeometry>
        </mxCell>
        <mxCell id="eVdIeHZePJZGgRpQu2_--40" style="edgeStyle=orthogonalEdgeStyle;curved=1;rounded=0;sketch=1;jumpStyle=none;jumpSize=5;orthogonalLoop=1;jettySize=auto;html=1;exitX=0.5;exitY=1;exitDx=0;exitDy=0;entryX=0.5;entryY=0;entryDx=0;entryDy=0;shadow=0;endArrow=open;endFill=0;endSize=12;strokeColor=#808080;strokeWidth=2;" edge="1" parent="1" source="eVdIeHZePJZGgRpQu2_--33" target="eVdIeHZePJZGgRpQu2_--39">
          <mxGeometry relative="1" as="geometry" />
        </mxCell>
        <mxCell id="eVdIeHZePJZGgRpQu2_--33" value="SpreadJS配置" style="rounded=1;whiteSpace=wrap;html=1;strokeWidth=2;fillColor=#3c7388;strokeColor=#006666;" vertex="1" parent="1">
          <mxGeometry x="159.47000000000003" y="480" width="100" height="50" as="geometry" />
        </mxCell>
        <mxCell id="eVdIeHZePJZGgRpQu2_--41" style="edgeStyle=orthogonalEdgeStyle;curved=1;rounded=0;sketch=1;jumpStyle=none;jumpSize=5;orthogonalLoop=1;jettySize=auto;html=1;exitX=0.5;exitY=1;exitDx=0;exitDy=0;entryX=0.5;entryY=0;entryDx=0;entryDy=0;shadow=0;endArrow=open;endFill=0;endSize=12;strokeColor=#808080;strokeWidth=2;" edge="1" parent="1" source="eVdIeHZePJZGgRpQu2_--35" target="eVdIeHZePJZGgRpQu2_--39">
          <mxGeometry relative="1" as="geometry" />
        </mxCell>
        <mxCell id="eVdIeHZePJZGgRpQu2_--35" value="SpreadJS数据绑定" style="rounded=1;whiteSpace=wrap;html=1;strokeWidth=2;fillColor=#3c7388;strokeColor=#006666;" vertex="1" parent="1">
          <mxGeometry x="322" y="480" width="100" height="50" as="geometry" />
        </mxCell>
        <mxCell id="eVdIeHZePJZGgRpQu2_--39" value="合成SpreadJS" style="rounded=1;whiteSpace=wrap;html=1;strokeWidth=2;fillColor=#3c7388;strokeColor=#006666;" vertex="1" parent="1">
          <mxGeometry x="237" y="590" width="100" height="50" as="geometry" />
        </mxCell>
        <mxCell id="eVdIeHZePJZGgRpQu2_--80" value="" style="group" vertex="1" connectable="0" parent="1">
          <mxGeometry x="500" y="112" width="402" height="528" as="geometry" />
        </mxCell>
        <mxCell id="eVdIeHZePJZGgRpQu2_--82" style="edgeStyle=orthogonalEdgeStyle;curved=1;rounded=0;sketch=1;jumpStyle=none;jumpSize=5;orthogonalLoop=1;jettySize=auto;html=1;shadow=0;endArrow=open;endFill=0;endSize=12;strokeColor=#808080;strokeWidth=2;" edge="1" parent="eVdIeHZePJZGgRpQu2_--80" source="eVdIeHZePJZGgRpQu2_--62" target="eVdIeHZePJZGgRpQu2_--76">
          <mxGeometry relative="1" as="geometry" />
        </mxCell>
        <mxCell id="eVdIeHZePJZGgRpQu2_--62" value="需求&amp;amp;UI" style="rounded=1;whiteSpace=wrap;html=1;strokeWidth=2;fillColor=#3c7388;strokeColor=#006666;" vertex="1" parent="eVdIeHZePJZGgRpQu2_--80">
          <mxGeometry x="139.47000000000003" y="140" width="100" height="50" as="geometry" />
        </mxCell>
        <mxCell id="eVdIeHZePJZGgRpQu2_--63" value="" style="shape=image;imageAspect=0;aspect=fixed;verticalLabelPosition=bottom;verticalAlign=top;strokeWidth=2;fillColor=#66B2FF;gradientColor=none;image=data:image/jpeg,/9j/4AAQSkZJRgABAQIAHAAcAAD/4gxYSUNDX1BST0ZJTEUAAQEAAAxITGlubwIQAABtbnRyUkdCIFhZWiAHzgACAAkABgAxAABhY3NwTVNGVAAAAABJRUMgc1JHQgAAAAAAAAAAAAAAAAAA9tYAAQAAAADTLUhQICAAAAAAAAAAAAAAAAAAAAAAAAAAAAAAAAAAAAAAAAAAAAAAAAAAAAAAAAAAAAAAABFjcHJ0AAABUAAAADNkZXNjAAABhAAAAGx3dHB0AAAB8AAAABRia3B0AAACBAAAABRyWFlaAAACGAAAABRnWFlaAAACLAAAABRiWFlaAAACQAAAABRkbW5kAAACVAAAAHBkbWRkAAACxAAAAIh2dWVkAAADTAAAAIZ2aWV3AAAD1AAAACRsdW1pAAAD+AAAABRtZWFzAAAEDAAAACR0ZWNoAAAEMAAAAAxyVFJDAAAEPAAACAxnVFJDAAAEPAAACAxiVFJDAAAEPAAACAx0ZXh0AAAAAENvcHlyaWdodCAoYykgMTk5OCBIZXdsZXR0LVBhY2thcmQgQ29tcGFueQAAZGVzYwAAAAAAAAASc1JHQiBJRUM2MTk2Ni0yLjEAAAAAAAAAAAAAABJzUkdCIElFQzYxOTY2LTIuMQAAAAAAAAAAAAAAAAAAAAAAAAAAAAAAAAAAAAAAAAAAAAAAAAAAAAAAAAAAAAAAAAAAWFlaIAAAAAAAAPNRAAEAAAABFsxYWVogAAAAAAAAAAAAAAAAAAAAAFhZWiAAAAAAAABvogAAOPUAAAOQWFlaIAAAAAAAAGKZAAC3hQAAGNpYWVogAAAAAAAAJKAAAA+EAAC2z2Rlc2MAAAAAAAAAFklFQyBodHRwOi8vd3d3LmllYy5jaAAAAAAAAAAAAAAAFklFQyBodHRwOi8vd3d3LmllYy5jaAAAAAAAAAAAAAAAAAAAAAAAAAAAAAAAAAAAAAAAAAAAAAAAAAAAAAAAAAAAAABkZXNjAAAAAAAAAC5JRUMgNjE5NjYtMi4xIERlZmF1bHQgUkdCIGNvbG91ciBzcGFjZSAtIHNSR0IAAAAAAAAAAAAAAC5JRUMgNjE5NjYtMi4xIERlZmF1bHQgUkdCIGNvbG91ciBzcGFjZSAtIHNSR0IAAAAAAAAAAAAAAAAAAAAAAAAAAAAAZGVzYwAAAAAAAAAsUmVmZXJlbmNlIFZpZXdpbmcgQ29uZGl0aW9uIGluIElFQzYxOTY2LTIuMQAAAAAAAAAAAAAALFJlZmVyZW5jZSBWaWV3aW5nIENvbmRpdGlvbiBpbiBJRUM2MTk2Ni0yLjEAAAAAAAAAAAAAAAAAAAAAAAAAAAAAAAAAAHZpZXcAAAAAABOk/gAUXy4AEM8UAAPtzAAEEwsAA1yeAAAAAVhZWiAAAAAAAEwJVgBQAAAAVx/nbWVhcwAAAAAAAAABAAAAAAAAAAAAAAAAAAAAAAAAAo8AAAACc2lnIAAAAABDUlQgY3VydgAAAAAAAAQAAAAABQAKAA8AFAAZAB4AIwAoAC0AMgA3ADsAQABFAEoATwBUAFkAXgBjAGgAbQByAHcAfACBAIYAiwCQAJUAmgCfAKQAqQCuALIAtwC8AMEAxgDLANAA1QDbAOAA5QDrAPAA9gD7AQEBBwENARMBGQEfASUBKwEyATgBPgFFAUwBUgFZAWABZwFuAXUBfAGDAYsBkgGaAaEBqQGxAbkBwQHJAdEB2QHhAekB8gH6AgMCDAIUAh0CJgIvAjgCQQJLAlQCXQJnAnECegKEAo4CmAKiAqwCtgLBAssC1QLgAusC9QMAAwsDFgMhAy0DOANDA08DWgNmA3IDfgOKA5YDogOuA7oDxwPTA+AD7AP5BAYEEwQgBC0EOwRIBFUEYwRxBH4EjASaBKgEtgTEBNME4QTwBP4FDQUcBSsFOgVJBVgFZwV3BYYFlgWmBbUFxQXVBeUF9gYGBhYGJwY3BkgGWQZqBnsGjAadBq8GwAbRBuMG9QcHBxkHKwc9B08HYQd0B4YHmQesB78H0gflB/gICwgfCDIIRghaCG4IggiWCKoIvgjSCOcI+wkQCSUJOglPCWQJeQmPCaQJugnPCeUJ+woRCicKPQpUCmoKgQqYCq4KxQrcCvMLCwsiCzkLUQtpC4ALmAuwC8gL4Qv5DBIMKgxDDFwMdQyODKcMwAzZDPMNDQ0mDUANWg10DY4NqQ3DDd4N+A4TDi4OSQ5kDn8Omw62DtIO7g8JDyUPQQ9eD3oPlg+zD88P7BAJECYQQxBhEH4QmxC5ENcQ9RETETERTxFtEYwRqhHJEegSBxImEkUSZBKEEqMSwxLjEwMTIxNDE2MTgxOkE8UT5RQGFCcUSRRqFIsUrRTOFPAVEhU0FVYVeBWbFb0V4BYDFiYWSRZsFo8WshbWFvoXHRdBF2UXiReuF9IX9xgbGEAYZRiKGK8Y1Rj6GSAZRRlrGZEZtxndGgQaKhpRGncanhrFGuwbFBs7G2MbihuyG9ocAhwqHFIcexyjHMwc9R0eHUcdcB2ZHcMd7B4WHkAeah6UHr4e6R8THz4faR+UH78f6iAVIEEgbCCYIMQg8CEcIUghdSGhIc4h+yInIlUigiKvIt0jCiM4I2YjlCPCI/AkHyRNJHwkqyTaJQklOCVoJZclxyX3JicmVyaHJrcm6CcYJ0kneierJ9woDSg/KHEooijUKQYpOClrKZ0p0CoCKjUqaCqbKs8rAis2K2krnSvRLAUsOSxuLKIs1y0MLUEtdi2rLeEuFi5MLoIuty7uLyQvWi+RL8cv/jA1MGwwpDDbMRIxSjGCMbox8jIqMmMymzLUMw0zRjN/M7gz8TQrNGU0njTYNRM1TTWHNcI1/TY3NnI2rjbpNyQ3YDecN9c4FDhQOIw4yDkFOUI5fzm8Ofk6Njp0OrI67zstO2s7qjvoPCc8ZTykPOM9Ij1hPaE94D4gPmA+oD7gPyE/YT+iP+JAI0BkQKZA50EpQWpBrEHuQjBCckK1QvdDOkN9Q8BEA0RHRIpEzkUSRVVFmkXeRiJGZ0arRvBHNUd7R8BIBUhLSJFI10kdSWNJqUnwSjdKfUrESwxLU0uaS+JMKkxyTLpNAk1KTZNN3E4lTm5Ot08AT0lPk0/dUCdQcVC7UQZRUFGbUeZSMVJ8UsdTE1NfU6pT9lRCVI9U21UoVXVVwlYPVlxWqVb3V0RXklfgWC9YfVjLWRpZaVm4WgdaVlqmWvVbRVuVW+VcNVyGXNZdJ114XcleGl5sXr1fD19hX7NgBWBXYKpg/GFPYaJh9WJJYpxi8GNDY5dj62RAZJRk6WU9ZZJl52Y9ZpJm6Gc9Z5Nn6Wg/aJZo7GlDaZpp8WpIap9q92tPa6dr/2xXbK9tCG1gbbluEm5rbsRvHm94b9FwK3CGcOBxOnGVcfByS3KmcwFzXXO4dBR0cHTMdSh1hXXhdj52m3b4d1Z3s3gReG54zHkqeYl553pGeqV7BHtje8J8IXyBfOF9QX2hfgF+Yn7CfyN/hH/lgEeAqIEKgWuBzYIwgpKC9INXg7qEHYSAhOOFR4Wrhg6GcobXhzuHn4gEiGmIzokziZmJ/opkisqLMIuWi/yMY4zKjTGNmI3/jmaOzo82j56QBpBukNaRP5GokhGSepLjk02TtpQglIqU9JVflcmWNJaflwqXdZfgmEyYuJkkmZCZ/JpomtWbQpuvnByciZz3nWSd0p5Anq6fHZ+Ln/qgaaDYoUehtqImopajBqN2o+akVqTHpTilqaYapoum/adup+CoUqjEqTepqaocqo+rAqt1q+msXKzQrUStuK4trqGvFq+LsACwdbDqsWCx1rJLssKzOLOutCW0nLUTtYq2AbZ5tvC3aLfguFm40blKucK6O7q1uy67p7whvJu9Fb2Pvgq+hL7/v3q/9cBwwOzBZ8Hjwl/C28NYw9TEUcTOxUvFyMZGxsPHQce/yD3IvMk6ybnKOMq3yzbLtsw1zLXNNc21zjbOts83z7jQOdC60TzRvtI/0sHTRNPG1EnUy9VO1dHWVdbY11zX4Nhk2OjZbNnx2nba+9uA3AXcit0Q3ZbeHN6i3ynfr+A24L3hROHM4lPi2+Nj4+vkc+T85YTmDeaW5x/nqegy6LzpRunQ6lvq5etw6/vshu0R7ZzuKO6070DvzPBY8OXxcvH/8ozzGfOn9DT0wvVQ9d72bfb794r4Gfio+Tj5x/pX+uf7d/wH/Jj9Kf26/kv+3P9t////2wBDAAwICQoJBwwKCQoNDAwOER0TERAQESMZGxUdKiUsKyklKCguNEI4LjE/MigoOk46P0RHSktKLTdRV1FIVkJJSkf/2wBDAQwNDREPESITEyJHMCgwR0dHR0dHR0dHR0dHR0dHR0dHR0dHR0dHR0dHR0dHR0dHR0dHR0dHR0dHR0dHR0dHR0f/wAARCAHUAoADASIAAhEBAxEB/8QAHAABAAEFAQEAAAAAAAAAAAAAAAYBAwQFBwII/8QAThABAAIBAgIFBggJCQcEAwAAAAECAwQRBRIGITFBURMiYXGBkQcUFTJSobHBQlNicpKUstHSIzU2Q3SDwuHwFiQzRVWjszQ3ovFjgpP/xAAaAQEBAQEBAQEAAAAAAAAAAAAAAQMEAgUG/8QAJhEBAQACAQMEAgIDAAAAAAAAAAECEQMSITEEEzJRIkEFM0Jhcf/aAAwDAQACEQMRAD8A6qAAAAAAAAAAAAAAAAAAAAAAAAAAAAAAAAAAAAAAAAAAAAAAAAAAAAAAAAAAAAAAAAAAAAAAAAAAAAAAAAAAAAAAAAAAAAAAAAAAAAAAAAAAAAAAAAAAAAAAAAAAAAAAAAAAAAAAAAAAAAAAAAAAAAAAAAAAAAAAAAAAAAAAAAAAAAAAAAAAAAAAAAAAAAAAAAAAAAAAAAAAAAAAAAAAAAAAAAAAAAAAAAAAAAAAAAAAAAAAAAAAAAAAAAAAAAAAAAAAAAAAAAAAAAAAAAAAAAAAAAAAAAAAAAAAAAAAAAAAAAAAAAAAAAAAAAAAAAAAAAAAAAAAAAAAAAAAAAAAAAAAAAAAAAAAAAAAAAAAAAAAAAAAAAAAAAAAAAAAAAAAAAAAAAAAAAAAAAAAAAAAAAAAAAAAAAAAAAAAAAAAAAAAAAAAAAAAAAAAAAAAAAAAAAAAAAAAAAAAAAAAAAAAAAAAAAAAAAAAAAAAAAAAAAAAAAAAAAAAAAAAAAAAAAAAAAAANfxPjfDOE8scQ1mPDa221Ou1tuvr5Y3nbqnr7ET4j8I9IrNeF6G0zMRtk1M7bTv1+bWevq9MfvCeDkPEOmXHddGSvx2dNjvt5mnrFOXbbst86Ozx+potZm1Wtyxl1eqzajJEcsWzXm0xHhvPrldLp2zJxvhGLLbFl4roqZKTNbVtqKRNZjtiY36paz/bno1/1L/sZP4XHZpaO55NGnXs/T7gdMuLFpZ1WuyZZ5Yrp8E779W0bW23md+rbdn6Tj+XWc/kuA8Xrybb+WxY8Xb4c9437O5xfS6nNpNVj1OmvOPLitF6WiN9pid4b3/bnpL/ANS/7GP+EHX9PkvmwVyZMGTBad98eSazaOvv5ZmPrXXG/wDbnpL/ANS/7GP+Fe0vwgdIcGWb5dRh1UTG3Jlw1iI9Pm7Tv7e9EdeHNNJ8Jutpz/HeG6fNvty+RvbHt47782/d4N7oPhF4JqNq6qNRo7cm9pvTnrzdW8RNd5n1zEdncCXCxpdZpdbinLo9Th1GOJ5ZtivF4ifDeO/rhfAAAAAAAAAAAAAAAAAAAAAAAAAAAAAAAAAAAAAAAAAAAAAAAAAAAAAAAAAAAAAAABZ1eqwaLS5NTq8tcWHHG9r27v8AXgDzrtdpeH6adRrdRjwYo/CvO287b7R4z1T1R1uecf6eazWWth4RFtJp5jbylojytuqd++Yr293X1b79zRdIOOarjuvnUameTHXeMWGJ3rjj758Z7/VtEatVesmS+XJbJlva97zNrWtO82me2Zl5AAABSa1t2wqAtWw/Rn3rcxMT1xsySYiY2mAYou3xd9fct9naCgALun1GfS565tNmyYctd+W+O01tHVt1TCT8H+EDjGhtWmtmuvwREV5cnm3jaJ7LRHXPZvMxO+3tRMB23gnSnhPG9qaTUcmef6jN5t+/sjsnqjfqmdo7dm5fPKX9HOnnEOHXjDxKcnENNO0edb+Up17zMTPzuqZ6pnw64NDq4wOD8Y0PGdJXUaDPW8bRN8czHPj336rR3T1T69urdnogAAAAAAAAAAAAAAAAAAAAAAAAAAAAAAAAAAAAAAAAAAAAAAAAAAAAAAAADzkyUxY7ZMt60pSJta1p2isR2zMgZMlMWO2TLetKUibWtadorEdszLmnT3pHh4pmx6DQ359Np7za+SNuXJfsjb0R19ffv6ImcXpT0uz8cr8W09LabRRO805t7Zevqm31dXj3z1bRpVAAAAAAAAAAHm9ItHX2+L0Ax7Vms7S8sm0RaNpWL1mkg8j1MdXNHZLyAADP4PxPUcL1sajS58mnybTXylIi3VPjWeq0eifCJ7ncdHOqnSY/j1cNdRt/KRhtM038Y3iJ9nd6e18/p30G6Z/FPJ8K4vl/3f5uDPaf+F4VtP0fCe71dgdLARAAAAAAAAAAAAAAAAAAAAAAAAAAAAAAAAAAAAAAAAAAAAAAAAAAAAAABzTp90ivrNbfhWky2jS4J5c0bbc+SJ649MR1e3eevqlLumPG54JwacmC9Y1eaeTDExE7eNtp8I9fXMbuQKoAAAAAAAAAAAAAATEWjaQBZiOW00t2S8WrNbbSyL15o9Pc8XrzUie+AWQAAAdW+D3pLfi2ktw/XZbZNbp45q3mvXfH1RvM99omdp8d47Z3lMHBuDcRy8J4vptfhje2G+816vOr2WjsnbeJmN+7d3TTZ8Wq02LUYLc+LLSL0ttMb1mN4nrRF0AAAAAAAAAAAAAAAAAAAAAAAAAAAAAAAAAAAAAAAAAAAAAAAAAAAAFnWammj0WfVZYtNMGO2S0V7ZiI3nb3A5d0+4nHEOkV8OK1pxaSPIxG87TeJ86dp7Ovq9PLCNLmoz5NTqcuoz25suW83vbaI3mZ3mepbVQAAGbwrheq4rqfI6Wm+3zrz82kemTelk2whOdT0K09eE2ppslr62POjJadotP0du6EIyUviyWx5KzW9Z2tWY2mJeccpl4XLG4+XkB6eQAAAAAAAAAFjJXlt6Hhfy13rv4LAAADqnwYcT+NcCyaC1draK/VMR1TW8zMd/bvzeHVs5Wk3wd634n0twUm2OtNTS2G03nbtjeNvTNq1j2g7AAiAAAAAAAAAAAAAAAAAAAAAAAAAAAAAAAAAAAAAAAAAAAAAAAAAACPdPNVGm6KamPK2x3zzXFTl387ed5jq8axb7EhQv4UNTSvCdHpZi3Pkzzkie7atZif24+sHNwFUBd0uny6vU49PgrzZMluWsCsvgvCc/F9bGDD5tI68mSY6qR+/wBDpnDtBp+G6Sum0tOWkds99p8Z9K1wXheHhPD6afFtNu3Jfb59vFnubPPqrpww6YIx0t6O/HqTrtFT/eax59I/rI/f9qTjzLZdx6slmq41MbTtKicdLOjXl+fiHDqfyvblxVj53pj0+jv+2DurHKZRy5Y3G6Bmzp/jWhtqsMb5MO0Z6R4d1/un09fewlQAEAAAAAAGNaOW0wyVrNHXEgtAAL+i1N9FrsGrxRWcmDJXJWLdkzWd439HUsAPoYazozkpl6McMtjvW8RpcdZms7xvFYiY9cTEx7GzRAAAAAAAAAAAAAAAAAAAAAAAAAAAAAAAAAAAAAAAAAAAAAAAAAABAfhU/wCV/wB7/gT5AfhU/wCV/wB7/gBAQFUTjoLwmMeC3E81fPyb1w791e+fb2f/AGiPDNHfiHEcGkp25LbTPhHfPu3dZw4qYMNMOKsVpSsVrEd0Qy5MtTTbix3dvYDB0AACJ9KOi8arn1vDaRGbtyYo7L+mPT9v2ywWWy7jzljMpquR6DV5eHa6uatd5rM1vjtHVaOyazDO41wzHixY+I8O3voM/XXxxW76yl3SLozh4pE6jTcuHV7dv4OT1/vRjhGsycF1mXhvF8E/FM3m5sd435fyo/y+5vMt94wuOu1aAbjpBwO/Cs0ZcM+V0eXrxZY6/ZP+utp2ku+8Z2a7UAEAAAAHnLG9J9D0TG8bAxRVQAAHZPg//oVoP7z/AMlkiRf4ONTTP0Qw4qRaJ0+S+O+/ZMzPP1eja0fWlCIAAAAAAAAAAAAAAAAAAAAAAAAAAAAAAAAAAAAAAAAAAAAAAAAAAID8Kn/K/wC9/wACfIP8KOmvbRaDVRNeTHkvjmO/e0RMfsT9QOdgKqYfB/oebLqNfePmx5Kk+ntn7vemzV9GdJ8T4Bpccxta1PKW9duv90extHLnd114TWIIpx/pfGj1F9Lw6lMmSk7Xy366xPfER3o5fpRxq9+b49aPRFKxH2LOO1LySOnCAaDptr8MxXW46amnfMRyW+rq+pK+F9IOHcT2rhzcmWf6rJ5tvZ4+xLhYszlbQB5exhcU4XpOK6fyWrx823zbx1Wr6pZoeEs2jmk0Go4dhvwziFfjvC8nVTLt14vRaO6PTHZ6O6K9IuAZuD5+em+TS3nzMnh6J9P2umreowYtTgvhz465Md42tW0dUvczsrxlhLNOOjf9JOjeXhV51Gn5sujme3vx+if3tA6JZZuOayy6oAqAAAAMe8bXn1vL3l+e8AAA7J8H/wDQrQf3n/kskSO/B/8A0K0H95/5LJEiAAAAAAAAAAAAAAAAAAAAAAAAAAAAAAAAAAAAAAAAAAAAAAAAAACKfCTgyZejNb4671w6il7zvHVG1q7++0e9K2m6Y6a+q6Ka/HjmsTXHGTzvCkxafqrIOOL+iwTqtdg08f1uStPfOyw3PRDD5bpJpd+ynNefZE7fXsW6m3qTd06ZWIrWK1jaIjaIVarj/HdNwPSxkzROTLfqx4qztNv3R6UNt0541mvM6fT4K1jujHa23rndzTG11ZZzHs0urw5NPq8uHNv5Sl5rbfx3Wm2y9JOJ5ss5M3DdFkvPba2k3mfas5ONazJHn8I0HrjSbT9To3XN2a9XsesufNk3mOHY8cz30pf96xtqfxN/0JXbykfCelnENBy481vjWCPwck+dHqt+/dNOE8d0HFaxGny8uXbrxX6rR+/2OUbar8Tf9CTn1OK0X5L0mJ3idpjZ4ywlaY8ljtQ5roOm3FtFFMerx01NI78kTW8x6/8AJPOD8V03F9DXVaW07b7WrPbSfCWOWNjfHOZeGcC1qM+LS6fJnz3imLHXmtae6Hl7e71rek0vWLVtG0xMbxMIH0r6N4uH1nW6O9KYbT52K1tpifyd+31KcQ6favJnmnC9Ljrj32rbLE2tb07RPV9aNa3XcQ12pnJq7ZMuWfpRPV6o7m2GNlc+eeNmnkeKxqN/OwX29FJXJiY+dExPhMbNmKgAAALOb50epbXc/wA6FoAF3TYMuq1OLT4K8+XLeKUrvEb2mdojrB27ozjpi6McMrjpWkTpcdpisbRvNYmZ9czMz7WzeceOmLFXFipWmOkRWtaxtFYjsiI7oekQAAAAAAAAAAAAAAAAAAAAAAAAAAAAAAAAAAAAAAAAAAAAAAAAAAWdZpqazRZ9Llm0Uz47Y7TXtiJjadvevAOBpP0Ax83Gs15/AwT75mP82v6Xab4p0q4hi5+fmyzk322+fHPt7Obb2MHg3HtVwbVZMumpiyReOW1ckT2b+iUy7x7xsl3W06WROv6c00eW08nNiwx6IttM/tS6JptPh0uCmDT4648dI2rWsbRDlteI24t0y0mutijFOTU4d6xO+201j7nV2OfaSNuPvbQBm2Bh8S4npOGYPK6zLFInqrWOu1p9ENPg6bcLyZopfHqMVZn59qxMR69pmVmNvh5uUnlJB4xZKZsdcmK9b0tG9bVneJh7R6YnFNBg4loMum1NK2ras7TMddZ7pj0oR8G2e8cU1WnifMvh55j0xaI/xS6Db5s+pzn4N/5+1H9mt+1V7x+NZZ/KOjor8Iue+PgGPHSdoy54i3piImdvfEe5KkR+En+Z9L/aP8Mph8o9Z/GsroLoMGn6P4dVXHXy+o5rXvt17bzER6upJGl6Hf0V0P5tv2pbpMvNXH4wYXE+F6Timn8lq8UW2+beOq1fVLNari3SHh/CbeTz3tfN2+TxxvMevugm99lutd0K430Y1vC5tlpE6jTR/WVjrrH5Ud3r7GjdJ4b0r4Zr80YJm+DJbqrGWIiLT4bxP2rXGeiWj182y6WY0ueevzY8y0+mO72NpnZ2yYXjl74udjP4nwfXcLvtq8MxXfaMleus+1gNZdsrNLWf50LS5m+dHqWxBveg+i+PdLdDSa5Jpiv5a00j5vJG8b+Ec0Vj2tE6D8FPD5nLreJ2i0RERp8c7xtO+1rdXbvG1PfPsDooCIAAAAAAAAAAAAAAAAAAAAAAAAAAAAAAAAAAAAAAAAAAAAAAAAAAKWtFazaeyI3VWdVO2nt17b9SW6iybunOulXRrWajid9doMflozzvekTETW3fPX3Sy+GdC9B8l1pxPBzam0za1qXmOT0Rt1SlQw67rTq9vHe3LM/D8PC+nWn0Wnte2PHqsPLN5iZ6+WfvdTc345/7l4/7Tp/so6QZ/pOPzRSZiI3nsgY3E7TXhWrtX50YLzHr5ZeGqLaHhNummu12ty6ycGLDbyeGsV5to7urf/W8ohqMVsGoyYbTEzjvNZmOydp2XNLrdXo+f4pqc2Dnja/k7zXmj07LDsk04rd1L+gXE7xmycNy2maWib4t+6e+Pv8AYmrmPRSbV6S6Oa9vNMezll05z8k1k6eK7xLfNn1ONcL0vENXqLY+GVy2yxTe0Y7cs8u8ffs7Jb5s+pzr4N/5+1H9mt+1Uwupa88k3ZGH8i9KfxOs/wD6/wCbC4poOMaTBS/E8eeuObbV8pfmjfb1uwIj8JP8z6X+0f4ZXHO26ecuOSbbTod/RXQ/m2/aluml6Hf0V0P5tv2pblnl5rbH4xh8Y10cN4Vn1e0TOOvmxPfaeqPrlEK9F8mt6L5eP5tdzZ7VtmmkxvExEzvvPj1fc3PTuZjgERXsnNWJ9W0oJXW6uujnR11OaNNad5xReeWZ9TbinbbHlvfTHdJ6H8TvxHg8VzW5s2CeS0z2zHdP+vBzdL/g8m0ZtdX8Ga0mfXvK8k/F547rJNMlKZKTTJSt6Wjaa2jeJR3ifQ3Qare+jmdJknujrpPs7vYkYwmVnh03GXy4/wAa4dn4XxGdJqZrN4rExNJ3iYlgJR03/phh/Mx/bKbcQ4DwviO86rR45vP9ZWOW3vjtb+5qTbn6N26chdV+DattJ0biM0bRqM1stZ8I2iv+Fr69AuGRqIvOfU2xxO/k5mOv0b7JRix0w4qYsVYpSkRWtY7IiO55y5PpceL7bkWtNMzp6TPqXWku5tjZq6AFQAAAAAAAAAAAAAAAAAAAAAAAAAAAAAAAAAAAAAAAAAAAAAAAAWNZXfBM79kxK+83rF6TW3ZKWbmlxurtqxW9Zpea27YUcrtc345/7l4/7Tp/so6O5t0pt8S6fU1WaJjHGTDl9dY2if2ZdHx5KZcdcmK0XpaN62rO8TD3n4jPj816eb0rkx2peN62iYmPQ9KM2rknENHk0GvzaXLE82O0xv4x3T7YY+zpnHeAabjFYva3ktRWNq5IjfePCY72gw9B885o8vrMUY9+uaVmZn3umck13c147vssdBdDbNxW2stH8ngrMRP5U9X2bp8xtBosHD9JTTaWnLjr75nxn0shjnl1XbfDHpmi3zZ9TnXwb/z9qP7NP7VU+12qxaLRZdTntFaY6zMzPf6EE+DfFaeL6rLEebXByzPpm0TH2SuPxrxn8o6GiPwk/wAzaX+0f4ZS5FPhGxWvwLDkrG8U1Ec3oiYmEw+UeuT41suh39FdD+bb9qW5R/oPqsWo6NYMVLxOTBNqZK98edMx9UpAmXmrh8Y1nSPQ24hwTUYMcb5NuekeMx17e3s9rl23i7GjXG+iWHXai2p0eSNPlvO96zG9bT4+h7485O1eOTC5d4gOyf8AQXQ203C8mpyV2tqbRNfzY7PrmWJw7oVGPNGTiGorkpWd/J44na3rmUurWtKRWkRWtY2iIjqiF5M5ZqJx4WXdehRVi2c46b/0ww/mY/tl0dzXpPlpxHprjx6W0ZNrY8W9euJtv1/a6U0z8Rlh5qoPeHFbLfavZ3z4PEm2luu9Z2miY09In1rqkRFaxEdkdUKuqTUcVu7sAVAAAAAAAAAAAAAAAAAAAAAAAAAAAAAAAAAAAAAAAAAAAAAAAAAAFvLhpljzo6/GO1i30d6xM1tExEe2WcPNxle8c7j4Q/pL0ew8d01fP8lqcf8Aw8m2/sn0IhXo10q0e+LSZMkY4/E6rlrPs3h03U08nmmO6euFphMrj2dFwxy7uc/I3TL8bq/12P4lfkfpj+N1f67H8Toikr109qfbnnyP0w/G6r9cj+JX5H6X/jdX+uR/E6DKh11fan2598j9MPxuq/XI/iPkfpj+N1f65H8ToKp109qfbnf+y3STX3rTXZbRSJ+dn1HPEeqImU24FwfT8F0EafBM3taebJkmOu8/u9DYCXK1ccJj3VWdZpcOt0eXS6mnPiy12tC8S8PTnmp6G8Z0Gqm/Cc/lKT821Mnk7xHhPZ9rx8jdMvxur/XY/idGUae5WftRzv5H6Y/jdX+uR/EfI/TD8bqv1yP4nQ1JOur7U+3Pvkfpf+N1f65H8SnyP0w/G6r9cj+J0EOuntT7c++R+mPdl1f65H8TzbgXS/LHJkyaiaz2xbWRMftOiqnXU9qfaL9F+iUcKzxrddeuXUxHmVr82np9MpVWJtaKx2z1Qov6PHzZubur1vPfKvXbDHsu49HEbTktv6IZNa1pXasREeh6HRMZPDkyyuXkAenkAAAAAAAAAAAAAAAAAAAAAAAAAAAAAAAAAAAAAAAAAAAAAAAAAAAAABj6zHz4eaO2vX7GA27W6nFOPJM/gzO8dTHkx/bo4cv8VlRVSWLoeZFVBRWFFQVelFVQJCUQUlVQV5lSXpQV5VAFYelFVRVsdLj8nijePOt1yxtHhm1vKWjzY7PTLPbceP7c3Ln/AIwAasAAAAAAAAAAAAAAAAAAAAAAAAAAAAAAAAAAAAAAAAAAAAAAAAAAAAAAAABbzY4y45rPsXA8rLpqb0mlpraNpeZbLU4Iy13jqtHY11omszFo2mHNlj0114Z9UeVHo2eWigqICoxJzZN/nfUulxxuTLGJ5bJ9L6jy2T6X1Gnr26y1GNTLeb1ibdUz4MoecsbipKipsiPKquwoov6fBOa3hWO2TT4JzW8Kx2y2NaxWsVrG0Q0ww33rHk5NdoVrFKxWsbRCoN3KAAAAAAAAAAAAAAAAAAAAAAAAAAAAAAAAAAAAAAAAAAAAAAAAAAAAAAAAAAAALOfBXLG/ZbxXhLN+Vls7xqsmK+OdrR7XltbVraNrREx6Wq1Fq4tRbHNZrEdjDPHp7urjz6+wKRMTG8TuqzaDzyU+hX3PQG1PJ0+hX3Hk6fQr7noU3XmKUjsrET6lQQAnbtUx2rfNTHG880xE7ArETadqxMz4Qy8Oj/CzfosqmOmONqViHpvjxyeXNly2+FIiIjaI2iFQasQAAAAAAAAAAFAVAAAAAAAAAAAAAAAAAAAAAAAAAAAAAAAAAAAAAAAAAAAAAAAABa1Oow6TT2z6jJXHjpG82tPYC5MxEbz1QivSDpvo+HWtg0MRqtRG8TNZ8ys77dc+PajfSbppn4jM6fhs3wabeYm3Za/7vH/6RJVSng/SriObpLp9RrdRa2O0zS2OvVXafR64dMzYceqxRv17xvW0OG4ck4s1Mle2lotHsdi6N62NToIxTbe2Lbb01nsSyU3ZdxZz4MumybW9lo7JUrmtHzo3bvJjplpNLxvEtTq9HfTzzR52Px8PW5c+O4954dnHyzPtfKlctJ79vW99rEImY7J2Z9TXpZijF57/AEp96kzM9szK9SdLJtlpHfv6lu2eZ+bGy0y9JobZdr5N60+uSbyuoXpxm6s4cOXU32rvPjM9kNlXHh0GmvltPza72tPbLJx0rjpFaVisR3QjXTHifkNLfDS3/Drz39fdH+vQ6cOOY9/25OTlufaeEXv024lpOP6jNS0Z9Na0VnBeZ5YiJ/Bnuntjf3xO0Og8J4touL6WufQ5q3jaJtTeOfHvv1Wju7J9e3Vu4lM7zvLL4VxPVcJ19NZosnJkr1TE9dbx31mO+P8AXa1ZO4DTdHekui4/jtGDmxajHETkw3mN49MT3xv1b++I3huUQAAAAAAAAABQmYiOtUBSJ3jeFQAAAAAAAAAAAAAAAAAAAAAAAAAAAAAAAAAAAAAAAAAAAAABSZ2jeQWtXqsOj019RqLxTHSN5mXKelPSXPxvUTjxzNNJSfNp9L0z/r/K50x6R5OL622n099tFinasVn58+Mo2qgACedFOIeQxaXPM+by+Tv6uz7t0DSXozl5tHkx99L7+yY/ykHVo643gmImJiY3ie5reAav4zoIx2ne+HzZ9Xd/r0NmiNXrNBNN8mGN699fBgpEwdZoYyb5MMRF++vdLnz4v3i6uPm/WTVq0pbJaK0rNpnuhc0eH45a3kr1mtZ2taJ32nw9bcYNPjwV2pHX3zPbLxhx3Ly0z5scfHdj6XQVx7Xy7Wv4d0M0HTjjMZqOPLK5XdWNbqa6TSXz3/BjqjxnuhzPpTqrW0k89t75sm9vT3/bslnSLW+X1Maak+Zi7fTb/L96B9JsvNq8WLupTf2zP+T08tMAqr2k1WfRarHqdJltizY53revd/rwdi6P8c0vHdBGo008mSu0ZcMzvbHP3x4T3+veI4u2HAuK5uC8Vxa3BHPy7xfHNpiL1ntidvf64iQdsGLwzX4OKcOw63SzacWWN45o2mNp2mJ9UxMMpEAAAAAAAAAAAAAAAAAAAAAAAAAAAAAAAAAAAAAAAAAAAAAAAAAAAAAAAAEK+EDpF8VwTwnR3pbLmrMaie2aVmOzw3mJ9keuJSjjPEcfCuE6jXZY3jFXeK/St2RHZO287Q4vrtXm1+tzavUW5smW82t1z1eiN+6OyAWAFUAAbnozk5dZlx/Tpv7p/wA2mZ3Bcnk+K4Z7rTNffAJ7wbV/FOIUtadsd/Nv6vFMUASnh3FcPyTGXU5NrY/MtHfae7ZEbPLlx4MVsua9aY6Rva1p2iIQDpL0tya3n0nDbWx6bstk7LZP3QvdI9TqOM15aZJxY6TvXFv1W9fpRLJjvivNMlZraO6W/Fjje75frublx/GTU+2Twzier4Xqoz6PJNLfhVnrraPCYdH4B0i0nGccUiYw6qI87FM9vpr4w5Y2nBtJectdVM2pFJ3ptO0zPi05ccdbrl9Fy8szmGPeOsMPiusjRaK2SJ8+fNpHpa/hXHK5NsOtmK37Iyd0+vwa3jmt+N62a0nfFi82vp8Zcj7zXzMzMzM7zPbKHcZyeU4rnnuieX3RsmCC57+Vz5Mk/h2m3vlYseAAAASvoBxy3D+Kxw/NO+m1l4rG8z5mTsiYj09UT7OvqdRcDdd6FcY+V+BY/K35tTp/5LLvO8zt823bM9cd89sxYG/ARAAAAAUVAAAAAAAAAAAAAAAAAAAAAAAAAAAAAAAAAAAAAAAAAAAAAAABicV1tOG8L1OtvyzGHHNoi1uXmnujf0ztHtBAvhJ4t5fXY+F4p8zT+fl9N5jqjs7onun8L0IWuZ82TUajJnzW5smS03vbbbeZneZW1UAAAAXNPfyWpxZPoXi3ulbAT0WtLfymkw3+lSs/Uuog0vHbb6nHXwpv9bdI9xa3NxC/5O0fU14Z+Tg/kMtcOvusNJOG359Binwjb3dSNt5wO++lvT6Nvta80/Fw/wAflrl19xsQHK+6s6y/k9Fmv9HHafqQhMONX5OE558YiPfMQh6xYAAAAN30N4nXhfSTT5cuTkwZd8OWerba3ZvM9kRblmZ8IaQB3wR7oPxaeKcApGfNbLqtPM48s3mOae+s+PZ1bz2zEpCiKd6oAAAAAAAAAAAAAAAAAAAAAAAAAAAAAAAAAAAAAAAAAAAAAAAAAAAIb8JmvnBwnBoaTaJ1OTmt1RtNa9e3vmvuTJyj4QtV8Y6VZMfLy/F8dMW++/N1c2/o+d9QI0AqqxtNoiZ2jvlXJSceS1LdtZ2eV7UedGPJ9Kkb+uOr7gWQAAATDg1+fhOCfCu3umYZrWdHbc3C4j6N5j7/AL2zRBGNXbn1eW3jeftSa9uSlrT3RuikzvO8ujgnmvlfyWXbHFRs+BX21GSn0q7+7/7axl8LvycQxeEzy+9rnN418/02XTzY3/aRAOJ+lavpHbl4Zt9K8R9s/ciyR9J7baXDXxvv7o/zRxVAAFzJj8nFN567V5tvDwecdJyZK0r22mIh71V4vqb2r83favqjqj6gWgATH4MtVOLjmo005a1pnwb8k7efesxtt39UTbq/c6W4nwDW/J3HdFq5yeTpjy18pbl32pPVbq/NmXbEQAAAAAAAAAAAAAAAAAAAAAAAAAAAAAAAAAAAAAAAAAAAAAAAAABSJ6+xUAUmdomZ7nC9fqfjnENRqpryeXy2ycu++28zO2/tdo4zmyafgutz4bcuTHp72pO2+0xWdpcRntWLFAAF6fO0cfkZJj3x/ksr2Pr0uaPCaz9sfeCyAAACSdGLb6PLXwyb/VH7m5aLotP8nqI8JrP2t6iMfX25NDmn8mY9/UjTf8Zty6CY+laI+/7mgdXDPxfD/kct8sn+h7xX8nlpePwbRLwNnz5dXaWxO8bwLGiv5TRYrfkxEr7gs1dP1WOXVjL9tB0pt16av50/Y0LddJ5/3rDXwpv9bSj2AAv6Pq1HP9Ctr+2ImY+tYX9N1Y9RbwxfbaI+9YAAAdl6I6n430V4fl5OTlxRj233+ZPJv7eXf2uNOq/B3qfL9FaYuTl+L5b4999+beeff0fO29hSpOAiAAAAAAAAAAAAAAAAAAAAAAAAAAAAAAAAAAAAAAAAAAAAAAAAAANP0nyZfkbUYMERz5acu/ontj3bw5tj4BeZ3zZ4r6Kxv9bo/SC38lsitu18j1nq+Xjz6cKxzzsuo0mTo/Xl/k9RPN+VXqajVabLpc0481dp7p7pj0Ji13HcFcvD5ybedjmJifR2Sz9L67kvJMeS7lMOS71UZXsP/Az/AJsftQsr2Pq02afHlj69/ufcbrIAAAN90W7dT/8Ar97ftB0W+dqZ9Ffvb9Earj1tseKnjMz/AK97Ttlxy2+qpX6NPva12cc1jH531mXVz5ADRyN9wW/NoeX6Fpj72e1HAr+flx+MRaG3cXJNZV+j9Jl1cOKM9JZ34jSPDFH2y1DadIp34pPopDVvLrAAX8H/AKfUfmx+1Cwv6frw6iP/AMe//wAqrAAADoXwW58ltNxHTzb+SpfHetdo6ptFomf/AIx7nPU++Cv/AJp/df4wT4BEAAAAAAAAAAAAAAAAAAAAAAAAAAAAAAAAAAAAAAAAAAAAAAAAAAR3pBad9kcntB+c9b/bXNn5GHxiduF59vCPtgHPwf24/wDY84+Yii5FpjBNe6bRM+yJ/eD9Y7FsAAAEk6IY63rqpnfqmnZ7Ui+L08bArxfLVa/h2HLq7WtfJvtHZMeHqY/yTp/p5PfH7gdOPiPh8uMvJl/0+SdP9PJ74/cfJOn+nk98fuB62z6Z9Mnh3D8WHU81L5N5rMdcx+5tPi9PGwMOTy+p6Ttx9kO6S1inGL1js5a/Y1QMnfPAAC5hvNbW2266WifctgAAAnnwXV5vlPrmP+F2Tt9MATvk/Kv+lJyflX/SkEQ5Pyr/AKUnJ+Vf9KQA5Pyr/pScn5V/0pADk/Kv+lJyflX/AEpADk/Kv+lK5EbR3+0AVAAAAAAAAAAAAAAAB//Z;" vertex="1" parent="eVdIeHZePJZGgRpQu2_--80">
          <mxGeometry x="130" width="109.47" height="80" as="geometry" />
        </mxCell>
        <mxCell id="eVdIeHZePJZGgRpQu2_--64" value="PM" style="text;html=1;resizable=0;autosize=1;align=center;verticalAlign=middle;points=[];fillColor=none;strokeColor=none;rounded=0;" vertex="1" parent="eVdIeHZePJZGgRpQu2_--80">
          <mxGeometry x="204.74" y="10" width="30" height="20" as="geometry" />
        </mxCell>
        <mxCell id="eVdIeHZePJZGgRpQu2_--65" value="" style="shape=image;imageAspect=0;aspect=fixed;verticalLabelPosition=bottom;verticalAlign=top;strokeWidth=2;fillColor=#66B2FF;gradientColor=none;image=data:image/jpeg,/9j/4AAQSkZJRgABAQEASABIAAD/2wBDAAgGBgcGBQgHBwcJCQgKDBQNDAsLDBkSEw8UHRofHh0aHBwgJC4nICIsIxwcKDcpLDAxNDQ0Hyc5PTgyPC4zNDL/2wBDAQkJCQwLDBgNDRgyIRwhMjIyMjIyMjIyMjIyMjIyMjIyMjIyMjIyMjIyMjIyMjIyMjIyMjIyMjIyMjIyMjIyMjL/wAARCAH0AfQDASIAAhEBAxEB/8QAHAABAAICAwEAAAAAAAAAAAAAAAYHBQgBAwQC/8QAXxAAAQMCAgMJCgoGBgULAwUAAQACAwQFBhEHEiETFhcxQVFVkZMUImFxgZKUodHSFTJCUlNUVrHB4RgjYnKipAgkM0NjgjRzssLwJSY1N0VGZHSDhOJEdaM2lbPD8f/EABkBAQADAQEAAAAAAAAAAAAAAAABAgMEBf/EADERAQACAgAFBAAFAgcBAQAAAAABAgMRBBITITEUQVFSIjJhkaEFIxUWQlNicYEkM//aAAwDAQACEQMRAD8AudERdjkEREBERAREQERQrGmkajwbcaWhloZquWVglfubwwMZmQNp4ySDs8CiZ0mITVF5bdcKa622muFHJulPURiRjhzHn5ubxgr1cvOmyRF4KS92uvrZ6OkuNLPVQf2kUUoc5vjXvTaBERARETYIiICIiAiIgIiIbERFIIiICIiAiIgIiICIiAiIgIiICIiAiIgIiICIiAiIgIiICIiAiIgIiICIiAiIgIiICIiAiIgKG4i0lWPDV9baqxtU+UNa6V8LA5sQPFnt2+RTJVFplwiaiFuJqOPOSFojrGjlZ8l/kOw+DLmVLzqNwtSIme6zbRe7ZfaTum110NVFltMbsyPGOMHxhUjpuP8Az2pOcUDNv+d6gFvq66hqhVUE88FQzbukDi13q5F6r/iO44lqoay5yslqIoBCHtYG64BJBOWzPaVlN9w2rj5Z2sfQzi3cKl+GquQCKcmSjLvkvy75nlAzHhBWV0n6RxQCWwWSY92katTUsO2EH5DSPlc55PGqirqKa0zUdXTyPY2RjJYpGnIseBmcjzjjC91gsbrjJ3bWAmn1iQHccjs9vk5TzqOadaTNI3t4bPc6/Dl3o7tSgxzMO6MLhkHtz74HnB2g+PNbQWO+Ud+sdPdqR/8AV5WaxDv7sj4wPiVIXy0tuVv1IwBPEM4j/u+JQqmq7q6jks9NNU9zySa8lKxx1XOGzvh/wEi0wXpFmwVy0r4TttW+mNZNVPZscaWEyMB5tbMA+RYuTTbhtpIZS3KTm/Vtbn1uVV0WDi+PWrZzG7kZEAdXxk8q97cHW9vHLUu/zAfgp55R0qrIptNeGZT+vp7jT+Ewh49RWZpdJ+DqogC9RRu+bMxzPvCpyTBtC7+znnYeTMhy8kuCpP7qvB8D4/YnPKOnX2bE0mIbJXZGlu9BN+5UM9q9U9xoaZmtPW00Ted8zR+K1flwhXtPe9zSZczsvvC6xhS6yOGvDE0875AVPUk6UfLYqqx5hSjz3bEFBmOMRybof4c1hqrTBhCmOTKqqqD/AINM7LrOSpmLBlUcteqhYP2Wly9seC4Ac5ayVx/YaAo55Ixwn9VpztTMxS2eulPIZJGMB6s1harTncnZikslJFzGWZ78uoBYWPCVrZ8ds0h/aky+5euKw2qHItoYSf2gXfeo55TFKw5i02YkbUa0lPbZY/o9yc31g5qR27TnQvyFys1RCTxvppWyDqORWCfbKCRmo+jpy3m3MLGz4Utk21jJIT+w/Z1FOeU8lfhbVv0n4RuGQbd2wPPyaphi9Z2etSikraSvjElHVQ1LDtzhkD/uWtU+C3gf1esa4fNkZl6wsecP3mhfukDHBw2h9PLkfUc1aMk6V6cNreLj2ItY6XHONLKQ34VrQ1vyKpm6N/iB9RUmt2nC8xACvtlHVtHG6LWid+I9Sv1IU6cr2RVpbtNmHanJtbSV1G7n1RK0eVpz9Slluxvhi65CjvlG55+Q+Tc3dTslPPCs1tHsz6L5Y9sjdZhDmnic05g+I8q+s81dUREQEREBERAREQEREBERAREQEREBERAREQEREBERAREQEREBERAREQEREBERAXXPBFU08kM8bZIpGFr2O4nAjIhdi655WwU8kz/iRsc93iAzP3KJ8J/Rq7ie170caVVFRzCRtNIHREHaGuGYa7wgbD5FIZbFbq8RzzUu5yOAc7czq55jaDkoxDLJiTF0lZUEudUzuqJPFnnl1ZBT7w865vd0+0OmSlp5oWwyQxviblkxzcwMuZdrWtY0NaAABkABkuUTQL5axjXFzWNDjxkDInx86+kQMgiIpBERAyTIcyIgIiICIiGhERQaEyGaIpHDgHDJwBHMeJeGosttqczJRxa3O0ap9S96KNCOz4PoX5mGaaInkJDx61i6jBtY0ExTQzN5nZtPsU2RNG0Cs9wu2HsQ08dPWT08kdRG17GSnVcC4ZggbCMitqztcfGVqhdpWwYslld8WOojechyAtP4LZOyYysGI/8Ao24xSSu27i86kg8GqePyZrTHPyzyx7wziLjPjXK1YiIikEREBERAREQEREBERAREQEREBERAREQEREBERAREQEREBERAREQEREBR/HFYbfge91LTk5tI9rT4XDVH3qQKN4+pzVYCvkeX/wBI9/m5H8FW3havmFAYNhzuE8mWyOLIHwkqa8ihmDJP69VMPE6IOHjBUz4lzw6ZERFKBERAREQEREBERAREQEREBERAREQEREBERQMXcrBRXJ5lkDo5yMjIw5E+McqjFZhWvpHbrTOE7W7QWd69vk9imFxr47ZQvqpGlwBADQeMlRGqxZcJzq07WU4PFqjWd1lR4Sytl0l4qw69sEs7qyFmzca0EkAczvjDrKtHDelyx3uaGkq45LfWSuDGh514nOOwAPHEfGFUlvwRi3EzxMy31DmO2moqzubcv823qCsDDehY0ddT1t5ubZHQvbIKamb3pIOYDnnk8QV6zZnflW4iBFvDAREUgiIgIiICIiAiIgIiICIiAiIgIiICIiAiIgIiICIiAiIgIiICIiAvDe4O6rFcaf6Wllb1sK9y4cwSNLHcThqny7FE+Ex2lqtg9xbeWtPy4XA+PYVPONQCztNJixsLthbNJGR5XBT/AJSub3dXtsREUoEREBERAREQEREBERAREQEREBERAREQERfL3tY3Wc5rW85OQQfFTTxVVO+GZgdG8ZEFQWrpK7C92gq6WZzDG/XgnAB2jkI5/Byqf7CMxtHONq6amlhrKd8E7Ndjxtby+DyqsixMCY8pcY0OrJqwXWFo3eDP437bOceDkUwWqEwq8LX2OegrC2aF2vFKw7R4HD8OVbCYDxlFjGzOndFuNbTkMqYhtbnyOb4D6uJa47b7Mb01O0rREWrMREUgiIgIiICIiAiIgIiICIiAiIgIiICIiAiIgIiICIiAiIgIiICIiAnKPGicQUEtW7uzuDSNXM4hHc35eIvOXqKm2WWzm2LDaXLJLaMaOuEYIhuAE7XZfFkGQcOvI+Ve211wuFthqB8ZwyeOZw41zT5dUTuIexERSCIiAiIgIiICIiAiIgIiICIiAiJyIHWumWrpoBnLURM/eeAobi2rmbddwEr2xMiadVriBmeP8FIbboXxbcWRyvioqaORoc100+scjt4mglV2nTu+H7UZREK2IvcchlmVicZ6xpKRwcdz1yCAePYCFnrxoPv9rsz6ynrae4Tx7X0sDCHFvLqk8Z8CryS4VLreLfMC5kUgLNYZOYRmMvF4PAmyHzQNr6iqZT28VElQ/PVihJ1nZcewca98k+Ii4UMjbgJHnVETonB58HFmsloy2aSLHl9M7/8AjctmhyHPblsJV6V2pe/LKgcPaHb3cyye7yNtkB2lrhrzHyZ5Dyq48MYUtmE6B9JbYnjdHB80srtZ8jgMtp/4AWbDf+ONcrSKRDKbTYREWigiIgIiICIiAiIgIiICIiAiIgIiICIiAiIgIiICIiAiIgIiICIiAiIgIiIIdpNsDb9gqq1Q3uiiBqoSedoOsPK3PqVIYNq3tqZqPaWObug8GWw+orYjFkm44PvMmeWrRSn+Fa5YNb/ypKfmwEesLny9pbY57JuiIoaCIiAiIgIiICIiAiIgIiICIiAiIeJRIr/Fe2+zeCNo9S29oY9yoKdmeerEwdQC1CxGN0xHM0cuo31D2rcKIasMY/ZAVVpHkZLXnS/Pgysr3S2qcvvodlUdysBhfzl7uLW8Lc/CpZpuvN9obfRW+3MnjoqxrxUzwg5k7AI8xxA5k+HiUewNoWkuUENxxKZaanfk6OhZ3sjhyF5+QP2Rt8KIVZarrVWO6QXKhe1lTA4ujc5ocASCOLxFSoaVMaDvjchq5fVW6v3LpwBFGNKduh1AY21crQ1wBGQDwOPxLZIQxagAijyy4tQZfcta1mfDO9oie8KDoNNmI4HgVUFvrGco3Pc3dbT+CnVi0yWC5lsVxZLbJjs1pDrxZ/vDi8oCl1xwpYbswtrrPRzZ/K3INcPERkVXmI9CdLMx8+Hax1PLlspqpxcw+J/GPLn41OrQrE0la8E0VRC2WCRksThm17HAgjnzC7FDdG2F7jhTD01Hc5mOlln3VsUbi5kQ1QMgcuM5Z7FMlpWZnyzntIiIrIEREBERAREQEREBERAREQEREBERAREQEREBERAREQEREBERAREQERFAjmPpNywBfnc9G9vXkFQWDW/12rI5IgPWr00mP3PR1ejnxxNb1vAVHYMaTNWO/ZaPWscnlti/LKXoiKrQREQEREBERAREQERY69XNtstr5s/1ju9YM/lfkoHTW4jt9DUOglfI6RnxhG3PI+PlXkOMaAfFhqT4wAvrRxgJ+ObpUvrJZoaCnGc00exzpHcTRny5ZknxK1YdA+FWf2lRc5PHO0fc1QnUKjONKfMAUUxBPHrhSCkq4a2mZUQP1mP4vBzg+FTW+aDrDJZaiOzbvBcANaGSaYvaXD5JHMfVxqlLdXVeG7pPR1sL4wx5jqIXjIscDlmieyeovmORksbZI3BzHDNrhyhfSmVUBu3f4vc08tRG3/ZW4TRkMitQKgGTHMbQM9aviH8bAr1vOmzDFrq56WCKtrpYXuYTCwNYXA5HJziM/GAVVKynNa7Yctm1MgOLnVH1f9IFx/0TDuR55qn8GtWIn0+Ygftitdti27NYvd+IQR3AP/W1Qf8AnZv/AOxbJjiHiWpFsv1TaL9HeKV8Iqo5XSsDwHN1nZ57M+LapeNM2LPpLf6OPataWiI7s70m09mxHIirTRnpAueLLhW0N0ip9eGISslgaWbM8i0jM9astaRO/DG1eUREV0bERENiIiGxERDYiIhsREQ2IiIbERENiIiGxERDYiIhsREQ2IiIbERENiIiAiIgIiICIigQrSy/V0cXIE5a7om/xj2KnMFjvK13O9g9RV46Q7UbxgO60zATI2Ldo8vnMOt9wKoXB1XlVz0xOQlaJG+MfkVjk8t8X5ZTNERVXEREBERAREQEREA8X4qBXWpqMQ36KkomOl1niGmjA+MTsz8p2+JSLFFdJR2rVjzD53bnrcw5VKtBmEWTTTYnqmhwhc6npGnbk7Lv39WweVVlK1sGYZgwnhqltcOTnsGvPIB/aSn4zuv1AKQEoAANgUO0n4knwvgmqq6SXcqyZzYIH7O9c47SM+UAE+RQJhnmqj004Oo6yyy4ng1Ya6jDRMQNk0ZIAz8Iz2HmzXdoTvd+vNturrtWTVdPFMxsMk7tZwcRm4Z820bDzqTaVGjgyvvOKcHqc1BQeDamR9PUwOeXRxEFgPJmpQohgs/rq1vO1n3lS8cQUxCEBkqW0uNG1LhrNhrWylvPqODsvLkvbg7DhxzjTuLWFNBKZKid0Y+JHnmQ0Hi2kALDXLN99qw0Zu3d/wCKsjQGWDF9xa7V1nUXe+R4zULLNoNEGC6NgztPdLh8qplc89WeSzNPgPClL/ZYetrf/btP3qRIiGMbh2ysADLRQNy5qZnsWBxzabZT4FvksdvpGPbRSkObA0EHLjByUnuFfTWygqK2smbDTwMMkkjuJrRxlV9e8b2XF2jfE77TUve6no3iSOSMscMxsOR4wdqCmtHuLqPBt3qq2sp552TU+5NbCW5g6wO3MqxuHOx9E3Lrj95QjRVg+14wvFxprqJzFT07ZGbjKYzmXZbcvArX4DcHc1y9LPsVovMR2VmkTO5R/hzsfRNy64/eThzsfRNy64/eUg4DcHc1y9LPsTgNwdzXL0s+xT1LI6dUf4c7H0TcuuP3k4c7H0TcuuP3lIOA3B3NcvSz7E4DcHc1y9LPsTqWOnVH+HOx9E3Lrj95OHOx9E3Lrj95SDgNwdzXL0s+xOA3B3NcvSz7E6ljp1R/hzsfRNy64/eThzsfRNy64/eUg4DcHc1y9LPsTgNwdzXL0s+xOpY6dUf4c7H0TcuuP3k4c7H0TcuuP3lIOA3B3NcvSz7E4DcHc1y9LPsTqWOnVH+HOx9E3Lrj95OHOx9E3Lrj95SDgNwdzXL0s+xOA3B3NcvSz7E6ljp1R/hzsfRNy64/eThzsfRNy64/eUg4DcHc1y9LPsTgNwdzXL0s+xOpY6dUf4c7H0TcuuP3k4c7H0TcuuP3lIOA3B3NcvSz7E4DcHc1y9LPsTqWOnVH+HOx9E3Lrj95OHOx9E3Lrj95SDgNwdzXL0s+xOA3B3NcvSz7E6ljp1R/hzsfRNy64/eThzsfRNy64/eUg4DcHc1y9LPsTgNwdzXL0s+xOpY6dUf4c7H0TcuuP3k4c7H0TcuuP3lIOA3B3NcvSz7E4DcHc1y9LPsTqWOnVH+HOx9E3Lrj95OHOx9E3Lrj95SDgNwdzXL0s+xOA3B3NcvSz7E6ljp1R/hzsfRNy64/eThzsfRNy64/eUg4DcHc1y9LPsTgNwdzXL0s+xOpY6dUf4c7H0TcuuP3kUg4DcHc1y9LPsROpY6dUyREXS5xERAREQERFCXy9jZGFjxm1wLSDyg8fqWrFVTOw1jeekfsFLVujPhYTs9RW1KoLTVaRR4up7g1pEddTjM872d6fVqlZ5I7L4p76e/lKLxWmp7stVNOTm5zAHeMbD9y9qyhtIiIpBERAREQERORBHsYNztUThxtmHrB/wCPIrT0DTB+CaqLljr3/wATWlVlipmtYZTlta9h9f5qd/0fZgbTe4M9ramN+XjZl+CpKVyniVOf0gZHCzWWIE6r6qQkchyZs+9XGqq072uSswfS10bSe4aoOflyNeC0k+DPJB7tCUTI9HUEjRtlqZnuPOdbL7gs3pLaJdHF+Z/4Rx6iCoToMxHSusFTYZpWR1NNK6eNriBrRu2uI58jnnzKvMVY3vuJcT3KK319U63ymSGKljd3joWg5kt5cw0uz8SDG4MdlWVY/wANp9ZUyVaWu7S2uR8sDYnmRmr3xzAHHyFZM4zrs8xFSAeX2qdjmxUjblpCpKN3xaiuMRPMHawWb0R1ps+kyjppu93YS0bweR2WwdbQsdo6D63SXZXtAe81e6uDduQAJJ8S9WNoXYW0tVlRECxsVbHWx5cziHn16yhLagcS5XTBUR1EEc0bg6OVoexw4iCMwfWu7NEMTiW1C94auVtI21NO9g/ey2evJao2K6yWumvtI8OyrbdJTSD5rg4ZZ82RBHlW4buLLnVT6Y6G02fBtZUU1BSQVtzqYopZWRhr5AHa5zI4/i7UFUYC0gU+Aa6uqai3y1hq4mxtEcgZq6rieXxqefpI2/7OVPpTfYq8wle7NaYKoXO2OrZZXNLHbi2TVABzHfeNSPflhL7N/wApEta0iY8sr5LROortIP0krf8AZyp9Kb7E/SSt/wBnKr0pvsUf35YT+zZ9EiTflhP7Nn0SJT0q/KvVv9JSD9JK3/Zyq9Kb7E/SSt/2cqvSm+xR/flhP7Nn0SJN+WE/s2fRIk6Vfk6t/pKQfpJW/wCzlV6U32J+klb/ALOVPpTfYo/vywn9mz6JEm/LCf2bPokSdKvydW/0lIP0krf9nKn0pvsT9JK3/Zyq9Kb7FH9+WE/s2fRIk35YT+zZ9EiTpV+Tq3+kpB+klb/s5VelN9ifpJW/7OVXpTfYo/vywn9mz6JEm/LCf2bPokSdKvydW/0lIP0krf8AZyq9Kb7E/SSt/wBnKr0pvsUf35YT+zZ9EiTflhP7Nn0SJOlX5Orf6SkH6SVv+zlT6U32J+klb/s5VelN9ij+/LCf2bPokSb8sJ/Zs+iRJ0q/J1b/AElIP0krf9nKr0pvsT9JK3/Zyq9Kb7FH9+WE/s2fRIk35YT+zZ9EiTpV+Tq3+kpB+klb/s5VelN9ifpJW/7OVXpTfYo/vywn9mz6JEm/LCf2bPokSdKvydW/0lIP0krf9nKn0pvsT9JK3/Zyq9Kb7FH9+WE/s2fRIk35YT+zZ9EiTpV+Tq3+kpB+klb/ALOVXpTfYn6SVv8As5VelN9ij+/LCf2bPokSb8sJ/Zs+iRJ0q/J1b/SUg/SSt/2cqvSm+xP0krf9nKr0pvsUf35YT+zZ9EiTflhP7Nn0SJOlX5Orf6SkH6SVv+zlT6U32J+klb/s5U+lN9ij+/LCf2bPokSb8sJ/Zs+iRJ0q/J1b/SUg/SSt/wBnKr0pvsRR/flhP7Nn0SJE6Vfk6t/pK/ERFszEREBERAREQFXWma1GuwY2tY3N9BO2QkD5Du9d+CsVY3EFHHcMO3KjmbrRy0sjSP8AKSPWAq2jcJrOrba+4NqtekqKYnbG/WAPMfzCkygeD5XMvIZn/aQu1vDltU8XPEOqRERSgREQEREBERBjMQs17DWc4YD1EKQ/0fZsq6+wZ7HRQyAeIvB+8LD3OIz2uqiaCXOhcABy7Fj9EmKKPC+LXfCLjFT1sIp3SnijdrZtLvBns8GapKWxWJblUWbDNyuVNAJ56WnfKyM8TiBy5ciqDCulqmv1PX2nHD6ZlLURkNlERawtPG12WeXOCrwIbIzIkOB8oP5KpMRaCrfX1r6qy3B1vDyXOp3xbpGCePV2ggeDagpjE1vtNtvMkNlvEdzoztZIwOBaPmuJG0+LjVn6DcHvkqZsTVcWUTWOgow4fHJ2PePBl3vWsnY9AtFTVTJr1dH1sbTnuEMe5Nd4Cc8+pW7S0kNHBFT08TYoYmhrI2DJrQBkAAgw5wPhcvc82C2lzjmf6u3jXa3B+G2fFsFs9FZ7Fm0QY+kslrt8hkorbR0smWRfDA1hy8YCrrSxo5qcUGG72hrXXGBm5SQuIbuzOMZH5wzy28YKtVcauaDVKixZjnBOVD3TXUkcfeimrIdZjfFrDYPEclmGadcWNZk4WtxHKYCD/tLZKSCKaMxyxtkYeNrxmOorHuw5ZHOzdZ7eTnxmlZ7EGvM+m3GUzS1ktDDns7ylz+8lYK5XnF+OnwQ1RrblqPO5RxU/etcdmfejL2LFQzw0eJJJphlFHUSZhrc9ms7kU5tukx9opX01FXzxQv8Ak7lmGnlIz4lMQtDJ4QwhK+4MsNRI2GSLXdUFpDsiOMDnO3JZnF+FY8OOp5IJ3SwTlwAkA1mkDnGwqD0uOKairhW09VUMqWuLt03PMknj8ea7rnpDjvErJK+rmlLBkwbjkG+QKyXrRYXfTa/ny9mU302v58vZlNm4ZpFhd9Nr+fL2ZTfTa/ny9mU2bhmkWF302z58vZlN9Ns+fN2ZU9k7hmkWF31Wz583ZlN9Vs+fN2ZTcDNIsLvptnz5uzKb6bZ8+Xsym4Ns0iwu+q1/Pl7Mpvptnz5ezKdjcM0iwu+q1/Pl7Mpvqtfz5ezKdjbNIsLvqtfz5ezKb6rX8+XsynY2zSLC76rX8+Xsym+q1/Pl7Mp2Ns0iwu+q1/Pl7Mpvqtfz5ezKdjbNIsLvqtfz5ezKb6rX8+XsynY2zSLC76rX8+Xsym+q1/Pl7Mp2Ns0iwu+q1/Pl7Mpvqtfz5ezKdjbNIsLvqtfz5ezKJ2NtkERF0OAREQEREBERAXVVN16WZnzo3N6wV2rhwzaRyEEKJ8Jjy1SwudXEEX7sg9SsBV/YRqYoiZxZSSN+9WAOJczqERFKBERAREQEREBRLE1i+PcKVvhlYB/EPxUtXGQ5cgPCo0lmdEGkfX3DDF5m78DVoZ3njH0Tjz83UrtBBWnlotzr9jOkobc0xiorGiPV2ajQ7Mu8gBK3AjGQyzz8J4yqjsREQEREBERAXB/FcrgoNMHgG+VAIzzqJP8AaK9+5s+Y3qC8Dtt9qD/4iT/acsiiZe212Z91kkZEYWGNusS9uzjy5AspvLqeWal6isXbn17JJDQOe15aA7Uy4s1kO6MR/S1HW1aRWZjenNkpntO6T2dm8up+mpeopvLqfp6XqK6+6MR/S1HW1O6cR/S1HW1Tyf8AFTp8X8w7N5dT9PS9RTeXUfT0vUV1904j+lqOtqd0Yj+lqOtqcn6J6XF/MOzeXU8k9Jn4QV47Zh34RmqoxJFGad2qTueee0j8F6BUYj5JajravFQivmqZ2U9Q+KU99IdctzOfgUck+NLRj4nUxMsvvIP1qIf+km8k/WouyXR3He+kJO2cncd86Qk7Zyv0rfVXo8V9nfvJP1qLsk3kn61F2S6O4750hJ2zk7jvnSEnbOUdG31OjxX2d4wQ7PZVRD/0iozLTsimfHqs71xbnq8yz/cd76Qf2zl5XWGtc4uL4iSc8y47Sk4bfDXFizVmeedsPubPmN80JubPmt80LtljMMz4nEEscQcl8LHWms/q+dzZ81vmhNzZ81vmhfSIPnc2fNb5oTc2fNb5oX0iD53NnzW+aE3NnzW+aF9Ig+dzZ81vmhNzZ81vmhfSIPnc2fNb5oTc2fNb5oX0iD53NnzW+aE3NnzW+aF9Ig+dzZ81vmhF9Ig2nREXY5BERAREQEREBAMyEXLfjN/eH3qJ8Jjy1TogI8a6nNWSN9ZU9HEoLINyx/O3kbcZf9tynQOxc3iXTvsIhITNARM0zQERPIgIm3mPUmR5j1ICxWIa00VnmLTlJKNzZ4M+P1ZrK8eeXJ6lCcX1plro6Vu1sDcyB84/lkm0p7oFw/3Td66/St7ylZ3PAT8921x8jch/mV/KKaOsP728EW6ie3VqHs3ef/WP2nq2DyKWKoIiICIiAiIgLhy5RBp/iy3Gw45utEdjYatzmZ8rXHWHqcuVNdO9qFJi6kuTW97W02q45fLjOX3OCgtO/dKaN/OMj5ES99DXS0LpHRMa4vAHfBezfBVfRReafalhukVrmqJJY3vD2Bo1ANm1Z3ffQ/VqjqHtWtL2iNRLmycRlpOq12wW+Cq+ii6j7U3wVX0MXmn2rO776H6tU9Q9qb76H6tU9Q9qnqX+VfVZ/wDbYLfBU/QxdR9qb4Kn6GHqPtWd330P1ap6h7U330P1ap6h7VPUv8nqs/0YPfBU5j9VD5pXgjrJ4ah88TtR788yBznNSvffQ/VqnqHtTffQ/V6jqb7VE3tPfaJ4nNP+hGvhevH9+fNCfDFf9P8AwhSXffQ/V6jqb7U330P1eo6m+1Oe32R6rP8ARGvhiv8Ap/4Qufhev+nPmhSTfhQ/V6jqb7U34UP1eo6h7VHPb7Hqs/0Rv4Xr/p/4QnwvX/TnzQvXbbxBRXerrHxyOjmDtVrcsxm4H8Fmd+FF9XqOoe1Ivafdpk4jNWdRXaHSPfK9z37XOOZPOV8qZ776H6vUdTfam++h+r1HU32qsxHvLL1Gb6IYime++h+r1HU32pvvofq9R1N9qjUfJ6jN9EMX0yN0hIY0uI48gpjvvofq1R1D2qMy1wNfU1EbO9meXAOOWQzVL7iN17uzgbxmyxXPHLX3efuab6J3Unc830T+pen4Sf8ARt60+En/AEY61hFs3w930v8AS/8Adn9nmMErRmY3AeELup7ZXVcW609JLLGdmswbM1y+vc9jmmNvfDLjK9ltxDNbKMU8cET2hxdrOJB2+Ja4ptb88PL/AKlTDj16S3N/32ef4DunR9R5qfAd06PqPNWU341P1SDznJvxqfqkHnOWuqvL6nFfEMX8B3To+o81PgO6dH1HmrKb8an6pB5zk341P1SDznJqqOfiviGL+A7p0fUeaiym/Gp+qQec5E1U5+K+IbBoiLqWEREBERAREQEHxh40RQlqniiCTfvd4YmuMhr5Gsa3jJL9gHhzI61luDbHB/7Hqe3b7yvN+BcPSYmGIHUBNeHiTPXOoXj5ZbxaykWQOee0+FZdPc92nV1HZqpfMN3/AA22B13pZqUTlwj1pQdbLLPiJ5wvbacDYtvlujr7bbaielkJDZBM1ueRyPG7PjUx061Od3s1KOKOnkl85+X+6rY0ZUncejexREAE0wkP+Yl34rK0aa1tuNqD4L8d9DVPpDPeTgvx50NU+kM95bU5DmXOQ5lC22qh0Y48bt+Bas+KdnvLrOjvHjD/ANCXHyStP++trshzJkENtTzgbHjP+xLt5Dn/ALy6zhTHUZ/6HvXkjefuW2uS4yRG2n0V/vFrnNPVhzntORiqmEOHXtWSwHZ3Yt0g0UU7deHdTVVPNqM25eU6oWzl4w5Z7/TmG626nq2ZZDdWAuHidxjyLG4ZwJYsJTVM1ppHxy1Gx75JC8hueeqM+IIlJQNua5QcSIgREQEREBERAREQVZp0tQrMFxV7Rm+gqmvJ5mP7wn7lQ1tfnC9h4wcx4ltliu0i9YUuttIzNRTPa3Zn32WbfWAtRKB5ZUmN41XHMEHkP/8AuaJSywy2yOab4TERZqDU3RuttzWd7pwt9HS9iVgrDbaa5zTtqXuYI2AtycBmc1nd69q+sydq1Xrt5vEckXnmtP8A447pwv8AR0vYn2J3Thf6Ol7E+xfW9i1fWJO1am9i1fWJO1ap7sP7X2s+e6cL/R0vYn2J3Thf6Ol7E+xfW9i1fWJO1am9i1fWJO1anc/tfNnz3Rhb6Ol7E+xcipwsCM46XsSuRhe1E/6TJ2rVEKhjYqqWNhza15aDnnmAVEzMNsWKmSfw2ns4nLDUSmMDULyW5Dkz2LrUotlgt1ZbYKied7ZHjNwEgHKfYvXvXtP1iTtWqum88XSs8vfshiKZ717T9Yk7Vqb17T9Yk7Zqnlk9dj/X9kMRTPevafrEnatTevafrEnatTllHrsf6/shiKZ717T9Yk7Zqb17T9Yk7Vqcsnrcf6/shiKZ717T9Yk7Zqb17T9Yk7Zqcsnrcf6/shiKZ717V9Yk7Vq8d1sNvo7ZPUQzvdKxoLWmRpz28ycsrRxlLTqNowil1JZLLLRwySTfrHxhzspwNpC7vgGxfTH0kJFUTxmOJ1r+ELRTT4BsX0x9JCfANi+mPpIU8ko9bj+J/ZC0U0+AbF9MfSQnwDYvpj6SE5D1uP4n9kLRSG+Wu2UdAJaOTWk3QAjdg7Z4lHlTWnRjyRkjcCIiNG06Ii7HIIiICIiAiIgIiICIh4lBprxpnqd2x26Ibdwo4mAeEguP3rYzD1KKHDtspWjJsNJEweRoWs+NybppYrYm99r10VOB4tVp/FbUMaGNDQMgNgC5beXVWNVfaIihIiJmgIiICIiAiIgIiICIiAiIgIiIB4lp3iSCOkxvdoIGhscdwmaxo5BrlbiLUDFn/WBef/uU3+2gEbUyHMh4z40RExD7hgdUTMhjaHPedVo2DMrJ72Lr9Vb2jfasdTzSU1RHNEAXscHNzHKsxvrumfxIezKmJrHllemee+Ku4dG9i6/Vm+e32pvYuv1Uee32rv313T5kPZlN9d0+ZD2ZTmoz6fG/WHRvYuv1Uee32rnezdvqw7RvtXfvsuQ42QD/ANP8032XHmg8z81b8Kv/ANUT4h597F1+qjz2+1eSe11dNVMpZoQ2Z4za3WBzWS32XH5sHmfmvDU3epqq6OseIxLG3VaA3Zl4lEcu/LTF1ub+5EacfAld9APPCfAld9APPb7V2/D1bnxReanw9Wc0XmLb+y6/wOoWSvJA3Aec1eJ0ZY4tcAHA5FZL4frBtDYs/wB1Y57zJI55AzcSTkqX5NfhVnl9nzkPB1JkPB1IiyV0ZDwdSZDwdSIhqDIeDqTIDaMupEQ1DjIcwXOQ5giInRkOYJkOYIiBkOYJkOYIiI04yA4gFyiIkREQbToiLscgiIgIiICLrmmjp4XzTPbHFG0ve9xyDQOMk8igVx0x4VpGuFNJU1z+TcISGn/M7JVm0R5Wisz4WBmOdYu9Yls+HYRJda+Kmz+Kxxze7xNG0ql77pmvdeHRWqCK1xHYX57rN1kZDyBR+24Qv+Jqo1lW6SJkhzfVVZJc7xDjPqVeaZn8K01rWN3laFZpuw/C4iloa+qA+UWtjB6zmvBw7UOe3D9UG8/dLPYvBR6MLLCwGqmq6l/KdcMHUB+K9o0eYby/0SXx7u5WjFklj6jDCtKe/wARx3HiCqhkMPwh3Y+JuRdlra2WfFmrsi08YXd/aUd0j8cLT9zlGZNGuHHcUVU3xT+0Lzv0X2U/Eqa5v+drvvCrPD3XjjMSds034Nfxz1zP3qVx+5dnDXgv65VeiP8AYq3doqt5+Lc6weNjCvjgpoulqnsmqPT3+FvV4vlY79N+DWDvZq555m0rh9+S8cmnjC7CdSjuknihaPvcoQzRVbh8a51h8TGBd7NF1lHx6mtf/naPwT090erxfKVnT7h7ktl18xnvLlunzDhPfW66NH7jD/vKLjRjh/59cf8A1x7q4OjCwkZNkrgefdgf91PT3R6vGmsOnPCMn9oLjD+9TZ/cSspSaXME1Tc/hpkJ5p4ns+8KrpNFdqcP1dwrWeRjl4JtFD8/6tdx4pYfxB/BR0L/AAtHFY591/0OLMP3IhtFeaCdx4msqG63VnmsuHgt1gcxz8i1TqtGV9hJdD3JU5H5Emqf4l0Rvxvhc60Et3o2t+Y9zmDybRl5FScdo8w1jLSfEttNYLla12rTfiugIZXCjuLG5Z7rHub8vG38Qp/ZdOtgri2O6U1TbZCctcjdY+tu0dSoutVFirXiO0XqJslsudLVNcM/1UoJ6uNZQHnQcoiICIsXfL/bsOW6SvulUyCnZxE8bjyNaOUnmQZCSeOKN8kj2sYwEuc45AAcZWn+I6mGsxtdKmmkbLBLXyvjkYcw5pdsI8CkOO9JlyxjM6jphJR2rPvadp76XwyEcf7vEPCotS0W5kSS/GG0AciD28ZPjREQfcb9SRrss8jxL2/CTOSN3nBeehfDFXQPnAMTXgvzGexSv4Uw3t/Ux5Z/V1S2GuSd2bYv6txHBRy4Y7T+m0c+EmfRu6wnwkz6N3WFI/hTDf0Mfo6fCmG/oY/R1T0uNt/mfj/r/EIhUTNmlLwMvBmuvyhTP4Vw59DH6Onwphv6GP0db1pWsah5eTjsmS83tSdyhnlCKZ/CuG/oY/R1H77PRVNa19A1rYtzAIDNXvtv5KZrCMeab21NNMZmOcJs5wpZRXKwR0MDJ4ozK1g184M9vjXf8K4b+hi9HUcsK24m0TqKShmznCbOcKZ/CuG/oYvR0+FcN/Qxejpywj1VvpKGbOcIpmbrhz6GL0deG7V9kntssdJEwTkt1codXl2pqFq8Tabamko148s/GmznClNtuNihttPHUxMM7Wd+TDntzPKvV8K4b+hj9HTlhE8TaJmIohmznTxKZm64b+hi9HWGv1ZbalkAt7Gt1SdfKPVU8sQmme1p1NZhhURFV1CIiAiIgIiICIiDadERdjkERNueWW3mUJEXDjqN1nbBznYvO+40LDk+tpWn9qdg/FNwjuimlW4/B+j6vAOT6ospm/5jt9QVO4JwjTYjjqqmslnZDC9rGiIga5O05kjZsUz03XinnobRQU1TDKDLJO/cpA7LJuq3iPhK+tHVM2mwjAQWl88j5nAHbx5DZ4gq0iLZO6ctrUxfhZS2YWsloIdSUEQkH94/N7vIT+SzCZc4I8YT7l2RERHZ5k2tPkREVtq7ERFAIiICIiAiIgIiICZkcRREHgrrHarmP65b6eY/OLAHDyjaojctF9vnzfbaqWlfx6kn6xni5CPWp6ipbHW3mGlc16+JUTdsLXnD792mp3Bg4qincXN6xtHlXttOkfF1m1RS3yokiGWUdQRMzL/NtHkIV0nJzS0gEHYQeVQvEWjygugfUW7VoqsnPVA/VvPhHyfIubJw8+au7FxsTOruy06fq+INbd7PBUAcclLIY3ePVdmPWFObVpmwjciGz1c1vk5qqIhvnDMeVa41tuqrNce57jSuY5jgXRl2rrN5w4cnhCyZtFtuVytNNZKyVrq95Y+OqALqd3IDqjaMuVc/LLs5o22CxTpTw/h+1snpquG5VU7c4IKeUEO8LnD4rfX4FrzfsRXjGN2NZcpzI7bucbdkcLeZreT71J7doiu0l0bHcJ6aGjBGvJC/Xe4cwHOecqMOgZS3S408WYjiqHMbmczkCQMz5FVZ8U9KynaMhm7lK70RECLup6c1DnAHLLwL0fBp+l9SytmpWdTLvwf0zis9OpjruHTQRRT18EUxyic8B5zyyClm9+xDZux2bP8ASQox8HH6Qeanwb/iN8xI4nHHujL/AED+oXndYmEn+ALF9OfSQnwBYvpz6SFFn2/UY52uDkM/irx7Pmt6lrTJS8fhefxP9L4rhZiuW0xMpr8A2L6c+kBPgCxfTn0gKFZeAdSZeAdStzfo5fT5PvKa/AFh+mPpIUevlHSUVayKjdrxmPMkv19vjWMyHMOpcZZcQCiZaYsV623NtuURFXToERFOjQiIgIiInYiIiBERAREQEREBERAREQbTE5Z9fiUQv2kzDNhc6J9Z3XUt44KQboQfC74o61T18xvijHVf8H0rJmQyn9XQUQcS4c7iNrvGdgUowzoJuFW1k9/q20Mew9zQZPk8Rd8UeTNbTk+GVcfy8t204XWfNtrttNSM5Hzu3V34NHrUd3zY/wASvLaaru07XH4tFEWNz/ygfer/ALLo1wnYmtNNaIZZmj+2qRurz5XbOoKVxxtjYGMYGtHI0ZBZzaZactYatM0daQLqdeW11zidudVUBp/icvXHoUxnL8ako2eB9UD92a2cRV2lrMdCGMWg6sNAfA2pA/BeSXRHjmmBLbUHtHEYapmfVmFtKmQQamy2bHlj791FfKcN+U0Pc0dWa4p9IWJKCQRzzRzkHayqhydn4xkVtlksfcrHa7tE6O4W6kqmuGRE0LXK0XtHupbHS3mFBW/SnSyHVuVBLCfnwO1x1HIqX2y/2q8NzoK2KZ3zM8nDxg7Vk71oSwtcg59C2otcx4jA/WZ5rs/UQqxxBocxRYnmooWtucDdofSktlaPC3j6itqcRaPLnvwlLflWby8WXgRU7acf3qzTGmuDXVcUZydFUAtlZ5ePyFWTY8UWu/xjuOfKcDN0Emx48nKPCF00zVu4svD3xsyiItWAiIgIiICIiAiIgIiICL5kkEUT5HA5MaXHLmAzUQw3j6nv12NA+l7mMgJgcX56+XIeYqJtETqV4pa0TMM9fLFQ3+hNNWR7R/ZyN+PGecH8FT1bbrlgvEVPK5rTJBIJYJcs2SAH/gEcYV6LGX2yUt/tklHVDLPbHIBtjdyEf8bVjmxc0bjy24fiJxzqfDI4XxJSYmtcdZTkMkaQ2eE8cbuUeLmKpCr2X+7j/wAXJ/tFdlsr7ngLFbt0bmY3Bk8WfezRnlHjAzBXmNRHV3W41MRJjlqHPZnzEkhcMxrtL1YmJjcOxERQl67fQ1dc+RtIAXMALs3huxZDe/exs1P/AMwXjtdfWUEkjqNoLnAB3ea2zPP8Fkd8V8+ib2JSK1mdzDK/EcVSdY7ah1b3r383/wDME3vXv5v/AOYLt3w3v6EdgU3w3v6EdgVPJT4V9Zxv3j95dJw7eyMiwZf60L43sXb6BnahenfDfPoR2BTfDfPoh2BUxWseFL5+Kv8AmmJ/9ebexdvoGdqE3sXb6BnahenfDfPoh2BXy3Et5eSGtY7VOR1Yc8lPZTn4j/j+7o3sXb6BnaBN7F2+gZ2gXp3w3v6JvYFN8N8+hHYFOxz5/wDj+7zb2Lt9AztAud692+gZ2oXo3w3z6EdgVxvhvf0I7ApqDnz/AKMC5rmPcxwyc0lp8Y41wu50FS97nugl1nEuPeHjPGvnuao+hl8wqsuqLR7y60RFC4iIgIiICIiAiIgIiICIiAiIg2fwvg2z4RoRTWumaxxH6yd22SU87nfhxeBZ8DILlEBERAREQEREBERAXDmhw2rlEEaxNgWw4rhLblRNM+XeVMXeSt8Thx+I5hULjHRbfMHyG4UT31tvjOsKiAFskPMXtG0eMbPEtn18OYHbCMwePYkTMeD/ALa2YX0j5mOivrth71lYAP48vvCshr2yNDmkOaRmCDmCPAsVpD0PRV4mu2GomQ1nx5aIbGTc5Z813g4j4FWmE8YVOHan4OuQldQh+o5jmkPp3cRyHHlzt8C6sWf2s4c/CxP4qeVwoviGWOoiZLDI2SN7Q5r2nMOHOF98S7HnfoIiICIiAiIgIiIB/wCM1S+MbHLhnEAq6MujppX7tTvb/duG0t8mezwFXQsbfbPT320y0NRkNbbG/lY8cTh/xyrPJTmjt5b8Pl6d+/h58L4gixFZo6oECdneTxj5L/YeMLNKj7Nc6zBWJnsqY3ZMduVTEPlt5xz8hCuyCeKqgjqIHtkhkaHMe07CDxKMV+aNfCc+LknceJRjHWGxe7SamBgNfStLo/228rPZ4VUlulDZSw8Txy84Ww3FtHGqRxxahZsUz7g3VhnyqIgOIZnaOvNY8TTX4odPBZZ/JMutF8xuEkbXjicM19LkdzKWS7NtE08joTLujA0AOyyyKzW/SP6lJ2o9iiKKYtMML8NjvPNaO6Xb9I/qUna/km/SP6lJ2o9iiPIpZR3exxUUEc0IMrYwH/1fPb41aLTPlz5uGx0iJiu31v0j+pSdqPYuN+sX1KTtR7F2/DWH/of5dc/DWH+WD+WU7/Vz8lf9uXVv0iBH9Sk7QexY62Ygbbpat5p3P7ok1wA/LV8C899q6OrqonULcmBmq4amptz5lilXfd24uHxzTWpjaXb9I/qUnaD2Jv0j+pSdr+SiKJzSejxfH8pdv0j+pSdr+Sb9I/qUna/koiic0o9Hi+P5S7fpH9Sk7X8lw7GcZaR3E/aMv7T8lEkTmlMcHi34/lyTmfGSuERVdMeBERNpEREBERAREQEREBERAREQbfoiICIiAiIgIiICIiAiIgIiIPk8RVW6VNGkeIKaS9WiFrbtEM5I2j/Smjk/f5jy8XMrUXy8d7xINWcCYrfaKoWm4PIo3v1Wuf8A3L+Y8wJ2eDyK21ENNGAxRyHFFtiygldlWxtbsa88UniPEfD411aPMSG6W426pkzq6NoDSTtfHyeMji6l2YMv+mXBxeGPz1TRERdTz4EVXYhxdebVjiSI1LmUUErBuAA1XR5DMnw5Zq0AQ4Ag5g7QqVvFpmI9ml8U0iJn3coiK7MREQEREEL0gYZF1t4uVLH/AFylb3zWjbJGOMeMcY8qwejjE24zCyVb/wBVISaZxPE7lZnyA8Y8KtDLPnz5MlTuOsOusd4bX0bSykqXa8epxRScZb+I8ZXPlia2i8OzBeMlelb/AMXFyKvdKtIHUVtqwNrJXRE+AjMfcVJMJYgbiGyR1DyO6o8o52/tDiPl41itJrNbCzHZfFqWesEK+SYvj2phrOPNqVbW92tSNz4wSF6l4raf1Dv3/wAF7V5z158iIiIFLaS02KSigknlaJXRgv8A1+W3xKJKQ0OFXVlDDUiqa0SN1tXcyclarm4mYisbtpk/gbDv0zfSFx8DYd+mb6QvKMGP+uN7IpvMf9cb2RVtT8OPmr/uy9Ys2HswN2b6SodKGtmkDPih5A8WexSbeY/643sim8x/11vZH2qJifhriz46d5vMosilO8yT663sj7V47lht1soH1TqoPDSBqhhCrNZ06acVim0RHd5O56TkcPK9O56T5zfPXrtmGXXGhZUipawOLhqmMniOS9m8x/11nZFc/p7z/qe1/mDhK/hnDXsxHc9J85vnryVccTJG7kcwRt25qRbzH/XW9kVjrxYHWiljlM4k136uQZlyZq1cFqzubMM/9Y4biadKmOKz+jDoiLVxpDHb7S6NpdIMy0E/rl9/B1n+kHbKNZDmHUufIOpb9av1hpzx8JJ8HWj6QdssRdIaanqWtpjmwtzPfa21eLLwBFW+SLRqI0ibRPsIiLJQREQEREBERAREQbfoiICIiAiIgIiICIiAiIgIiICIiDy19DDcaOajqomy088ZjkY75TTsK1TudDWaPMeyQZl3ckoLHH+9gdxdY2eMLbZU9p2w4Kqz0t/gZ+to37jOQOOJ52E+J2XWpidTtExExqWQpqiKqpYqiE60UrA9jucHiXYoRozupq7HLb5HZyUb+9z49zdxdRz61N16dLc1dvFyUml5hVOlG37leKStaO9qISx2z5TTy+QhTzCNw+E8K2+oJzeIhG85/Kb3v4BY7SHbu78KyytbnJSPEwy48uJ3qPqWE0WXLOOutb3bWkTxjwHY7L1FYR+HL/26bf3OH37wsZERdLiEREBERAWPvlphvdnnoJgBujc2OPyXjiKyCKJjcalMW5Z3ClMKXWbC+KjDVZxxuf3PUtPEDnsd5D+KnGk54bhVjQfjVLB1AqOaT7QKa4wXOJveVTTHLl89o4/K37l04gvJu2jyzF79adlQ6KXnJY3LPqIXJEzTmpL0tRkmuSEctv8Ao7/3vwXtXlt4/qufO4r1Llds+RERECzlJbL7NRxSU0rhC5ubAJ9XZ4s1g1lqa/3Ompo4ISzcmDJucWfrUxMR5Z5MeW8ax129nwPiT6aT0j818vtWIo2Oc6aTJoJOVRzLr3zXbnj7JcPxHdnscxxZk4EH9VyFOevyxjhuL3+SP2Y34RrfrlR2hT4RrfrlR2hXRub/AJjupNzf8x3Uo6kfLr9LPvT+Hf8ACNb9cqO0K+ZKyqlZqS1EsjcwS1zyQV1bm/5jupNzf8x3Uo54+SOGmJ7U/h2x1lVDGI46mZjBxBryAvr4QrfrlR2hXnLXDPNrgB4Fwpi247SrfDFZ/FXUvT8I1v1yo7Qr4mq6ioaGzTySNBzAe7PaulE2iKVidxAifcu1tPO9ocyGRzTxENJSI2mZ15dSLu7kqPoJfMKdyVH0EvmFNSc0fLpRd3clR9BL5hTuSo+gl8wpqTmj5dKLu7kqPoJfMK+X08zGlzoZGtHGSwgJqUc0fLrRERYREQEREBERBt+iIgIiICIiAiIgIiICIiAiIgIiICxl+tUd7sVwtkozZVQPiPgJGw9eSya4PEg1OwFVyWrGcdLNk0zF9LID88E/7wy8quXkHMqgx/SnD2lG4ujGoG1TKtmXM7J3tVvNeJGNe05tcA4eIrt4a24mHm8bXVol8zQsqKeWCUZxyMLHDwEEfiqTs078KY2Y2clrIJzTzeFhOWfVkVd6qnSfadwucF0jadSqbuch/bbxHyj7lbPHi0K8LaNzSfda2R6kUfwXd/hjDNNK92c8I3CX95o4/KMipAtqzusS5r1mtprIiIpVEREBETj2IItpCpWz4OqnkDWgcyVp5siB9xVOuqXdwMpPkNmdIAectA/BWppJvUFNZDa2vBqatzSW/NjB4z4zkqnfG5jI3uGTZAS084ByJ61w8TP4+z1eDjWPuytENWkYOfM+tehYuKqpWxNYbtuZA2s7mcdXwZhfXddJ01/KvWGnTuGSRY3uuk6a/lXp3XSdNfyr01JuGSXrirxHE1m555Dj1lgu66Tpr+VenddJ01/KvVb44vGrOnhuMycNbmxTqZSH4T/wj5yfCX+GfOUe7spemv5V6d2UnTX8q9Zemo7v8c4z7fwkPwll/dnzk+E/8I+co93XSdNfyr07rpOmv5V6elof47xn3/hIfhL/AAz5yfCf+GfOUe7rpOmv5V6d10nTX8q9PTUP8d4z7/wzk9aJoizUIz5c15Vje66Tpr+VendlJ01/KvWlMfJGocHEcXk4m3PlncskixvdlJ01/KvTuuk6a/lXq+pc+4ZLkUituKG0Fvipe5S/UBGYkyz9ShfddJ01/KvTuuk6a/lXqY3DPJSmSNWT/fo36m/tfyTfo36m/tfyUA7rpOmv5V6d10nTX8q9TuzH0mD4T/fo36m/tfyTfo36m/tfyUA7rpOmv5V6d10nTX8q9N2PSYPhP9+jfqb+1/JeS54obcLfLTdzOYXj4xkzyUL7rpOmv5V6d10nTX8q9NzMJrw2Gs7rDJZosb3XSdNfyr07rpOmv5V6rqXTuGSRY3uuk6a/lXp3XSdNfyr01JuGSRY3uuk6a/lXp3XSdNfyr01JuGSRY3uuk6a/lXompNw3RREUJEREBERAREQEREBERAREQEREBcFcog150+W7ccT26vDcm1VIY3EcpY4/g4KQ4VrO7sLW2cnN24hjvG3vfwXu08WzunB9JXgd9R1bczlxNeCD68lEtGFbu2Hp6UnM085IHgcM/vzXRw06vpycbXePabrD4ns/w5h+qo2j9dq7pCeZ42j2eVZhBx5jjXbMbjTza2msxMKf0dXj4Nv7qCY6kNb3hB+TICdX8R1K4OryKncf2V9nxD3dTDUhqzurHN2akgObh198rLwxe2X+xQVmY3YDc5mj5Lxx9fH5VhhtqZpLq4mvNEZa+7LoiLoju4xF4rld7daIjJcK2KnHIHO74+IcZUGvGlFgLorRRl3+NUDIeRvH1qlsta+ZaUw3v4hYc00NPC6aeVkUTRm573AADxqA4h0lU8LX09laJ5eWoeDqN/dHyvGcgoeG4lxnUhx7oqxnlrHvYmfgPWprYtGlHSFs93kFXKNu4t2Rjx8rvUFjN73/ACumMWPD3yTuURsOG7pi+4OrqqSUU7n5zVcm0v5w3nPqCY/ghpcQihpGBkNLSRxRsHJsJ/FXQxjIo2sjY1jGDJrWjIAcypfFANdpEqIW7S6qihHk1WqmXHFKf9teHyzlyfpC8KDQ3giW30z57MHzOiY6RxneNZ2qMzx869HAvgLoMdvJ7ynrGhjQ1vEBkF9LldqAcC+Augx28nvJwL4C6DHbye8p+iCAcC+Augx28nvJwL4C6DHbye8p+iCAcC+Augx28nvJwL4C6DHbye8p+iCAcC+Augx28nvJwL4C6DHbye8p+iCAcC+Augx28nvJwL4C6DHbye8p+uCUEB4F8BdBjt5PeTgXwF0GO3k95T3Nc5ohAeBfAXQY7eT3k4F8BdBjt5PeU/REoBwL4C6DHbye8nAvgLoMdvJ7yn6IIBwL4C6DHbye8nAvgLoMdvJ7yn6IIBwL4C6DHbye8nAvgLoMdvJ7yn6IIBwL4C6DHbye8nAvgLoMdvJ7yn6IIBwL4C6DHbye8nAvgLoMdvJ7yn6IIBwL4C6DHbye8nAvgLoMdvJ7yn6IIBwL4C6DHbye8nAvgLoMdvJ7yn6IIBwL4C6DHbye8in6ICLE4dvUGILBQ3anI3OqhD9XP4rvlN8hzCyuYQcoiICIiAiIgIiICIiAiIgIiICIiCNaQLX8MYCvVEGgvdSuewftN74etqoDRZXal7qqU7G1FPrtHhac/uJ6ltBMxssTo3jNrxqkc4Oxam2ZrsP6R2UshIEFa+md+6SW/iFfHOrRLPLHNjmF0onjRem8RiMS2RmILJNRHVE2WvA75rxxdfF5VV+Cr6/Dl+dS1hLKed25TNd/dvByDvBkdni8SudVtpFws58vw1QxOdrZCpjY3Mg8j8h1HrWGaupi9fLr4bJGpx2nsl97xVabCzKqqA+cjNsEPfPPj5APGq7u+ke8V7zFQNFDE45N1O+ld5ctnkC6cO4EuN8Laqrc6kpDt15G5ySeIHk8JVmWbDFosTB3HSN3blmk757vKeLyKsdTIvrDh/WVYW3BGIL3KKipY6mjeczPVuOufJxn1LF9z728TiG5UsdSymlG6xvbm2RnOOfYcx1K++fwqE6Q8OfCdt+E6dmdVSN78N43xcvlHGPAovh5Y5q+VsXFc9+W0aiUwpH08tHDJSFnc7mB0WoABqniyAXcq00bYkAPwFUv712b6Rx5+Ms8vGFZa3x35ocebHNL6lyNrgOchU1ZmG7aWqPLbut2D8+cNeT/ALquKRxZE94+S0n1KhLBfprBiGnvcMEU88D3SNZKSGlxBG3LbyrDip7RDr4GO8y3JXK164fr8P8Ase2efInD9f8Aoe2efIuN6GpbCoteuH6/9D2zz5E4fr/0PbPPkQ02FRa9cP1/6HtnnyJw/X/oe2efIhpsKi164fr/AND2zz5E4fr/AND2zz5ENNhUWvXD9f8Aoe2efInD/fh/2PbPPkQbCE5AlVhpF0qQ4YL7VaRHU3fLKQnaymz+dzu/Z61ALjp0xJWUM1NDR0VFJI3VE8Re57OfIHZn9yrRkwNSJp2bvm4uc17j355czx8e0+VE6WrSacbxBhieOpjhnvDpQIJtzyYIyMy5zQdpB2ADjz8Cm2jPSc7FpfbbqIorrGC9hjGTZmcuQ+cOUco2ha4ve6V5kccyTyDIeQci9FsuFTabnTXCjlMdRTSCSNw5CDxeI8R8GaJ03UacwuVr1w/37ks9sy/fkTh/v/Q9s8+RFWwqLXrh/v3Q9s8+ROH+/dD2zz5EGwqLXrh/v3Q9s8+ROH+/dD2zz5EGwqLXrh/v/Q9s8+Rc8P1/6HtnnyINhEWvXD/fjxWe2efJ7U4fr/0PbPPkQbCoteuH6/8AQ9s8+ROH6/8AQ9s8+RDTYVFr1w/X/oe2efInD9f+h7Z58iGmwqLXrh+v/Q9s8+ROH6/9D2zz5ENNhUWvXD9f+h7Z58iIaYbBelOswdhyqtcdEyqeZd0pnySEMiLvjAgbTmduxT7D2ni11AbFfqGWhly2zQDdIvHl8YetUziqwyYbxJW2p2sWxP8A1Lj8qN21p6jl1q0bNosw9jXCVBeLXVT22pliAlY39ZEJW7Hd6do2jkPKpmNJ8xtblpxVYr4xrrZdaSp1uJrJRreadvqWX1iOMLWu6aEcV0Di+jFJXtHE6GXUf1Oy+8rGCLSVhvYxuIaZjeIN15GdW0epQhtRrLnNatR6VMe0B3OS6S581TSsJ9bQu8aaMbN2OraUnw0bUTps6SAuNbwLV+TTBjioGoy5saTxbjRsz+4rwXDEWPrjRS1NZX3vuOMa0kga+KNoJy2kABDTbDPbxLlUJoDmrZL3eWmoldTCBjnMc8kF5dsOR5cgVfQ4kQ5REQEREBERAREQcHaFq1pUpTaNJ1xmjGWu+Orb4yAT6wtpSNi160+0YjxTbasf39G5h/yu/wDkE2a7JtDIJoI5mnNsjQ8eIjNfaxGFajurCtrlJzJp2g+MbPwWXXq1ncRLwrxq0wJxHMEjxIilUz25oiICeREQU1jOwSYavTKyiDo6WZ+6QPZs3J4OZb4MuMeDxKyMKYijxHaGzktFVFkyoYOR3OPAfvBXvvFpp71bJqGpaNSQbHDjY4cRHhBVOUFVX4HxO5srTnE7UmZ8mWM8o8m0Fc07xW37S7omOIx8vvC75BrRubztI9SprR7R0dTpAoaG4U0VTBI+SIxSt1gSGnk8YVw0VZT11HBWUsgkglAe1w5R4fCqdtbzZtKdMXHIQ3TVJ5g55H3OKjiNTqU8H25qyv4YIwtkP+b9u7AJvIwt9n7d2AWf5SirqG25YDeRhb7P27sAm8jC32ft3YBZ9FOoNywG8jC32ft3YBN5GFvs/buwCz6JqDcsBvIwt9n7d2ATeRhb7P27sAs+iag3LAbyMLfZ+3dgFXWlq2UdgtlFHaMP0UMdS5zZqqKmBczLLJoPyc+fl4lciwmKsTUOFbLJX1xDs+9hgHxpn8gH4nkHkVL1jS1bTtrPccPXC0Wuirq+EUza0u3CKTY9zRl32ryDb4+Ne/B2EanFdzkZmYLfSt3Wtq8tkUYGZy53EA5Dy8i8F+vtfiO7y3K4SF0kmxrR8VjRxNaOYKxorzFYv6PkUUGqyrutRLACNhI1jrnw96MvKud07QnCVmgxLjiloooi2ifK+VzOPVhaC7LPnyAHjK8+FMPSYqv4tMMohmlhmfE48Wu1pIB8BIyVn6CLBnFdb7K3IFvclOSP8zyP4R5FD9EGQ0oW3wtnH8BQYay1kWFMQywX+ww1kbDudTSVLcnx5HjaeQ+ojxqz4cT6HJImPkssUJdxtkoXZt588s1YmKcB2HFzGuuNKW1TBkyqgOpK0c2fKPAVBP0f7WJ8/hyuEWfxNyZnl40E2pMB4IraWKpp7BbZIZWB7HtjzDmkZghd3Bzg77OW/slnbZQU9qttNQUrS2CnibFGCcyGtGQXsRCLcHODvs5b+yTg5wd9nLf2SlKIItwc4Oy//Tlv7Ja748t1HbtJlwoKOmigpWVMTWxMbk0AtYSMvKVtgeJasaSP+ty5/wDm4f8AZjSPJPheIwRhb7P27sAm8jC32ft3YBZ8cSLqiI05pmWA3kYW+z9u7AJvIwt9n7d2AWfRTqEblgN5GFvs/buwCbyMLfZ+3dgFn0TUG5YDeRhb7P27sAm8jC32ft3YBZ9E1BuWA3kYW+z9u7AIs+iag3KqtNGG+67XT4gp485qM7lUDLjjJzBPidn5yx2gvE7aS41OHKiTKOqznpdY/wB4B3zfGRt8it+so4a+ino6lmvBPG6ORh5WkZFauXq212C8XSUzZXR1NFOJKeYbCW55sd5Rx+ULHJHfbbFbfZuCMslyorgXGlLjKwRVcRayrjAZVwZ7Y3+w8YUpz2ZrJoieki+uw9ge410JDahzRDA4jie85A+TafIq50FCtuc95fWv7qomBmW7gSESkkkgnPLZx+ML1/0gLiWW+zWxrst1mkqHjnDRkPW5SPQrbBQaPKefVykrZpJycuMZ6rfU31oJ/FTQwj9XDGz91oH3KGaXieDC8ZcRbGD4t0apyojpNpXVmji+xgZkUxkAH7JDvwQV9/R7Df8AnE75WtAPJk9XeqC0AVmpfL1SE/2tOyYDn1XEf7yvwHNCXKIiAiIgIiICIiDg8SpT+kHABR2KoA2iWVhPgLQVdhVQf0gGje1anHjFYcvMKJhidHsm6YMpBx6jpG/xfmpQoho0OeEgOQVEmXqUvXp4/wAsPEzf/pIiIrshERAREQFFcbYXF+tu707QK+naTGeLXbysP3hSpFW1YtGpWpeaW3VUGB8UOsdcbbXOLaGZ5Hff3D+LM+DnHiXlx3GaHG9TUM2a+51Lcjx7Ac/KQpHpBwjugkvdBFmeOqiaPjZfLA5+dV5V189bHTtqH7oaePcWPO0loOYB58syuLJusck/+PVwxW9upHv5bcUlQ2qo4KluWrNG2QZeEZruVd4MxlK7B9rZvevtXuNO2F09NSh8bi3MbDnt4gs1v8t4pDIaC5iqFaKHuHub9fupYH5aueXxTnxq0WgmswlSKLyYzfFE6STCmJWsY0uc40IyAH+bxrl+OaJ8tPHQW263J01JHWZUVNr6kcmYYXZkZE5HqU88I5ZSdFGd98/2SxN6APeTffP9ksTegD3lHPU5JSZFGN98/wBksT+gD3l01mPGW+kkqqzDWIqanjGb5ZaNrWt8ZLk56nJZnL5fKHD1pnudwm3OCEZ/tPceJrRyk8i12uNdfNJuL444483vOpBADmynj5yeTLjJ5SvvFmJrrpCxAyCjpaiSBpLaOiiBc47NriBxuPKeQBWPgeKPB1pMTcJ4lmr5gDU1At+WseZu3Y0c3LyrO1ty1ivLG/dFdJWFqLCeGbDQ0o15HSyunnIydK/VbtPMOQDkHhUddZMS3uw4fjo7bUVVCGyspzDGXND3SHX1iOLk48hkFOdJjb1i+ltkdswrf2mmke5+7UersIA2bfApDo+vNfhfB1Laq/CmJHVET5HO3Kh1mkOdnx5hUt57L0meXuneEsPx4YwlQ2luRdDF+tcPlSHa89ZK150V/q9KttHM+YHzXK9N/T+LelinL/7ePeVS4Tw5X4ex229zWTEElFA+R8DG247o7WzADszkMgeNVS2KHEFyolLj+2i2WmspaK5VpujHvp4Ken1pcmfGLm57Ml56nSNFRUstVV4ZxLT00LC+WWShyaxo2knvuIIJqih79INM6rqYKKx32vbTSblJNSUeuzXyBIzzG0ZhdMuku20Zm+ErVebcI6eSpBq6TU12sy1g3btPfBBNkUPGPHn/ALpYny5+4P8A5LqbpLt0jYWQWq8z1kj5WOo4qPOaIxlofrDPZlrN60E0PEtWdJH/AFuXP/zcP+zGryqdI0FFTuqK3DeI6WmZluk8tDkyMEgZk63FtVGaR8uFq5H/AMXBl5kaR5PZsgPioo3UYxijuNZQ0tkvVwdRy7jPJR0muxsmqCW55jaA4da882PqKiJ+E7Veba3cpJWuq6TVDwxus4DbtOS6YtDm5ZSxFF24xle1rm4TxMWuAIIoR7y6maQKCXc44bXeJa18ssTqJlLnNGYwC7Wbnxd83rU88J5ZS3JFE6nHTaKnfU1mG8RU1PGM5JpaHJrBznbxLs37Qyz1MdDYr7Xx08zoHT01HrML28YBJ5E5oOWUoRROXSBQUe7C42u8W90dO6oa2ppNUytaWtIbt2nNzdnhXbvvn+yWJs//ACI95OeDllJ0UHfpWw1CSyoNbTztLmyQy05D43NcWlrhnsOYROaDllOFXGl3CRvNjF4pIy6tt7TrtaNskPGR428fizVjrggHjAPjS0bhSJ5Z21Pw5iS5YWuzLla59zlGxzDtZI35rhyj7lshgzSdZcWRMgMrKK55d9Syu+Medh+UPWqR0l4MOF733TSM/wCS6xxdD/hO43Rn7x4Nix1qwXXYhtDrhYHMrJ6b/SaIENmjPI5ufxmnky255jkXNMade990r081m64ypKfPNtPQtOXMXOcfuAV34LoxQYLstKPkUUWfjLQT961Kuj7k6udFd31Jq4WiFwqyddobsAOttV12DTta46aGmulqqqbc2NYJKciRpAAHEcioF0LyXKjbcLZVUbstWeF8Rz/aBH4qPWvSRhK7ua2mvlK152ak5MTv4slJ4po54hJDIyRh4nMcCD5Qg1h0VVrrHpNo6eYlu7GSikz2d9xD+JvrW0LeJauaSaGbDGlCqq6YauvKyvgI8JzP8QctmbTcIbtaaS4U7gYqmFsrPE4ZoPYiIgIiICIiAiIgHiVM/wBIGbK0WSDZm+pkd5Az81cpOxa86e7m2fFFvoGuzFLSmR4z4nPd7G+tB7tHDCzB0B+fNI4deX4KWLD4UozQ4VtsDhk8QBzh4Xd9+IWYXqU7Vh4mad5JkREVmYiIgIiICIiAeI57R4dqqLHWEBZ53XKhZ/UJXZOYP7lx5P3Tycyt1YbFlJ3dhW5QZZncS9vjb334LLLSLR3bYMk0tCpMKYYqsWXM26kv0VvqC3OKGd0jRLz6urszHMpof6P+KC7XGIaAu1tbPWlzz58+fwqsIZpYJo54ZHRSscHsew5FpHEQeQq/MF6abXLaRDiio7lroQG7uIyWzj52QB1Xc48oXnPalFDoExcc/wDnJSbf8SZfLNAGK4jnHiGiYdUNza+YbBxDi4lafDBgbptvYSe6ueF/A3TY7CT3UQq/gGxj9pqXtZk4B8ZD/vPS9tMrQ4X8DdNjsJPdXB0v4H6bb2EnuoKsn0H4tp4HzTYpo2RRtLnvfPMA0DlKrcRVctY6ihrp7iXy7nFqPeWynPZqtJz28mYVk6UdJrMRt+BrHM74K2GomyLTOfm5HaGj1lfOi+4YJw2fhi+XaP4WOYih3F7hTjlOYblrHwcSD5g0D4tkjinZdqCjkLcywPkD2Zja0lo+5d3AVjb7TUvpE/sVoDS/gbpodhJ7q54X8DdNjsJPdQVeNBeNx/3npfSJ/YuOAvHHEMS0vpM6tHhfwN02Owk91OF/A3TY7CT3UFXcBeOR/wB5aX0mf2IdB2OvtNTH/wB1P7FaPC/gfpsdhJ7qcL+Bumx2EnuoKnZoGxpHuepfaFu5ghmrUSjVB48tmxdr9BuOpI3RyYjpXRuGTmOqZiHDmII2q0+F/A/TY7CT3U4X8D9NjsJPdQVSzQZjuAOEOIKRgcdY6lVM3M8/EvibQRjip/t75RS7CP1lTK7YeMbQrZ4X8DdNjsJPdThfwP02Owk91BVnAtpC+0sPps3sXSzQZjtkxmZe6RspzJkbVShxz49uWe3IZ+JWzwv4H6bHYSe6nC/gfpsdhJ7qCqZdCWP5onRS4gp5InDJzH1kxBHhBC802gTGk0rpZbnb5ZHbS988hcfGSPAFb/DBgfptvYSe6nC/gbptvYSe6gqePQppChc90V/gjdI7XeW1soLncWZ2bTsC+ajQjpAqg0VF8pptXPVEtXI7LPj4xyq2uF/A3Tbewk91OF/A3Tbewk91BVPA7pKAAGIYwBsA+EJtnqXSzQlpCjqO6GXmlZMS4mRtZIHZnjOeWe3IZ86tzhfwN023sJPdThfwN023sJPdQVPNob0kzwvhmv0UsTxk5j6+UtcOYghcQaG9JNM1zYL5DEHOL3BlfK0Fx4ychxq2eF/A3Tbewk91OF/A3Tbewk91BUdRoW0i1ZBqbxTTkNLRutdI7YciRtHEch1Lu4JtKX2hH/7lL7Fa3C/gbptvYSe6nC/gbptvYSe6gpqTQTjuWR0klXb3vcS5znVTiSScySdVFcvC/gbptvYSe6iCQoiLrcjG36yUeIrPPbK+PWhmblmONjuRw8IK14Jvui7GYLdk0XxTt3OqiP4H1HxbdmVH8W4SoMXWk0dX+rlZm6CoaO+id+IPKOVUvXa9L8vZr9jC902KMazXOna8Q1Toe8k4x3rWlp8ufjV1XTQfhavDn0fdVukO39TJrN812fqIVBXa1VmG77Nb61re6KWRutqOza7bmCD4RktosG46tOMaAS0cm51TAN2pZD38Z/FvhGxc7pVNc9Ad5iDjbrrR1beRs7DG4/eFGZcFaQMLyGWnoblEG7TJQTF4PmH8FtQMiEyyRDTi/wB9vd3mgbfqmaaopmljHVEepIATnkdgJ2q9tB15luGC5bfKHf8AJ1QY2OPEWOGsB4wc/UrFrrVQXOMx11FT1LDyTRNf94XFttFBZ6QUtuo4KWnB1tzhYGjPn2IPaOILlEQEREBERARF8l3Og6aqphpaSWpnkayGJhkkeeJrQMyVqjV1M2PNIctQQ7UranP9yFvFn4mgdasLTHpBjlikwtapg4E/16Vp2DLbuYPUT1LF6OcOuoaJ13qmEVFS3Vha4ZFkfP4M/uAWuKnNZlnyRSm06aGtaGtGTQMgPAuURejHZ4oiIgIiICIiAiIgLhzGyNLHjvXDI+I7D965RJIa/wANokmxI2zboyGR9V3MHyZ6rTrZDPwKQYo0aXzCtCK6Yw1dKDqyS02Z3Lbs1gduXhXnxxA+1Y4nqYu9L3R1TCOfYT62rZSkqI7nbKepLWyRVUDZCCAQ4ObmQecbV5d41aYe7jtzViYap2O1xXm4sopLlTULpNkclTmGOPICR8U+NT7gPvvSlv8A4/YvfjrRI+IyXPDMRcw5vloOUcucfOP2ePmKwmDdKVyw05tuu8ctbb2HV1Xf21P4ATxgfNPkKqu9vAffulLd/H7FB8TYfdhm6utslfT1dQwAyinzIjJ+SSflfcrpxXpWtVHhhtTYquOprqoFkTeWDnc9p2gjkHKVXujrBE2L7u+53TdH2yGQulc85mpk49XPlHK4oh04c0V33EdojubJaakglz3LujWDnt+cMvkrLcB9+6Ut38fsV7MY2NrWtaGtaAA0DIADk8GzYuUFEcB996Ut38acB996Ut38avdEFEcB996Ut38acB996Ut38avdEFEHQffuS527rf7E4D7/ANJ27zn+xXuiCiOA+/8ASdu85/sTgPv/AEnbvOf7Fe/lTyoKI4D7/wBJ27zn+xOA+/8ASdu85/sV7+VPKgojgPv/AEnbvOf7FxwH3/pO3ec/2K+PKnlQUPwH3/pO3ec/2JwIX/pO3db/AGK+PKnlQUPwIX/pO3db/YnAhf8ApO3db/Yr48qeVBQ/Ahf+k7d1v9icCF/6Tt3W/wBivjyp5UFD8CF/6Tt3W/2JwIX/AKTt3W/2K+PKnlQUPwIX/pO3db/Yh0IX/L/pK3ec/wBivjyogoXgRxB0jbfOf7EV9ZogIiLscgiJxoNcdLsRj0i1pI2Pghdn/kA/BdF6wjiHBFTBd6OaV1Nk2SG4U2bSzMAgP5uPl2FZXTdAWYyhlGzdqFpz8ILgrqw7K2uwpa5XND2TUUWs1wzDu8AOY5Vz8u5bzaaxCAYP05xvaykxRFub+IV0De9P77BtHjGY8AVwW+6Ud1pWVVBVQ1MDuJ8Lw4epVXifQ9absX1Fnk+DKp2Z1A3Whcf3fknxbPAqzqsM41wLVGqp2VdOG/8A1NA8vjI8OX4hVmswtF4ltYuVrlZtOuIqINZcqekuUY2F+W5SHyt2epTWg084dnblXUNwo3cpa0StHlac/Uq615WWwig9NpawVUBoF7ZG7lbNG9p+5ZAaRMIOGYxHbsvDMAUEoRQyfSrgqA5Ov8Dj/hse/wC4LGT6a8GQk6lVWTf6qlcfvyQWMhOSqOt0+WGJn9SttwqH8mvqxjy7SfUobedOmJK4OjttPSW5h4ngbq8eU7M/Ig2Aud3oLPSOq7jVw0tO3jfK8NHk5/IqOx3pomuEUttwzukFO4Fslc8asjxzMHyR4TtUHZacV4yq+6qs1VQXbe6ax5a1o8Gf3AKd4f0fW60PZU1jhW1bdoLm5RsPOG8vjPUtKYrWY5OIpjjcoxgzA8tfKy5XeItps9aOB+x0x483Z/Jz61aoyAGXFkNi5Rd9McUjUPLy5pyTuRERXZCIiAiIgIiICIiAiIgrXSrR5Ptte0cYfA4/xD1Z9Ss3RZcvhHR9btZ2b6bWpnZ8feHZ6iFFNIVEavCFS9ozfTOZO3ybD6ivjQVcv1N4tTj8VzKlg8Y1Xfc1efnjV3rcJbeOI+FwKJYt0eWXFgdNKw0tflkKuEDM82uOJw8e1S3jTJYulr+3QxiP4bjppH0zqFzs3VjH8TeXvDtz8HFmr1tlspLNbae3UMW5U9OwMY3lPOTzk8pXr2pkgImSICIiAiIgIiICIiAiIgIiICIiAiIgIiICIiAiIgIiICIi7HIIiIKY0602VVZKzLY6OWEnnIIcPVmpzoyqu69HdnOe2OJ0OXNquI9iwemyjE+D6aryzNLWNJ8DXgt9i+dCVdu2EaujJzfS1jj4g9oI9YKyjtdrPeizFwdnLsyXOzNNivLLwofTZa4qPEdvrYYmRNqqctfqNDdZ7HcZy5cnBeey4BtF8w7RXBlRVQTTR/rAHNc3WByOwjwKY6b6Dd8LUNa1uZpqvVcRx5PaR94CwmjKr3bDUtOXd9TVDgBnyO772pjiJvqYMt7Rj3WWJl0UvB/UXhpHNJAR9xK8ztFVxB2XOjIPLub/AGK1OPiz8i51T809S3nBRyRxWX5VlHopn4pbwxv+rhJ+8heuPRTQj+2utS/92NrfvzVg5EchRRGGkIniM0+6GQaMbDE4OlkrJ8uR8oaPUFnqDDdmthDqS207HjieWazus5rKpkeY9SvFKR4hS2TJPmQ7efwbUXOR+aepcepXZT8iINvKiAiIgIiICIiAiIgIiICIiDoraUVtBUUjtrZonR5eMZKoMAYjhwfi0VdcJu5zFJBMIm6zvBs5drVcyozGFE234vro3AiF0omAb812TtnrXLxUdol38DbvNVzcM+E+QXI/+1/+ScM+E/m3P0X81jYtCVgnhjmju9wcyRrXtIazaCARyL74DbH0rcfNZ7FxvR7Pfwz4T+bc/RfzThnwn825+i/mvBwG2PpW4+az2JwG2PpW4+az2IdnvGmfCefFch/7X81zwy4S57l6L+ax/AbYulbj1M9icBti6VuPUz2IdmQ4ZMJ89x9F/NOGTCfPcfRfzWP4DbH0rcepnsTgNsfStx6mexDsyHDJhPnuPov5pwyYT57j6L+ax/AbY+lbj1M9icBtj6VuPUz2IdmQ4ZMJ89x9F/NOGTCfPcfRfzWP4DbH0rcepnsTgNsfStx6mexDsyHDJhPnuPov5pwyYT57j6L+ax/AbY+lbj1M9icBtj6VuPUz2IdmQ4ZcJ89x9F/Nc8MuEue4+i/msdwG2Ppa4dTPYuOA2ydLXDzWexEMlwy4S57j6L+acMuEue4+i/msbwGWTpa4eaz2JwGWTpa4eaz2IMlwy4S57j6L+acMuEue4+i/msbwGWTpa4eaz2JwGWTpa4eaz2IMlwy4S57j6L+acMuEue4+i/msbwGWTpa4eaz2JwGWTpa4eaz2IMjwy4Sz+NcfRfzXPDJhL59w9F/NY3gMsnS1f5rPYnAZZel7h1M9iDJcMmEvn3D0X804ZMJfPuHov5rG8Bll6XuHUz2JwGWXpe4dTPYgyXDJhL59w9F/NOGTCXz7h6L+axvAZZel7h1M9icBll6XuHUz2IMlwyYS+fcPRfzRY3gMsvS9w6mexEFpIiLscgiIoEax/bvhPAt4pgM39zmVg/aZ3w+4qqdDd/pLTdLrHX1UVNSy0wm3SV+q0FjvvyKs3H2M6LCVoLZIm1FbVNcyGlJ+MOIud+yOLwrW2jpHV1dT0bHRsfNK2NrnnJrS45Ak8g2rG9tTtvjruswvi76Z8O0JdHQQ1Nwe3ZrRt3OPznbSPIorVacrq/W7lstHFzGSR7/VsUqsOga107Wy3u4T1kvG6KD9VGD4/jH1KbUmjbB1EG7jh6iJbxOlZuh63Zqs3lMUrDXm/wCky/4mtsttrO4RTSlpcyCHJ2YOY2kk8aw9orL/AELZWWk1sQmI1xTxOOeXk8K25p7La6XLue20cOX0cDW/cF7BGGjJoA8WxV5p8rajWtNTwzH9bxQ3+Tw7lIB9wXaMK6Q6ka3wbfHZ873D/eW1uS4Lcyk2mfdEUrHs1VGA9IEnHaLr/mmHvL6GjnH547TXeWce8tqNUcw6lzqjmCbn5TqPhqqdHePmjZaK/wAk495fBwNpAi4rTdx+7L/8ltZq/wDGSao5h1Jufk1Hw1SdhzSFSjWNvvzQOYvP3FdRkx9R/GZfowOUwyH8Ftnq5cS4LfCetTFpj3OWvw1KOLsXUZylqqtp/wAemzPrau6LSZiCJ2q99HIeZ8QH3ELa50THDJzQ4HnGf3rxTWK01OfdFsopc/n07D+CnqXjxKk4sc+zW+HSpcGj9fbKWQc7Hub7VkodKtGf9ItdRGedkrXeo5K5arRxg6rz3XDlBmeN0ceoetuSwdXoTwZU57nS1VN/qal3+9mrRmvHupPDYp9kKptI+HZ/jy1MH+shJHWM1l6XE9jrctwu1K4nkL9U+vJfNb/R+tr8zRXysiPIJomSAdWRUdr9Ad+hBNHc7fVgcQka6Nx68x61pHE2hlPBU9p0nEb2yt1o3tkHOxwcPUvrly9SqSp0Z46sxL4rXUOA269FOHfcQV4HX7GVicI6qa4Q6vyKyEkfxD7leOKj3ZzwM/6ZXUiqei0p3SMDumipagcrmZsPqzCz9HpQtM2TaqlqqY8rgBIB1bfUtYz0n3YW4bJHsnKLEUWKLFcMu57pTlx+Q92o7qKywIc0OaQWniI2haRaJ8MZpavmHKINqKVRVfpUoRHcaCuA72SN0LvCWnMeo+pWh41E9ItF3ZhKWYDN9JI2bPwcTvUfUs80bo34a3LlhmMGaScOw4RtdLdLtHT1sEAhkbI13ydgOYB4xkpNFpAwjP8A2eIqA588hH3hURgfBW/SWtgjubKOWla14a6Ev12kkbMiOIqVS6DLpxRXuieP24nt+7Nea9lbkOJbFU5bjerc/PiyqWZ9WayMc8MwzimjkHOx4d9xVBTaEsTR5mOotk3NqyOb97QvBJoqxrRnWitzXnnp6ppP3hENkDmBtBHhIIXGfhWtQotI1jObYsQU4HKxz3gdRK7oNKGNbW4NqK0yZfIraYbfLkD60Gx6Kkrfp0rmaouNlp5hyvp5TGcvE7MKXWzTDhWv1W1EtTQPPJURZtz/AHm5oJ+i8lvulBdYt0t9bT1bOeCQPy8YG0L2caDhERAREQEREBERAREQEREBERAREQEREBERAREXY5BERRJPhrLpFrJ7hpEuraiQlsM4p4wOJrAAAAvrSZZaLDWLnUNsYYoI6SJ7QTmdYNG3PnJ2nwlEXLPl2U/K2hstRJV2K31Mpzlmpo5HkcpLQSvciKFXKIiJEREBERAREQEREBERARERAuDxoiJcZDmXy+KOVhZIxr2njDhmERShHLpgPCt2P9csNE9zuN7I9zd1tyKrrG2iXDVptk1dQuroXtaXBm7Bzf4gT60RRpePKjSMyc9uXPtXrobrcKA61HXVEBHIyQgdXEiKazO0ZKx8JXYdIN9krmU1TJBUNOzWkjyd1tIVsROL4mOPGWg7ERehi8PHzxEW7OZXFkTnDIkDPaoNiTEtW2hqaQwUzopYnRu1muzyI/eRFe3iWeL88MPoankix+yNru9mo5Q/w5AOHrC2IRF5k+XtQcoCAAg5hEUEGeXFsXVPTQVUerUQRTNPJJGHfeEREo5W6OcJXVzhNZaeJ5+XT5xH+E5KnNImDLbhWdnwfLVOa92RbM8OyHUCiIlCKaompZ2S000kMgOx8Ti0jyhWlo00g4iuGJqSy3CrbV0sjSdaZgMjcgTscNvJy5oiIXhyeIkIiICIiAiIgIiICIiAiIgIiICIiAiIgIiIP//Z;" vertex="1" parent="eVdIeHZePJZGgRpQu2_--80">
          <mxGeometry x="317" y="10" width="70" height="70" as="geometry" />
        </mxCell>
        <mxCell id="eVdIeHZePJZGgRpQu2_--66" value="RD" style="text;html=1;resizable=0;autosize=1;align=center;verticalAlign=middle;points=[];fillColor=none;strokeColor=none;rounded=0;" vertex="1" parent="eVdIeHZePJZGgRpQu2_--80">
          <mxGeometry x="357" y="10" width="30" height="20" as="geometry" />
        </mxCell>
        <mxCell id="eVdIeHZePJZGgRpQu2_--68" value="HCM SpreadJS&lt;br&gt;&amp;nbsp;SDK" style="ellipse;whiteSpace=wrap;html=1;aspect=fixed;strokeColor=#FFD966;strokeWidth=4;fillColor=#FFFF33;gradientColor=none;" vertex="1" parent="eVdIeHZePJZGgRpQu2_--80">
          <mxGeometry x="234.74" y="240" width="100" height="100" as="geometry" />
        </mxCell>
        <mxCell id="eVdIeHZePJZGgRpQu2_--69" style="edgeStyle=orthogonalEdgeStyle;curved=1;rounded=0;sketch=1;jumpStyle=none;jumpSize=5;orthogonalLoop=1;jettySize=auto;html=1;entryX=1;entryY=0;entryDx=0;entryDy=0;shadow=0;endArrow=open;endFill=0;endSize=12;strokeColor=#808080;strokeWidth=2;" edge="1" parent="eVdIeHZePJZGgRpQu2_--80" source="eVdIeHZePJZGgRpQu2_--70" target="eVdIeHZePJZGgRpQu2_--68">
          <mxGeometry relative="1" as="geometry" />
        </mxCell>
        <mxCell id="eVdIeHZePJZGgRpQu2_--70" value="Data源" style="rounded=1;whiteSpace=wrap;html=1;strokeWidth=2;fillColor=#3c7388;strokeColor=#006666;" vertex="1" parent="eVdIeHZePJZGgRpQu2_--80">
          <mxGeometry x="302" y="140" width="100" height="50" as="geometry" />
        </mxCell>
        <mxCell id="eVdIeHZePJZGgRpQu2_--71" value="" style="endArrow=open;html=1;strokeColor=#808080;strokeWidth=2;endFill=0;endSize=12;jumpSize=5;jumpStyle=none;shadow=0;sketch=1;" edge="1" parent="eVdIeHZePJZGgRpQu2_--80">
          <mxGeometry width="50" height="50" relative="1" as="geometry">
            <mxPoint x="351.5" y="90" as="sourcePoint" />
            <mxPoint x="351.5" y="130" as="targetPoint" />
          </mxGeometry>
        </mxCell>
        <mxCell id="eVdIeHZePJZGgRpQu2_--76" value="前端通过SpreadAPI渲染" style="rounded=1;whiteSpace=wrap;html=1;strokeWidth=2;fillColor=#3c7388;strokeColor=#006666;" vertex="1" parent="eVdIeHZePJZGgRpQu2_--80">
          <mxGeometry x="104.74000000000002" y="308" width="100" height="50" as="geometry" />
        </mxCell>
        <mxCell id="eVdIeHZePJZGgRpQu2_--78" value="SpreadJS数据绑定" style="rounded=1;whiteSpace=wrap;html=1;strokeWidth=2;fillColor=#3c7388;strokeColor=#006666;" vertex="1" parent="eVdIeHZePJZGgRpQu2_--80">
          <mxGeometry x="302" y="368" width="100" height="50" as="geometry" />
        </mxCell>
        <mxCell id="eVdIeHZePJZGgRpQu2_--74" style="edgeStyle=orthogonalEdgeStyle;curved=1;rounded=0;sketch=1;jumpStyle=none;jumpSize=5;orthogonalLoop=1;jettySize=auto;html=1;entryX=0.5;entryY=0;entryDx=0;entryDy=0;shadow=0;endArrow=open;endFill=0;endSize=12;strokeColor=#808080;strokeWidth=2;exitX=0.5;exitY=1;exitDx=0;exitDy=0;" edge="1" parent="eVdIeHZePJZGgRpQu2_--80" source="eVdIeHZePJZGgRpQu2_--68" target="eVdIeHZePJZGgRpQu2_--78">
          <mxGeometry relative="1" as="geometry">
            <Array as="points">
              <mxPoint x="267" y="348" />
              <mxPoint x="352" y="348" />
            </Array>
          </mxGeometry>
        </mxCell>
        <mxCell id="eVdIeHZePJZGgRpQu2_--79" value="合成SpreadJS" style="rounded=1;whiteSpace=wrap;html=1;strokeWidth=2;fillColor=#3c7388;strokeColor=#006666;" vertex="1" parent="eVdIeHZePJZGgRpQu2_--80">
          <mxGeometry x="217" y="478" width="100" height="50" as="geometry" />
        </mxCell>
        <mxCell id="eVdIeHZePJZGgRpQu2_--75" style="edgeStyle=orthogonalEdgeStyle;curved=1;rounded=0;sketch=1;jumpStyle=none;jumpSize=5;orthogonalLoop=1;jettySize=auto;html=1;exitX=0.5;exitY=1;exitDx=0;exitDy=0;entryX=0.5;entryY=0;entryDx=0;entryDy=0;shadow=0;endArrow=open;endFill=0;endSize=12;strokeColor=#808080;strokeWidth=2;" edge="1" parent="eVdIeHZePJZGgRpQu2_--80" source="eVdIeHZePJZGgRpQu2_--76" target="eVdIeHZePJZGgRpQu2_--79">
          <mxGeometry relative="1" as="geometry" />
        </mxCell>
        <mxCell id="eVdIeHZePJZGgRpQu2_--77" style="edgeStyle=orthogonalEdgeStyle;curved=1;rounded=0;sketch=1;jumpStyle=none;jumpSize=5;orthogonalLoop=1;jettySize=auto;html=1;exitX=0.5;exitY=1;exitDx=0;exitDy=0;entryX=0.5;entryY=0;entryDx=0;entryDy=0;shadow=0;endArrow=open;endFill=0;endSize=12;strokeColor=#808080;strokeWidth=2;" edge="1" parent="eVdIeHZePJZGgRpQu2_--80" source="eVdIeHZePJZGgRpQu2_--78" target="eVdIeHZePJZGgRpQu2_--79">
          <mxGeometry relative="1" as="geometry" />
        </mxCell>
        <mxCell id="eVdIeHZePJZGgRpQu2_--81" value="" style="endArrow=open;html=1;strokeColor=#808080;strokeWidth=2;endFill=0;endSize=12;jumpSize=5;jumpStyle=none;shadow=0;sketch=1;" edge="1" parent="eVdIeHZePJZGgRpQu2_--80">
          <mxGeometry width="50" height="50" relative="1" as="geometry">
            <mxPoint x="184.23000000000002" y="88" as="sourcePoint" />
            <mxPoint x="184.23000000000002" y="128" as="targetPoint" />
          </mxGeometry>
        </mxCell>
      </root>
    </mxGraphModel>
  </diagram>
</mxfile>
